{"glyphs":{"0":{"ha":649,"x_min":18,"x_max":631,"o":"m 310 -17 q 93 74 168 -17 q 18 332 18 164 q 40 492 18 421 q 104 613 63 564 q 206 689 146 663 q 342 715 267 715 q 556 626 482 715 q 631 367 631 536 q 546 85 631 186 q 310 -17 461 -17 m 331 249 q 444 271 408 249 q 479 342 479 293 q 315 444 479 444 q 168 350 168 444 q 331 249 168 249 z "},"1":{"ha":524,"x_min":8,"x_max":511,"o":"m 411 556 q 401 500 406 531 q 395 429 397 469 q 392 336 393 389 q 390 213 390 283 q 444 122 390 122 q 468 122 457 122 q 488 124 479 122 q 506 125 497 124 l 511 117 l 492 -8 q 411 -4 450 -7 q 341 -1 378 -3 q 276 0 304 0 q 192 -2 238 0 q 108 -7 147 -4 q 43 -12 69 -10 q 17 -14 17 -14 l 29 99 q 123 127 94 106 q 151 193 151 149 l 151 472 q 139 536 151 521 q 86 551 126 551 q 65 551 76 551 q 44 549 54 550 q 21 547 32 547 l 8 561 l 19 665 q 113 674 67 669 q 203 685 158 679 q 297 696 253 690 q 373 706 340 701 q 425 713 406 710 q 444 715 444 715 l 467 656 q 432 616 444 639 q 411 556 419 593 z "},"2":{"ha":685,"x_min":3,"x_max":676,"o":"m 3 61 l 100 168 q 190 275 154 231 q 246 351 225 319 q 275 406 267 383 q 283 447 283 428 q 217 510 283 510 q 146 487 182 510 q 78 422 110 464 l 53 422 l 18 567 q 328 715 164 715 q 428 701 382 715 q 506 662 474 688 q 556 601 538 636 q 574 522 574 565 q 565 458 574 489 q 531 390 556 426 q 463 305 506 353 q 353 190 419 257 l 360 178 l 407 178 q 484 206 460 178 q 515 304 508 235 l 676 317 q 660 208 667 263 q 647 108 653 163 q 639 8 642 54 l 615 -17 q 418 -8 513 -12 q 335 -6 378 -7 q 253 -3 293 -4 q 176 -1 213 -1 q 114 0 140 0 l 10 -8 l 3 61 z "},"3":{"ha":622,"x_min":3,"x_max":593,"o":"m 33 86 q 161 61 83 61 q 274 82 232 61 q 317 138 317 103 q 279 198 317 179 q 158 217 242 217 l 140 238 l 126 363 l 217 381 q 276 422 256 396 q 297 481 297 449 q 281 519 297 504 q 236 533 264 533 q 92 467 175 533 q 81 466 86 467 q 71 465 76 465 l 26 608 q 92 651 56 631 q 168 685 129 671 q 245 707 207 699 q 315 715 283 715 q 485 669 421 715 q 549 547 549 624 q 507 436 549 485 q 394 365 465 388 l 394 350 q 542 272 490 322 q 593 156 593 222 q 554 50 593 101 q 452 -42 515 -1 q 307 -108 389 -83 q 140 -132 225 -132 q 80 -122 104 -132 q 40 -90 56 -112 q 15 -33 24 -68 q 3 54 7 3 l 33 86 z "},"4":{"ha":681,"x_min":0,"x_max":672,"o":"m 0 76 q 1 146 0 111 q 1 215 1 181 l 354 713 q 360 714 357 713 q 367 715 364 715 l 561 699 l 561 240 l 657 240 l 672 219 l 657 63 q 631 64 646 64 q 601 64 618 64 q 563 65 583 64 q 565 3 564 32 q 568 -50 567 -26 q 571 -100 569 -76 l 556 -115 l 328 -132 l 314 -115 q 317 -56 315 -87 q 319 4 318 -29 q 322 72 321 38 q 154 76 239 75 q 0 76 69 76 m 189 240 l 324 240 l 324 417 l 308 417 l 189 240 z "},"5":{"ha":588,"x_min":-22,"x_max":563,"o":"m 561 185 q 524 67 561 124 q 424 -35 486 10 q 282 -106 363 -79 q 115 -132 201 -132 q 15 -90 46 -132 q -22 54 -15 -49 l 8 86 q 69 67 36 72 q 136 61 101 61 q 248 83 204 61 q 292 139 292 104 q 240 201 292 179 q 60 235 188 222 l 47 250 q 61 399 56 325 q 71 533 67 474 q 79 665 76 603 l 90 676 l 365 685 q 424 697 406 686 q 453 740 442 708 l 563 747 l 522 499 l 496 472 q 424 478 463 475 q 345 482 390 481 q 247 483 300 483 l 236 414 q 385 378 324 399 q 486 331 447 358 q 543 268 525 304 q 561 185 561 232 z "},"6":{"ha":657,"x_min":21,"x_max":640,"o":"m 585 710 q 492 664 538 692 q 406 603 451 640 q 324 513 360 565 l 332 497 l 413 526 q 578 460 517 526 q 640 282 640 394 q 617 157 640 213 q 552 63 594 101 q 449 4 510 25 q 313 -17 389 -17 q 192 5 246 -17 q 100 67 138 26 q 42 165 63 108 q 21 293 21 222 q 42 438 21 372 q 99 556 64 503 q 180 649 135 608 q 272 721 225 690 q 525 832 383 793 l 543 822 l 585 710 m 335 360 q 288 352 308 360 q 256 336 268 344 q 253 309 254 322 q 253 281 253 296 q 332 146 253 146 q 390 169 372 146 q 407 246 407 193 q 335 360 407 360 z "},"7":{"ha":604,"x_min":14,"x_max":608,"o":"m 289 -132 l 117 -79 l 100 -40 l 371 500 l 243 488 q 193 479 213 485 q 161 461 174 474 q 142 428 149 449 q 129 374 135 407 l 14 365 q 25 476 19 419 q 34 583 29 525 q 42 697 39 642 l 50 704 q 103 701 75 703 q 157 699 126 700 q 219 699 188 699 l 529 699 l 608 601 q 539 448 568 513 q 485 325 510 383 q 435 206 460 267 q 379 67 410 146 l 326 -132 l 289 -132 z "},"8":{"ha":657,"x_min":26,"x_max":622,"o":"m 26 190 q 38 257 26 228 q 68 308 50 286 q 109 344 86 329 q 156 369 132 360 q 72 457 107 406 q 38 586 38 508 q 61 683 38 638 q 126 761 85 728 q 225 813 168 794 q 347 832 282 832 q 451 816 403 832 q 535 772 499 800 q 592 708 571 744 q 613 628 613 671 q 603 566 613 593 q 577 517 593 539 q 542 481 561 496 q 501 454 522 465 q 586 377 550 424 q 622 254 622 331 q 599 147 622 196 q 533 60 575 97 q 433 3 490 24 q 307 -17 375 -17 q 194 -1 246 -17 q 106 42 143 14 q 47 108 68 69 q 26 190 26 146 m 319 133 q 393 199 393 133 q 353 256 393 232 q 258 308 313 281 q 240 274 247 293 q 232 229 232 254 q 256 160 232 186 q 319 133 281 133 m 268 613 q 301 556 268 578 q 381 514 333 535 q 399 549 392 529 q 406 593 406 568 q 386 650 406 629 q 333 671 367 671 q 285 655 303 671 q 268 613 268 639 z "},"9":{"ha":657,"x_min":17,"x_max":636,"o":"m 72 -11 q 165 35 119 7 q 250 96 206 58 q 332 186 294 133 l 325 201 l 244 172 q 78 238 140 172 q 17 417 17 304 q 40 542 17 486 q 105 635 63 597 q 208 694 147 674 q 344 715 268 715 q 465 694 411 715 q 557 631 519 672 q 615 533 594 590 q 636 406 636 476 q 615 261 636 326 q 558 143 593 196 q 476 49 522 90 q 383 -22 431 8 q 132 -133 272 -94 l 114 -124 l 72 -11 m 322 339 q 367 347 347 339 q 400 361 388 354 q 404 418 404 388 q 325 553 404 553 q 267 529 285 553 q 250 453 250 506 q 322 339 250 339 z "},"Æ":{"ha":1303,"x_min":3,"x_max":1274,"o":"m 471 121 q 547 139 529 128 q 565 181 565 150 q 565 201 565 192 q 564 225 565 210 l 557 304 l 453 286 l 346 254 l 324 181 q 315 144 315 153 q 329 126 315 128 q 392 124 343 124 l 401 110 l 392 -6 q 357 -5 390 -6 q 278 -3 324 -4 q 188 -2 233 -3 q 118 -1 143 -1 q 75 -2 94 -1 q 40 -3 56 -3 l 7 -3 l 3 118 q 82 194 53 131 l 313 738 q 301 768 310 760 q 276 776 293 776 q 264 776 269 776 q 253 775 258 775 q 240 774 247 774 l 224 793 l 236 903 q 379 900 303 901 q 526 899 444 899 q 697 899 608 899 q 851 901 774 899 q 994 905 928 903 q 1108 910 1060 907 q 1176 915 1157 913 l 1194 893 q 1181 804 1186 850 q 1170 715 1175 764 q 1163 617 1165 665 l 971 604 q 972 624 971 614 q 973 640 972 632 q 974 656 974 649 q 968 694 974 679 q 948 717 963 708 q 906 728 933 725 q 838 732 879 732 q 800 725 810 732 q 790 699 790 718 l 817 517 l 918 535 l 1058 571 l 1082 547 l 1065 386 l 932 369 l 842 353 l 857 251 q 933 158 871 158 q 999 164 974 158 q 1040 185 1025 169 q 1064 231 1056 201 q 1079 307 1072 260 l 1257 319 l 1274 299 q 1260 213 1267 258 q 1247 121 1253 172 q 1235 13 1240 69 l 1214 -10 q 1072 -6 1147 -8 q 928 -1 1008 -3 q 768 0 849 0 l 710 0 q 623 -2 665 -1 q 547 -4 581 -3 q 472 -8 508 -6 l 463 4 l 471 121 m 474 456 l 543 468 l 524 664 l 493 664 l 414 450 l 474 456 z "},"Á":{"ha":939,"x_min":-7,"x_max":946,"o":"m 854 213 q 885 144 867 165 q 936 119 904 122 l 946 106 l 935 -4 q 865 -3 900 -4 q 801 -2 836 -3 q 739 -1 767 -1 q 642 -3 689 -1 q 557 -6 594 -4 q 474 -8 513 -7 l 463 4 l 471 121 q 521 128 503 125 q 547 135 539 131 q 558 147 556 139 q 560 168 560 154 q 559 178 560 172 q 557 193 558 185 l 549 247 q 491 249 521 249 q 442 250 461 250 q 388 248 418 250 q 331 243 358 246 l 317 182 q 313 151 313 158 q 320 128 313 133 q 356 124 328 124 l 392 124 l 403 110 l 392 -6 q 317 -4 354 -6 q 247 -2 285 -3 q 178 -1 210 -1 q 113 -2 146 -1 q 53 -3 79 -3 l -7 -3 l 3 118 q 74 194 53 131 l 294 892 l 660 914 l 681 897 q 753 611 718 746 q 782 495 767 554 q 810 383 797 436 q 835 285 824 329 q 854 213 846 240 m 375 418 l 446 418 q 480 419 461 418 q 518 421 499 419 l 471 664 l 440 664 l 375 418 m 726 1036 q 614 1014 672 1026 q 501 989 564 1003 q 374 960 439 975 l 347 978 l 318 1076 q 444 1125 382 1100 q 556 1169 507 1150 q 664 1215 613 1193 l 686 1208 l 736 1058 l 726 1036 z "},"Ă":{"ha":939,"x_min":-7,"x_max":946,"o":"m 854 213 q 885 144 867 165 q 936 119 904 122 l 946 106 l 935 -4 q 865 -3 900 -4 q 801 -2 836 -3 q 739 -1 767 -1 q 642 -3 689 -1 q 557 -6 594 -4 q 474 -8 513 -7 l 463 4 l 471 121 q 521 128 503 125 q 547 135 539 131 q 558 147 556 139 q 560 168 560 154 q 559 178 560 172 q 557 193 558 185 l 549 247 q 491 249 521 249 q 442 250 461 250 q 388 248 418 250 q 331 243 358 246 l 317 182 q 313 151 313 158 q 320 128 313 133 q 356 124 328 124 l 392 124 l 403 110 l 392 -6 q 317 -4 354 -6 q 247 -2 285 -3 q 178 -1 210 -1 q 113 -2 146 -1 q 53 -3 79 -3 l -7 -3 l 3 118 q 74 194 53 131 l 294 892 l 660 914 l 681 897 q 753 611 718 746 q 782 495 767 554 q 810 383 797 436 q 835 285 824 329 q 854 213 846 240 m 375 418 l 446 418 q 480 419 461 418 q 518 421 499 419 l 471 664 l 440 664 l 375 418 m 474 1125 q 566 1149 525 1125 q 628 1222 607 1174 l 665 1213 l 721 1126 q 690 1057 710 1090 q 640 997 669 1024 q 568 953 610 969 q 474 938 526 938 q 379 953 421 938 q 308 997 338 969 q 258 1057 278 1024 q 226 1126 238 1090 l 282 1213 l 319 1222 q 381 1149 340 1174 q 474 1125 422 1125 z "},"Â":{"ha":939,"x_min":-7,"x_max":946,"o":"m 854 213 q 885 144 867 165 q 936 119 904 122 l 946 106 l 935 -4 q 865 -3 900 -4 q 801 -2 836 -3 q 739 -1 767 -1 q 642 -3 689 -1 q 557 -6 594 -4 q 474 -8 513 -7 l 463 4 l 471 121 q 521 128 503 125 q 547 135 539 131 q 558 147 556 139 q 560 168 560 154 q 559 178 560 172 q 557 193 558 185 l 549 247 q 491 249 521 249 q 442 250 461 250 q 388 248 418 250 q 331 243 358 246 l 317 182 q 313 151 313 158 q 320 128 313 133 q 356 124 328 124 l 392 124 l 403 110 l 392 -6 q 317 -4 354 -6 q 247 -2 285 -3 q 178 -1 210 -1 q 113 -2 146 -1 q 53 -3 79 -3 l -7 -3 l 3 118 q 74 194 53 131 l 294 892 l 660 914 l 681 897 q 753 611 718 746 q 782 495 767 554 q 810 383 797 436 q 835 285 824 329 q 854 213 846 240 m 375 418 l 446 418 q 480 419 461 418 q 518 421 499 419 l 471 664 l 440 664 l 375 418 m 213 1069 q 300 1135 257 1101 q 379 1197 343 1169 q 458 1261 421 1231 l 496 1261 q 518 1247 496 1264 q 575 1201 540 1229 q 653 1138 610 1172 q 740 1069 697 1103 l 692 983 l 660 974 q 560 1013 613 993 q 476 1044 508 1033 q 394 1013 444 1033 q 294 974 343 993 l 263 983 l 213 1069 z "},"Ä":{"ha":939,"x_min":-7,"x_max":946,"o":"m 854 213 q 885 144 867 165 q 936 119 904 122 l 946 106 l 935 -4 q 865 -3 900 -4 q 801 -2 836 -3 q 739 -1 767 -1 q 642 -3 689 -1 q 557 -6 594 -4 q 474 -8 513 -7 l 463 4 l 471 121 q 521 128 503 125 q 547 135 539 131 q 558 147 556 139 q 560 168 560 154 q 559 178 560 172 q 557 193 558 185 l 549 247 q 491 249 521 249 q 442 250 461 250 q 388 248 418 250 q 331 243 358 246 l 317 182 q 313 151 313 158 q 320 128 313 133 q 356 124 328 124 l 392 124 l 403 110 l 392 -6 q 317 -4 354 -6 q 247 -2 285 -3 q 178 -1 210 -1 q 113 -2 146 -1 q 53 -3 79 -3 l -7 -3 l 3 118 q 74 194 53 131 l 294 892 l 660 914 l 681 897 q 753 611 718 746 q 782 495 767 554 q 810 383 797 436 q 835 285 824 329 q 854 213 846 240 m 375 418 l 446 418 q 480 419 461 418 q 518 421 499 419 l 471 664 l 440 664 l 375 418 m 604 951 q 493 1063 493 951 q 525 1151 493 1118 q 613 1183 557 1183 q 694 1154 665 1183 q 722 1072 722 1125 q 690 984 722 1017 q 604 951 658 951 m 336 951 q 226 1063 226 951 q 258 1151 226 1118 q 346 1183 290 1183 q 427 1154 399 1183 q 456 1072 456 1125 q 424 984 456 1017 q 336 951 392 951 z "},"À":{"ha":939,"x_min":-7,"x_max":946,"o":"m 854 213 q 885 144 867 165 q 936 119 904 122 l 946 106 l 935 -4 q 865 -3 900 -4 q 801 -2 836 -3 q 739 -1 767 -1 q 642 -3 689 -1 q 557 -6 594 -4 q 474 -8 513 -7 l 463 4 l 471 121 q 521 128 503 125 q 547 135 539 131 q 558 147 556 139 q 560 168 560 154 q 559 178 560 172 q 557 193 558 185 l 549 247 q 491 249 521 249 q 442 250 461 250 q 388 248 418 250 q 331 243 358 246 l 317 182 q 313 151 313 158 q 320 128 313 133 q 356 124 328 124 l 392 124 l 403 110 l 392 -6 q 317 -4 354 -6 q 247 -2 285 -3 q 178 -1 210 -1 q 113 -2 146 -1 q 53 -3 79 -3 l -7 -3 l 3 118 q 74 194 53 131 l 294 892 l 660 914 l 681 897 q 753 611 718 746 q 782 495 767 554 q 810 383 797 436 q 835 285 824 329 q 854 213 846 240 m 375 418 l 446 418 q 480 419 461 418 q 518 421 499 419 l 471 664 l 440 664 l 375 418 m 261 1058 l 311 1208 l 333 1215 q 442 1169 385 1193 q 552 1125 490 1150 q 679 1076 614 1100 l 650 978 l 624 960 q 495 989 558 975 q 382 1014 432 1003 q 271 1036 324 1026 l 261 1058 z "},"Ā":{"ha":939,"x_min":-7,"x_max":946,"o":"m 854 213 q 885 144 867 165 q 936 119 904 122 l 946 106 l 935 -4 q 865 -3 900 -4 q 801 -2 836 -3 q 739 -1 767 -1 q 642 -3 689 -1 q 557 -6 594 -4 q 474 -8 513 -7 l 463 4 l 471 121 q 521 128 503 125 q 547 135 539 131 q 558 147 556 139 q 560 168 560 154 q 559 178 560 172 q 557 193 558 185 l 549 247 q 491 249 521 249 q 442 250 461 250 q 388 248 418 250 q 331 243 358 246 l 317 182 q 313 151 313 158 q 320 128 313 133 q 356 124 328 124 l 392 124 l 403 110 l 392 -6 q 317 -4 354 -6 q 247 -2 285 -3 q 178 -1 210 -1 q 113 -2 146 -1 q 53 -3 79 -3 l -7 -3 l 3 118 q 74 194 53 131 l 294 892 l 660 914 l 681 897 q 753 611 718 746 q 782 495 767 554 q 810 383 797 436 q 835 285 824 329 q 854 213 846 240 m 375 418 l 446 418 q 480 419 461 418 q 518 421 499 419 l 471 664 l 440 664 l 375 418 m 694 1118 l 669 967 l 475 965 q 411 965 443 965 q 351 964 379 964 l 289 964 l 267 985 l 293 1136 q 369 1135 332 1135 l 507 1135 q 563 1135 533 1135 q 619 1139 593 1136 q 679 1143 650 1140 l 694 1118 z "},"Ą":{"ha":939,"x_min":-7,"x_max":946,"o":"m 943 -237 q 896 -278 921 -260 q 849 -310 875 -294 q 799 -336 824 -326 q 667 -303 715 -336 q 619 -212 619 -271 q 626 -169 619 -190 q 646 -122 632 -147 q 683 -67 660 -97 q 740 -1 707 -37 l 739 -1 q 642 -3 689 -1 q 557 -6 594 -4 q 474 -8 513 -7 l 463 4 l 471 121 q 521 128 503 125 q 547 135 539 131 q 558 147 556 139 q 560 168 560 154 q 559 178 560 172 q 557 193 558 185 l 549 247 q 491 249 521 249 q 442 250 461 250 q 388 248 418 250 q 331 243 358 246 l 317 182 q 313 151 313 158 q 320 128 313 133 q 356 124 328 124 l 392 124 l 403 110 l 392 -6 q 317 -4 354 -6 q 247 -2 285 -3 q 178 -1 210 -1 q 113 -2 146 -1 q 53 -3 79 -3 l -7 -3 l 3 118 q 74 194 53 131 l 294 892 l 660 914 l 681 897 q 753 611 718 746 q 782 495 767 554 q 810 383 797 436 q 835 285 824 329 q 854 213 846 240 q 885 144 867 165 q 936 119 904 122 l 946 106 l 935 -4 q 908 -3 924 -3 q 879 -3 896 -3 q 844 -1 863 -3 q 803 -60 819 -35 q 777 -103 786 -85 q 764 -135 768 -121 q 760 -161 760 -149 q 775 -203 760 -187 q 817 -218 790 -218 q 848 -213 832 -218 q 878 -201 864 -208 q 908 -183 893 -194 l 943 -237 m 375 418 l 446 418 q 480 419 461 418 q 518 421 499 419 l 471 664 l 440 664 l 375 418 z "},"˛":{"ha":553,"x_min":107,"x_max":431,"o":"m 431 -237 q 383 -278 408 -260 q 337 -310 363 -294 q 286 -336 311 -326 q 155 -303 203 -336 q 107 -212 107 -271 q 116 -160 107 -186 q 146 -102 125 -133 q 201 -32 167 -71 q 286 58 235 7 l 379 58 q 314 -28 339 7 q 274 -87 289 -62 q 253 -129 258 -112 q 247 -161 247 -146 q 263 -203 247 -187 q 304 -218 278 -218 q 335 -213 319 -218 q 365 -201 351 -208 q 396 -183 381 -194 l 431 -237 z "},"Å":{"ha":939,"x_min":-7,"x_max":946,"o":"m 854 213 q 885 144 867 165 q 936 119 904 122 l 946 106 l 935 -4 q 865 -3 900 -4 q 801 -2 836 -3 q 739 -1 767 -1 q 642 -3 689 -1 q 557 -6 594 -4 q 474 -8 513 -7 l 463 4 l 471 121 q 521 128 503 125 q 547 135 539 131 q 558 147 556 139 q 560 168 560 154 q 559 178 560 172 q 557 193 558 185 l 549 247 q 491 249 521 249 q 442 250 461 250 q 388 248 418 250 q 331 243 358 246 l 317 182 q 313 151 313 158 q 320 128 313 133 q 356 124 328 124 l 392 124 l 403 110 l 392 -6 q 317 -4 354 -6 q 247 -2 285 -3 q 178 -1 210 -1 q 113 -2 146 -1 q 53 -3 79 -3 l -7 -3 l 3 118 q 74 194 53 131 l 294 892 l 660 914 l 681 897 q 753 611 718 746 q 782 495 767 554 q 810 383 797 436 q 835 285 824 329 q 854 213 846 240 m 375 418 l 446 418 q 480 419 461 418 q 518 421 499 419 l 471 664 l 440 664 l 375 418 m 478 1044 q 509 1053 492 1044 q 526 1090 526 1063 q 472 1139 526 1139 q 435 1126 447 1139 q 424 1094 424 1114 q 442 1055 424 1065 q 478 1044 461 1044 m 468 947 q 364 987 400 947 q 328 1090 328 1026 q 369 1197 328 1154 q 481 1239 410 1239 q 547 1227 519 1239 q 590 1197 574 1215 q 615 1153 607 1178 q 622 1103 622 1129 q 612 1044 622 1072 q 582 995 601 1017 q 534 960 563 974 q 468 947 506 947 z "},"Ã":{"ha":939,"x_min":-7,"x_max":946,"o":"m 854 213 q 885 144 867 165 q 936 119 904 122 l 946 106 l 935 -4 q 865 -3 900 -4 q 801 -2 836 -3 q 739 -1 767 -1 q 642 -3 689 -1 q 557 -6 594 -4 q 474 -8 513 -7 l 463 4 l 471 121 q 521 128 503 125 q 547 135 539 131 q 558 147 556 139 q 560 168 560 154 q 559 178 560 172 q 557 193 558 185 l 549 247 q 491 249 521 249 q 442 250 461 250 q 388 248 418 250 q 331 243 358 246 l 317 182 q 313 151 313 158 q 320 128 313 133 q 356 124 328 124 l 392 124 l 403 110 l 392 -6 q 317 -4 354 -6 q 247 -2 285 -3 q 178 -1 210 -1 q 113 -2 146 -1 q 53 -3 79 -3 l -7 -3 l 3 118 q 74 194 53 131 l 294 892 l 660 914 l 681 897 q 753 611 718 746 q 782 495 767 554 q 810 383 797 436 q 835 285 824 329 q 854 213 846 240 m 375 418 l 446 418 q 480 419 461 418 q 518 421 499 419 l 471 664 l 440 664 l 375 418 m 283 938 l 201 1013 l 201 1035 l 314 1194 l 338 1200 q 385 1192 356 1200 q 447 1176 415 1185 q 508 1160 479 1168 q 551 1153 536 1153 q 579 1165 564 1153 q 610 1193 594 1178 q 644 1233 626 1210 l 667 1233 l 749 1158 l 749 1136 l 636 976 l 613 971 q 565 978 594 971 q 503 994 535 986 q 442 1010 471 1003 q 399 1018 414 1018 q 369 1006 385 1018 q 339 978 354 993 q 306 938 322 960 l 283 938 z "},"B":{"ha":921,"x_min":18,"x_max":897,"o":"m 269 0 q 192 -1 236 0 q 110 -6 149 -3 q 18 -10 64 -8 l 31 115 q 104 146 85 125 q 124 217 124 167 l 125 713 q 88 776 125 776 q 72 776 81 776 q 57 775 64 775 q 40 774 49 774 l 24 790 l 40 901 q 140 900 94 900 q 219 899 181 899 q 275 899 258 899 q 335 899 292 899 q 425 903 379 900 q 542 908 479 906 q 778 853 697 908 q 858 689 858 797 q 847 619 858 650 q 817 562 836 588 q 774 515 799 536 q 724 476 750 494 q 785 450 754 465 q 842 411 817 435 q 882 354 867 388 q 897 275 897 321 q 497 -15 897 -15 q 449 -11 482 -14 q 381 -6 417 -8 q 315 -1 346 -3 q 269 0 283 0 m 400 361 l 393 222 q 417 174 393 189 q 494 158 442 158 q 599 260 599 158 q 510 361 599 333 l 400 361 m 403 540 q 446 532 425 536 q 483 527 464 529 q 514 525 501 525 q 543 553 529 536 q 563 589 554 568 q 572 639 572 610 q 438 733 572 733 q 413 714 414 733 q 408 661 410 690 q 406 604 407 632 q 403 540 404 572 z "},"C":{"ha":838,"x_min":21,"x_max":811,"o":"m 431 -15 q 258 15 333 -15 q 129 103 182 46 q 49 243 76 160 q 21 432 21 326 q 146 791 21 667 q 508 915 271 915 q 603 910 553 915 q 699 897 654 904 q 800 879 750 889 l 811 851 q 796 767 803 813 q 782 672 789 726 q 772 554 775 618 l 558 542 q 560 565 558 553 q 560 590 560 576 q 561 621 561 604 q 540 701 561 678 q 465 724 518 724 q 404 712 429 724 q 365 672 379 700 q 344 597 350 643 q 338 482 338 550 q 369 253 338 326 q 472 181 401 181 q 550 217 525 181 q 582 342 575 253 l 794 356 q 786 257 790 307 q 781 162 783 214 q 778 60 778 110 l 760 38 q 663 11 715 22 q 558 -8 618 0 q 431 -15 497 -15 z "},"Ć":{"ha":838,"x_min":21,"x_max":811,"o":"m 431 -15 q 258 15 333 -15 q 129 103 182 46 q 49 243 76 160 q 21 432 21 326 q 146 791 21 667 q 508 915 271 915 q 603 910 553 915 q 699 897 654 904 q 800 879 750 889 l 811 851 q 796 767 803 813 q 782 672 789 726 q 772 554 775 618 l 558 542 q 560 565 558 553 q 560 590 560 576 q 561 621 561 604 q 540 701 561 678 q 465 724 518 724 q 404 712 429 724 q 365 672 379 700 q 344 597 350 643 q 338 482 338 550 q 369 253 338 326 q 472 181 401 181 q 550 217 525 181 q 582 342 575 253 l 794 356 q 786 257 790 307 q 781 162 783 214 q 778 60 778 110 l 760 38 q 663 11 715 22 q 558 -8 618 0 q 431 -15 497 -15 m 718 1036 q 606 1014 664 1026 q 493 989 556 1003 q 365 960 431 975 l 339 978 l 310 1076 q 436 1125 374 1100 q 547 1169 499 1150 q 656 1215 604 1193 l 678 1208 l 728 1058 l 718 1036 z "},"Č":{"ha":838,"x_min":21,"x_max":811,"o":"m 431 -15 q 258 15 333 -15 q 129 103 182 46 q 49 243 76 160 q 21 432 21 326 q 146 791 21 667 q 508 915 271 915 q 603 910 553 915 q 699 897 654 904 q 800 879 750 889 l 811 851 q 796 767 803 813 q 782 672 789 726 q 772 554 775 618 l 558 542 q 560 565 558 553 q 560 590 560 576 q 561 621 561 604 q 540 701 561 678 q 465 724 518 724 q 404 712 429 724 q 365 672 379 700 q 344 597 350 643 q 338 482 338 550 q 369 253 338 326 q 472 181 401 181 q 550 217 525 181 q 582 342 575 253 l 794 356 q 786 257 790 307 q 781 162 783 214 q 778 60 778 110 l 760 38 q 663 11 715 22 q 558 -8 618 0 q 431 -15 497 -15 m 729 1147 q 642 1081 685 1115 q 563 1019 599 1047 q 483 956 521 986 l 446 956 q 367 1019 408 986 q 288 1081 331 1047 q 201 1147 244 1115 l 250 1233 l 282 1243 q 381 1203 329 1224 q 465 1172 433 1183 q 548 1203 497 1183 q 647 1243 599 1224 l 679 1233 l 729 1147 z "},"Ç":{"ha":838,"x_min":21,"x_max":811,"o":"m 389 -14 q 117 115 213 -1 q 21 432 21 231 q 146 791 21 667 q 508 915 271 915 q 603 910 553 915 q 699 897 654 904 q 800 879 750 889 l 811 851 q 796 767 803 813 q 782 672 789 726 q 772 554 775 618 l 558 542 q 560 565 558 553 q 560 590 560 576 q 561 621 561 604 q 540 701 561 678 q 465 724 518 724 q 404 712 429 724 q 365 672 379 700 q 344 597 350 643 q 338 482 338 550 q 369 253 338 326 q 472 181 401 181 q 550 217 525 181 q 582 342 575 253 l 794 356 q 786 257 790 307 q 781 162 783 214 q 778 60 778 110 l 760 38 q 676 14 722 25 q 586 -3 638 4 q 476 -14 535 -11 l 468 -53 q 516 -79 490 -64 q 565 -113 542 -94 q 603 -153 588 -132 q 618 -199 618 -175 q 602 -253 618 -228 q 558 -297 586 -278 q 493 -326 531 -315 q 413 -336 456 -336 q 370 -331 392 -336 q 331 -317 349 -326 q 302 -294 314 -308 q 290 -264 290 -281 q 297 -243 290 -256 q 314 -217 304 -231 q 335 -191 324 -204 q 358 -167 347 -178 l 371 -167 q 391 -225 372 -206 q 439 -244 410 -244 q 483 -212 483 -244 q 472 -189 483 -201 q 443 -165 461 -176 q 404 -142 425 -153 q 363 -121 383 -131 l 389 -14 z "},"¸":{"ha":553,"x_min":110,"x_max":438,"o":"m 225 49 l 310 49 l 288 -53 q 335 -79 310 -64 q 384 -113 361 -94 q 422 -153 407 -132 q 438 -199 438 -175 q 422 -253 438 -228 q 378 -297 406 -278 q 313 -326 350 -315 q 232 -336 275 -336 q 190 -331 211 -336 q 151 -317 168 -326 q 122 -294 133 -308 q 110 -264 110 -281 q 117 -243 110 -256 q 133 -217 124 -231 q 155 -191 143 -204 q 178 -167 167 -178 l 190 -167 q 210 -225 192 -206 q 258 -244 229 -244 q 303 -212 303 -244 q 292 -189 303 -201 q 263 -165 281 -176 q 224 -142 244 -153 q 182 -121 203 -131 l 225 49 z "},"Ċ":{"ha":838,"x_min":21,"x_max":811,"o":"m 431 -15 q 258 15 333 -15 q 129 103 182 46 q 49 243 76 160 q 21 432 21 326 q 146 791 21 667 q 508 915 271 915 q 603 910 553 915 q 699 897 654 904 q 800 879 750 889 l 811 851 q 796 767 803 813 q 782 672 789 726 q 772 554 775 618 l 558 542 q 560 565 558 553 q 560 590 560 576 q 561 621 561 604 q 540 701 561 678 q 465 724 518 724 q 404 712 429 724 q 365 672 379 700 q 344 597 350 643 q 338 482 338 550 q 369 253 338 326 q 472 181 401 181 q 550 217 525 181 q 582 342 575 253 l 794 356 q 786 257 790 307 q 781 162 783 214 q 778 60 778 110 l 760 38 q 663 11 715 22 q 558 -8 618 0 q 431 -15 497 -15 m 464 949 q 367 983 400 949 q 333 1081 333 1017 q 371 1186 333 1147 q 475 1225 408 1225 q 571 1190 538 1225 q 604 1093 604 1156 q 567 988 604 1026 q 464 949 529 949 z "},"D":{"ha":947,"x_min":24,"x_max":926,"o":"m 443 -17 q 365 -8 404 -12 q 293 -3 332 -6 q 222 0 254 0 q 158 -1 193 0 q 93 -6 124 -3 q 24 -11 57 -8 l 35 118 q 106 151 88 126 q 125 233 125 175 l 125 699 q 117 758 125 743 q 90 774 110 774 q 74 773 82 774 q 60 772 67 772 q 46 771 53 771 l 32 790 l 44 903 q 129 900 89 901 q 199 899 164 899 q 256 899 233 899 q 318 899 279 899 q 394 903 357 900 q 486 907 439 904 q 926 489 926 907 q 892 278 926 372 q 796 119 858 185 q 644 19 733 54 q 443 -17 554 -17 m 436 731 q 415 722 421 731 q 407 693 408 714 q 397 478 400 589 q 393 225 393 367 q 403 171 393 185 q 443 157 414 157 q 519 172 488 157 q 570 221 550 188 q 599 307 590 254 q 608 436 608 360 q 600 578 608 521 q 572 669 592 635 q 519 717 551 703 q 436 731 486 731 z "},"Ď":{"ha":947,"x_min":24,"x_max":926,"o":"m 443 -17 q 365 -8 404 -12 q 293 -3 332 -6 q 222 0 254 0 q 158 -1 193 0 q 93 -6 124 -3 q 24 -11 57 -8 l 35 118 q 106 151 88 126 q 125 233 125 175 l 125 699 q 117 758 125 743 q 90 774 110 774 q 74 773 82 774 q 60 772 67 772 q 46 771 53 771 l 32 790 l 44 903 q 129 900 89 901 q 199 899 164 899 q 256 899 233 899 q 318 899 279 899 q 394 903 357 900 q 486 907 439 904 q 926 489 926 907 q 892 278 926 372 q 796 119 858 185 q 644 19 733 54 q 443 -17 554 -17 m 436 731 q 415 722 421 731 q 407 693 408 714 q 397 478 400 589 q 393 225 393 367 q 403 171 393 185 q 443 157 414 157 q 519 172 488 157 q 570 221 550 188 q 599 307 590 254 q 608 436 608 360 q 600 578 608 521 q 572 669 592 635 q 519 717 551 703 q 436 731 486 731 m 746 1147 q 658 1081 701 1115 q 579 1019 615 1047 q 500 956 538 986 l 463 956 q 383 1019 425 986 q 304 1081 347 1047 q 218 1147 261 1115 l 267 1233 l 299 1243 q 398 1203 346 1224 q 482 1172 450 1183 q 565 1203 514 1183 q 664 1243 615 1224 l 696 1233 l 746 1147 z "},"E":{"ha":838,"x_min":18,"x_max":817,"o":"m 394 243 q 397 199 394 215 q 406 174 399 183 q 426 163 413 165 q 461 160 439 160 q 534 165 506 160 q 580 187 563 171 q 606 231 597 203 q 622 307 615 260 l 800 319 l 817 299 q 803 213 810 258 q 790 121 796 172 q 778 13 783 69 l 757 -10 q 615 -6 690 -8 q 472 -1 551 -3 q 311 0 392 0 q 205 -2 257 0 q 111 -7 153 -4 q 18 -14 63 -11 l 31 114 q 102 148 83 122 q 121 236 121 174 l 122 701 q 115 761 122 746 q 85 776 108 776 q 72 776 78 776 q 61 775 67 775 q 49 774 56 774 l 32 793 l 44 903 q 158 900 101 901 q 263 899 207 899 q 368 899 319 899 q 497 900 433 899 q 618 903 561 901 q 722 908 675 906 q 797 915 768 911 l 815 893 q 801 804 807 850 q 791 715 796 764 q 783 617 786 665 l 592 604 q 593 624 592 614 q 594 640 593 632 q 594 656 594 649 q 589 694 594 679 q 569 717 583 708 q 527 728 554 725 q 458 732 500 732 q 420 725 429 732 q 411 694 411 718 l 403 538 q 455 537 422 538 q 517 536 488 536 q 558 537 532 536 q 608 540 583 538 q 669 544 638 542 l 686 525 l 667 365 q 607 367 636 365 q 553 369 582 368 q 500 369 524 369 q 442 367 469 369 q 396 361 415 364 q 394 296 394 325 q 394 243 394 267 z "},"É":{"ha":838,"x_min":18,"x_max":817,"o":"m 394 243 q 397 199 394 215 q 406 174 399 183 q 426 163 413 165 q 461 160 439 160 q 534 165 506 160 q 580 187 563 171 q 606 231 597 203 q 622 307 615 260 l 800 319 l 817 299 q 803 213 810 258 q 790 121 796 172 q 778 13 783 69 l 757 -10 q 615 -6 690 -8 q 472 -1 551 -3 q 311 0 392 0 q 205 -2 257 0 q 111 -7 153 -4 q 18 -14 63 -11 l 31 114 q 102 148 83 122 q 121 236 121 174 l 122 701 q 115 761 122 746 q 85 776 108 776 q 72 776 78 776 q 61 775 67 775 q 49 774 56 774 l 32 793 l 44 903 q 158 900 101 901 q 263 899 207 899 q 368 899 319 899 q 497 900 433 899 q 618 903 561 901 q 722 908 675 906 q 797 915 768 911 l 815 893 q 801 804 807 850 q 791 715 796 764 q 783 617 786 665 l 592 604 q 593 624 592 614 q 594 640 593 632 q 594 656 594 649 q 589 694 594 679 q 569 717 583 708 q 527 728 554 725 q 458 732 500 732 q 420 725 429 732 q 411 694 411 718 l 403 538 q 455 537 422 538 q 517 536 488 536 q 558 537 532 536 q 608 540 583 538 q 669 544 638 542 l 686 525 l 667 365 q 607 367 636 365 q 553 369 582 368 q 500 369 524 369 q 442 367 469 369 q 396 361 415 364 q 394 296 394 325 q 394 243 394 267 m 706 1036 q 593 1014 651 1026 q 481 989 543 1003 q 353 960 418 975 l 326 978 l 297 1076 q 424 1125 361 1100 q 535 1169 486 1150 q 643 1215 592 1193 l 665 1208 l 715 1058 l 706 1036 z "},"Ě":{"ha":838,"x_min":18,"x_max":817,"o":"m 394 243 q 397 199 394 215 q 406 174 399 183 q 426 163 413 165 q 461 160 439 160 q 534 165 506 160 q 580 187 563 171 q 606 231 597 203 q 622 307 615 260 l 800 319 l 817 299 q 803 213 810 258 q 790 121 796 172 q 778 13 783 69 l 757 -10 q 615 -6 690 -8 q 472 -1 551 -3 q 311 0 392 0 q 205 -2 257 0 q 111 -7 153 -4 q 18 -14 63 -11 l 31 114 q 102 148 83 122 q 121 236 121 174 l 122 701 q 115 761 122 746 q 85 776 108 776 q 72 776 78 776 q 61 775 67 775 q 49 774 56 774 l 32 793 l 44 903 q 158 900 101 901 q 263 899 207 899 q 368 899 319 899 q 497 900 433 899 q 618 903 561 901 q 722 908 675 906 q 797 915 768 911 l 815 893 q 801 804 807 850 q 791 715 796 764 q 783 617 786 665 l 592 604 q 593 624 592 614 q 594 640 593 632 q 594 656 594 649 q 589 694 594 679 q 569 717 583 708 q 527 728 554 725 q 458 732 500 732 q 420 725 429 732 q 411 694 411 718 l 403 538 q 455 537 422 538 q 517 536 488 536 q 558 537 532 536 q 608 540 583 538 q 669 544 638 542 l 686 525 l 667 365 q 607 367 636 365 q 553 369 582 368 q 500 369 524 369 q 442 367 469 369 q 396 361 415 364 q 394 296 394 325 q 394 243 394 267 m 717 1147 q 629 1081 672 1115 q 550 1019 586 1047 q 471 956 508 986 l 433 956 q 354 1019 396 986 q 275 1081 318 1047 q 189 1147 232 1115 l 238 1233 l 269 1243 q 369 1203 317 1224 q 453 1172 421 1183 q 535 1203 485 1183 q 635 1243 586 1224 l 667 1233 l 717 1147 z "},"Ê":{"ha":838,"x_min":18,"x_max":817,"o":"m 394 243 q 397 199 394 215 q 406 174 399 183 q 426 163 413 165 q 461 160 439 160 q 534 165 506 160 q 580 187 563 171 q 606 231 597 203 q 622 307 615 260 l 800 319 l 817 299 q 803 213 810 258 q 790 121 796 172 q 778 13 783 69 l 757 -10 q 615 -6 690 -8 q 472 -1 551 -3 q 311 0 392 0 q 205 -2 257 0 q 111 -7 153 -4 q 18 -14 63 -11 l 31 114 q 102 148 83 122 q 121 236 121 174 l 122 701 q 115 761 122 746 q 85 776 108 776 q 72 776 78 776 q 61 775 67 775 q 49 774 56 774 l 32 793 l 44 903 q 158 900 101 901 q 263 899 207 899 q 368 899 319 899 q 497 900 433 899 q 618 903 561 901 q 722 908 675 906 q 797 915 768 911 l 815 893 q 801 804 807 850 q 791 715 796 764 q 783 617 786 665 l 592 604 q 593 624 592 614 q 594 640 593 632 q 594 656 594 649 q 589 694 594 679 q 569 717 583 708 q 527 728 554 725 q 458 732 500 732 q 420 725 429 732 q 411 694 411 718 l 403 538 q 455 537 422 538 q 517 536 488 536 q 558 537 532 536 q 608 540 583 538 q 669 544 638 542 l 686 525 l 667 365 q 607 367 636 365 q 553 369 582 368 q 500 369 524 369 q 442 367 469 369 q 396 361 415 364 q 394 296 394 325 q 394 243 394 267 m 192 1069 q 279 1135 236 1101 q 358 1197 322 1169 q 438 1261 400 1231 l 475 1261 q 497 1247 475 1264 q 554 1201 519 1229 q 633 1138 589 1172 q 719 1069 676 1103 l 671 983 l 639 974 q 540 1013 592 993 q 456 1044 488 1033 q 373 1013 424 1033 q 274 974 322 993 l 242 983 l 192 1069 z "},"Ë":{"ha":838,"x_min":18,"x_max":817,"o":"m 394 243 q 397 199 394 215 q 406 174 399 183 q 426 163 413 165 q 461 160 439 160 q 534 165 506 160 q 580 187 563 171 q 606 231 597 203 q 622 307 615 260 l 800 319 l 817 299 q 803 213 810 258 q 790 121 796 172 q 778 13 783 69 l 757 -10 q 615 -6 690 -8 q 472 -1 551 -3 q 311 0 392 0 q 205 -2 257 0 q 111 -7 153 -4 q 18 -14 63 -11 l 31 114 q 102 148 83 122 q 121 236 121 174 l 122 701 q 115 761 122 746 q 85 776 108 776 q 72 776 78 776 q 61 775 67 775 q 49 774 56 774 l 32 793 l 44 903 q 158 900 101 901 q 263 899 207 899 q 368 899 319 899 q 497 900 433 899 q 618 903 561 901 q 722 908 675 906 q 797 915 768 911 l 815 893 q 801 804 807 850 q 791 715 796 764 q 783 617 786 665 l 592 604 q 593 624 592 614 q 594 640 593 632 q 594 656 594 649 q 589 694 594 679 q 569 717 583 708 q 527 728 554 725 q 458 732 500 732 q 420 725 429 732 q 411 694 411 718 l 403 538 q 455 537 422 538 q 517 536 488 536 q 558 537 532 536 q 608 540 583 538 q 669 544 638 542 l 686 525 l 667 365 q 607 367 636 365 q 553 369 582 368 q 500 369 524 369 q 442 367 469 369 q 396 361 415 364 q 394 296 394 325 q 394 243 394 267 m 583 951 q 472 1063 472 951 q 504 1151 472 1118 q 592 1183 536 1183 q 673 1154 644 1183 q 701 1072 701 1125 q 669 984 701 1017 q 583 951 638 951 m 315 951 q 206 1063 206 951 q 238 1151 206 1118 q 325 1183 269 1183 q 406 1154 378 1183 q 435 1072 435 1125 q 403 984 435 1017 q 315 951 371 951 z "},"Ė":{"ha":838,"x_min":18,"x_max":817,"o":"m 394 243 q 397 199 394 215 q 406 174 399 183 q 426 163 413 165 q 461 160 439 160 q 534 165 506 160 q 580 187 563 171 q 606 231 597 203 q 622 307 615 260 l 800 319 l 817 299 q 803 213 810 258 q 790 121 796 172 q 778 13 783 69 l 757 -10 q 615 -6 690 -8 q 472 -1 551 -3 q 311 0 392 0 q 205 -2 257 0 q 111 -7 153 -4 q 18 -14 63 -11 l 31 114 q 102 148 83 122 q 121 236 121 174 l 122 701 q 115 761 122 746 q 85 776 108 776 q 72 776 78 776 q 61 775 67 775 q 49 774 56 774 l 32 793 l 44 903 q 158 900 101 901 q 263 899 207 899 q 368 899 319 899 q 497 900 433 899 q 618 903 561 901 q 722 908 675 906 q 797 915 768 911 l 815 893 q 801 804 807 850 q 791 715 796 764 q 783 617 786 665 l 592 604 q 593 624 592 614 q 594 640 593 632 q 594 656 594 649 q 589 694 594 679 q 569 717 583 708 q 527 728 554 725 q 458 732 500 732 q 420 725 429 732 q 411 694 411 718 l 403 538 q 455 537 422 538 q 517 536 488 536 q 558 537 532 536 q 608 540 583 538 q 669 544 638 542 l 686 525 l 667 365 q 607 367 636 365 q 553 369 582 368 q 500 369 524 369 q 442 367 469 369 q 396 361 415 364 q 394 296 394 325 q 394 243 394 267 m 451 949 q 354 983 388 949 q 321 1081 321 1017 q 358 1186 321 1147 q 463 1225 396 1225 q 558 1190 525 1225 q 592 1093 592 1156 q 554 988 592 1026 q 451 949 517 949 z "},"È":{"ha":838,"x_min":18,"x_max":817,"o":"m 394 243 q 397 199 394 215 q 406 174 399 183 q 426 163 413 165 q 461 160 439 160 q 534 165 506 160 q 580 187 563 171 q 606 231 597 203 q 622 307 615 260 l 800 319 l 817 299 q 803 213 810 258 q 790 121 796 172 q 778 13 783 69 l 757 -10 q 615 -6 690 -8 q 472 -1 551 -3 q 311 0 392 0 q 205 -2 257 0 q 111 -7 153 -4 q 18 -14 63 -11 l 31 114 q 102 148 83 122 q 121 236 121 174 l 122 701 q 115 761 122 746 q 85 776 108 776 q 72 776 78 776 q 61 775 67 775 q 49 774 56 774 l 32 793 l 44 903 q 158 900 101 901 q 263 899 207 899 q 368 899 319 899 q 497 900 433 899 q 618 903 561 901 q 722 908 675 906 q 797 915 768 911 l 815 893 q 801 804 807 850 q 791 715 796 764 q 783 617 786 665 l 592 604 q 593 624 592 614 q 594 640 593 632 q 594 656 594 649 q 589 694 594 679 q 569 717 583 708 q 527 728 554 725 q 458 732 500 732 q 420 725 429 732 q 411 694 411 718 l 403 538 q 455 537 422 538 q 517 536 488 536 q 558 537 532 536 q 608 540 583 538 q 669 544 638 542 l 686 525 l 667 365 q 607 367 636 365 q 553 369 582 368 q 500 369 524 369 q 442 367 469 369 q 396 361 415 364 q 394 296 394 325 q 394 243 394 267 m 199 1058 l 249 1208 l 271 1215 q 379 1169 322 1193 q 490 1125 428 1150 q 617 1076 551 1100 l 588 978 l 561 960 q 433 989 496 975 q 319 1014 369 1003 q 208 1036 261 1026 l 199 1058 z "},"Ē":{"ha":838,"x_min":18,"x_max":817,"o":"m 394 243 q 397 199 394 215 q 406 174 399 183 q 426 163 413 165 q 461 160 439 160 q 534 165 506 160 q 580 187 563 171 q 606 231 597 203 q 622 307 615 260 l 800 319 l 817 299 q 803 213 810 258 q 790 121 796 172 q 778 13 783 69 l 757 -10 q 615 -6 690 -8 q 472 -1 551 -3 q 311 0 392 0 q 205 -2 257 0 q 111 -7 153 -4 q 18 -14 63 -11 l 31 114 q 102 148 83 122 q 121 236 121 174 l 122 701 q 115 761 122 746 q 85 776 108 776 q 72 776 78 776 q 61 775 67 775 q 49 774 56 774 l 32 793 l 44 903 q 158 900 101 901 q 263 899 207 899 q 368 899 319 899 q 497 900 433 899 q 618 903 561 901 q 722 908 675 906 q 797 915 768 911 l 815 893 q 801 804 807 850 q 791 715 796 764 q 783 617 786 665 l 592 604 q 593 624 592 614 q 594 640 593 632 q 594 656 594 649 q 589 694 594 679 q 569 717 583 708 q 527 728 554 725 q 458 732 500 732 q 420 725 429 732 q 411 694 411 718 l 403 538 q 455 537 422 538 q 517 536 488 536 q 558 537 532 536 q 608 540 583 538 q 669 544 638 542 l 686 525 l 667 365 q 607 367 636 365 q 553 369 582 368 q 500 369 524 369 q 442 367 469 369 q 396 361 415 364 q 394 296 394 325 q 394 243 394 267 m 674 1118 l 649 967 l 454 965 q 390 965 422 965 q 331 964 358 964 l 268 964 l 246 985 l 272 1136 q 349 1135 311 1135 l 486 1135 q 542 1135 513 1135 q 599 1139 572 1136 q 658 1143 629 1140 l 674 1118 z "},"Ŋ":{"ha":1022,"x_min":24,"x_max":1022,"o":"m 233 899 q 290 899 260 899 q 344 901 319 900 q 401 904 374 903 q 501 734 450 817 q 592 586 551 651 q 685 442 639 510 l 704 442 l 699 722 q 688 769 699 757 q 653 782 678 782 q 642 781 649 782 q 628 781 635 781 l 610 781 l 603 794 l 610 904 q 708 901 663 903 q 785 899 747 900 q 838 899 822 899 q 893 899 861 899 q 954 901 925 900 q 1022 904 988 903 l 1015 783 q 952 758 969 776 q 933 696 935 739 l 918 118 q 897 -7 915 49 q 838 -106 878 -62 q 738 -183 799 -150 q 593 -239 678 -215 l 540 -175 l 543 -154 q 620 -79 594 -114 q 658 0 646 -44 q 547 182 599 99 q 454 328 494 265 q 368 460 408 400 l 349 460 l 351 185 q 364 130 353 144 q 406 115 375 115 q 420 115 411 115 q 436 117 429 115 q 454 119 444 118 l 465 108 l 451 -6 q 368 -3 411 -4 q 287 -1 332 -1 q 201 0 242 0 q 152 -1 181 0 q 97 -6 124 -3 q 35 -11 67 -8 l 49 108 q 108 134 89 114 q 128 199 126 154 l 144 693 q 141 730 144 715 q 126 754 138 744 q 93 769 114 764 q 39 779 72 775 l 24 799 l 32 906 q 104 901 68 903 q 170 899 135 900 q 233 899 206 899 z "},"Ę":{"ha":838,"x_min":18,"x_max":817,"o":"m 817 -237 q 769 -278 794 -260 q 723 -310 749 -294 q 672 -336 697 -326 q 541 -303 589 -336 q 493 -212 493 -271 q 519 -122 493 -169 q 611 -4 544 -75 q 469 -1 547 -1 q 311 0 390 0 q 205 -2 257 0 q 111 -7 153 -4 q 18 -14 63 -11 l 31 114 q 102 148 83 122 q 121 236 121 174 l 122 701 q 115 761 122 746 q 85 776 108 776 q 72 776 78 776 q 61 775 67 775 q 49 774 56 774 l 32 793 l 44 903 q 158 900 101 901 q 263 899 207 899 q 368 899 319 899 q 497 900 433 899 q 618 903 561 901 q 722 908 675 906 q 797 915 768 911 l 815 893 q 801 804 807 850 q 791 715 796 764 q 783 617 786 665 l 592 604 q 593 624 592 614 q 594 640 593 632 q 594 656 594 649 q 589 694 594 679 q 569 717 583 708 q 527 728 554 725 q 458 732 500 732 q 420 725 429 732 q 411 694 411 718 l 403 538 q 455 537 422 538 q 517 536 488 536 q 558 537 532 536 q 608 540 583 538 q 669 544 638 542 l 686 525 l 667 365 q 607 367 636 365 q 553 369 582 368 q 500 369 524 369 q 442 367 469 369 q 396 361 415 364 q 394 296 394 325 q 394 243 394 267 q 397 199 394 215 q 406 174 399 183 q 426 163 413 165 q 461 160 439 160 q 534 165 506 160 q 580 187 563 171 q 606 231 597 203 q 622 307 615 260 l 800 319 l 817 299 q 803 213 810 258 q 790 121 796 172 q 778 13 783 69 l 757 -10 q 746 -8 751 -8 q 732 -8 740 -8 q 714 -7 724 -8 q 674 -62 690 -39 q 649 -104 658 -86 q 637 -135 640 -122 q 633 -161 633 -149 q 649 -203 633 -187 q 690 -218 664 -218 q 722 -213 706 -218 q 751 -201 738 -208 q 782 -183 767 -194 l 817 -237 z "},"Ð":{"ha":978,"x_min":10,"x_max":958,"o":"m 475 -17 q 397 -8 436 -12 q 325 -3 364 -6 q 254 0 286 0 q 190 -1 225 0 q 125 -6 156 -3 q 56 -11 89 -8 l 67 118 q 138 151 119 126 q 157 233 157 175 l 157 369 l 24 369 l 10 381 l 28 504 l 157 504 l 157 699 q 149 758 157 743 q 122 774 142 774 q 106 773 114 774 q 92 772 99 772 q 78 771 85 771 l 64 790 l 76 903 q 161 900 121 901 q 231 899 196 899 q 288 899 265 899 q 344 899 306 899 q 421 903 382 900 q 518 907 467 904 q 958 489 958 907 q 924 278 958 372 q 828 119 890 185 q 676 19 765 54 q 475 -17 586 -17 m 429 506 l 533 510 l 544 496 l 535 371 l 425 371 l 425 225 q 435 171 425 185 q 475 157 446 157 q 551 172 519 157 q 602 221 582 188 q 631 307 622 254 q 640 436 640 360 q 632 578 640 521 q 603 669 624 635 q 551 717 583 703 q 468 731 518 731 q 447 722 453 731 q 439 693 440 714 l 429 506 z "},"F":{"ha":769,"x_min":18,"x_max":776,"o":"m 394 243 q 406 176 394 193 q 453 160 417 160 q 483 161 468 160 q 508 165 497 163 q 533 171 522 168 l 556 146 l 538 -4 q 449 -3 492 -4 q 374 -1 413 -1 q 311 0 335 0 q 205 -2 257 0 q 111 -7 153 -4 q 18 -14 63 -11 l 31 114 q 102 148 83 122 q 121 236 121 174 l 122 701 q 115 761 122 746 q 85 776 108 776 q 72 776 78 776 q 61 775 67 775 q 49 774 56 774 l 32 793 l 44 903 q 158 900 101 901 q 263 899 207 899 q 368 899 319 899 q 486 900 428 899 q 596 903 544 901 q 690 908 647 906 q 758 915 732 911 l 776 893 q 765 803 771 849 q 758 714 761 763 q 751 617 754 665 l 560 606 q 561 624 560 614 q 562 640 561 631 q 563 656 563 649 q 541 716 563 700 q 458 732 519 732 q 420 725 429 732 q 411 694 411 718 l 401 514 l 517 513 q 556 513 532 513 q 604 517 581 514 q 663 521 632 518 l 679 501 l 660 342 q 603 343 631 342 q 551 345 579 344 q 500 346 524 346 q 442 343 469 346 q 396 338 414 340 l 394 243 z "},"G":{"ha":888,"x_min":21,"x_max":860,"o":"m 860 418 q 822 390 836 404 q 799 349 807 375 q 790 282 792 324 q 788 172 788 240 q 790 102 788 129 q 797 53 792 75 l 781 31 q 697 7 746 17 q 592 -8 656 -1 q 444 -15 529 -15 q 266 15 344 -15 q 133 103 188 46 q 49 243 78 160 q 21 432 21 326 q 149 792 21 669 q 522 915 276 915 q 622 910 571 915 q 713 897 672 904 q 804 879 760 889 l 819 851 q 803 772 810 817 q 790 683 796 735 q 781 571 783 632 l 567 558 q 568 579 567 567 q 569 604 568 590 q 569 635 569 618 q 553 705 569 686 q 488 724 536 724 q 416 712 444 724 q 370 672 388 700 q 345 597 353 643 q 338 482 338 550 q 372 252 338 324 q 482 181 406 181 q 514 183 501 181 q 536 189 526 186 q 554 197 546 193 l 554 285 q 545 330 554 318 q 510 342 536 342 q 493 341 501 342 q 478 340 485 340 l 464 340 l 451 360 l 468 492 l 681 492 q 740 492 710 492 q 793 494 769 493 q 831 497 817 496 q 846 499 846 499 l 860 418 z "},"Ğ":{"ha":888,"x_min":21,"x_max":860,"o":"m 860 418 q 822 390 836 404 q 799 349 807 375 q 790 282 792 324 q 788 172 788 240 q 790 102 788 129 q 797 53 792 75 l 781 31 q 697 7 746 17 q 592 -8 656 -1 q 444 -15 529 -15 q 266 15 344 -15 q 133 103 188 46 q 49 243 78 160 q 21 432 21 326 q 149 792 21 669 q 522 915 276 915 q 622 910 571 915 q 713 897 672 904 q 804 879 760 889 l 819 851 q 803 772 810 817 q 790 683 796 735 q 781 571 783 632 l 567 558 q 568 579 567 567 q 569 604 568 590 q 569 635 569 618 q 553 705 569 686 q 488 724 536 724 q 416 712 444 724 q 370 672 388 700 q 345 597 353 643 q 338 482 338 550 q 372 252 338 324 q 482 181 406 181 q 514 183 501 181 q 536 189 526 186 q 554 197 546 193 l 554 285 q 545 330 554 318 q 510 342 536 342 q 493 341 501 342 q 478 340 485 340 l 464 340 l 451 360 l 468 492 l 681 492 q 740 492 710 492 q 793 494 769 493 q 831 497 817 496 q 846 499 846 499 l 860 418 m 475 1167 q 567 1191 526 1167 q 629 1264 608 1215 l 667 1254 l 722 1168 q 691 1099 711 1132 q 641 1038 671 1065 q 569 995 611 1011 q 475 979 528 979 q 381 995 422 979 q 309 1038 339 1011 q 259 1099 279 1065 q 228 1168 239 1132 l 283 1254 l 321 1264 q 383 1191 342 1215 q 475 1167 424 1167 z "},"Ģ":{"ha":888,"x_min":21,"x_max":860,"o":"m 860 418 q 822 390 836 404 q 799 349 807 375 q 790 282 792 324 q 788 172 788 240 q 790 102 788 129 q 797 53 792 75 l 781 31 q 697 7 746 17 q 592 -8 656 -1 q 444 -15 529 -15 q 266 15 344 -15 q 133 103 188 46 q 49 243 78 160 q 21 432 21 326 q 149 792 21 669 q 522 915 276 915 q 622 910 571 915 q 713 897 672 904 q 804 879 760 889 l 819 851 q 803 772 810 817 q 790 683 796 735 q 781 571 783 632 l 567 558 q 568 579 567 567 q 569 604 568 590 q 569 635 569 618 q 553 705 569 686 q 488 724 536 724 q 416 712 444 724 q 370 672 388 700 q 345 597 353 643 q 338 482 338 550 q 372 252 338 324 q 482 181 406 181 q 514 183 501 181 q 536 189 526 186 q 554 197 546 193 l 554 285 q 545 330 554 318 q 510 342 536 342 q 493 341 501 342 q 478 340 485 340 l 464 340 l 451 360 l 468 492 l 681 492 q 740 492 710 492 q 793 494 769 493 q 831 497 817 496 q 846 499 846 499 l 860 418 m 329 -108 q 404 -63 367 -79 q 471 -47 442 -47 q 556 -85 524 -47 q 589 -187 589 -124 q 527 -339 589 -261 q 357 -479 465 -417 l 276 -415 l 276 -381 q 341 -311 317 -351 q 365 -233 365 -271 q 354 -176 365 -206 q 325 -128 343 -147 l 329 -108 z "},"Ġ":{"ha":888,"x_min":21,"x_max":860,"o":"m 860 418 q 822 390 836 404 q 799 349 807 375 q 790 282 792 324 q 788 172 788 240 q 790 102 788 129 q 797 53 792 75 l 781 31 q 697 7 746 17 q 592 -8 656 -1 q 444 -15 529 -15 q 266 15 344 -15 q 133 103 188 46 q 49 243 78 160 q 21 432 21 326 q 149 792 21 669 q 522 915 276 915 q 622 910 571 915 q 713 897 672 904 q 804 879 760 889 l 819 851 q 803 772 810 817 q 790 683 796 735 q 781 571 783 632 l 567 558 q 568 579 567 567 q 569 604 568 590 q 569 635 569 618 q 553 705 569 686 q 488 724 536 724 q 416 712 444 724 q 370 672 388 700 q 345 597 353 643 q 338 482 338 550 q 372 252 338 324 q 482 181 406 181 q 514 183 501 181 q 536 189 526 186 q 554 197 546 193 l 554 285 q 545 330 554 318 q 510 342 536 342 q 493 341 501 342 q 478 340 485 340 l 464 340 l 451 360 l 468 492 l 681 492 q 740 492 710 492 q 793 494 769 493 q 831 497 817 496 q 846 499 846 499 l 860 418 m 474 949 q 376 983 410 949 q 343 1081 343 1017 q 381 1186 343 1147 q 485 1225 418 1225 q 581 1190 547 1225 q 614 1093 614 1156 q 576 988 614 1026 q 474 949 539 949 z "},"H":{"ha":1026,"x_min":21,"x_max":1015,"o":"m 922 708 q 917 609 919 667 q 912 487 914 551 q 909 353 910 422 q 908 217 908 283 q 920 144 908 164 q 963 124 932 124 q 977 124 969 124 q 990 125 985 124 q 1001 128 996 126 l 1013 113 l 1000 -3 q 925 -1 964 -3 q 849 -1 892 -1 q 763 0 806 0 q 700 -1 739 0 q 624 -1 661 -1 l 532 -1 l 543 119 q 614 144 593 121 q 635 225 635 168 l 635 367 l 607 367 q 580 367 594 367 q 553 368 565 368 q 515 366 542 368 q 463 361 489 364 q 396 356 431 358 l 396 217 q 404 140 396 158 q 440 121 413 121 q 468 122 461 121 q 478 125 474 124 l 489 111 l 476 -6 q 385 -3 428 -4 q 310 -1 349 -1 q 251 0 272 0 q 180 -1 219 0 q 104 -4 140 -3 q 21 -7 63 -6 l 32 111 q 77 124 60 117 q 105 144 94 132 q 119 176 115 157 q 122 225 122 196 l 122 706 q 113 763 122 749 q 74 776 103 776 q 61 776 67 776 q 50 775 56 775 l 38 775 l 25 794 l 36 899 l 215 899 q 293 899 246 899 q 385 901 340 900 q 492 906 436 903 l 482 781 q 424 759 438 772 q 408 708 410 746 l 400 540 l 518 536 q 590 537 565 536 q 635 540 615 538 l 635 706 q 625 762 635 747 q 586 776 615 776 q 573 776 579 776 q 561 775 567 775 l 549 775 l 536 794 l 547 899 l 771 899 q 834 899 793 899 q 915 901 875 900 q 1015 906 963 903 l 1006 783 q 965 774 981 779 q 940 761 949 769 q 927 740 931 753 q 922 708 924 728 z "},"Ħ":{"ha":1026,"x_min":-7,"x_max":1039,"o":"m 922 708 q 922 705 922 706 q 921 703 921 704 q 961 703 943 703 q 992 704 979 704 q 1018 706 1007 704 l 1039 685 l 1032 608 l 917 607 q 910 419 913 522 q 908 217 908 317 q 920 144 908 164 q 963 124 932 124 q 977 124 969 124 q 990 125 985 124 q 1001 128 996 126 l 1013 113 l 1000 -3 q 925 -1 964 -3 q 849 -1 892 -1 q 763 0 806 0 q 700 -1 739 0 q 624 -1 661 -1 l 532 -1 l 543 119 q 614 144 593 121 q 635 225 635 168 l 635 367 l 607 367 q 580 367 594 367 q 553 368 565 368 q 515 366 542 368 q 463 361 489 364 q 396 356 431 358 l 396 217 q 404 140 396 158 q 440 121 413 121 q 468 122 461 121 q 478 125 474 124 l 489 111 l 476 -6 q 385 -3 428 -4 q 310 -1 349 -1 q 251 0 272 0 q 180 -1 219 0 q 104 -4 140 -3 q 21 -7 63 -6 l 32 111 q 77 124 60 117 q 105 144 94 132 q 119 176 115 157 q 122 225 122 196 l 122 606 l 8 606 l -7 619 l 4 700 q 38 699 19 699 l 122 699 l 122 706 q 113 763 122 749 q 74 776 103 776 q 61 776 67 776 q 50 775 56 775 l 38 775 l 25 794 l 36 899 l 215 899 q 293 899 246 899 q 385 901 340 900 q 492 906 436 903 l 482 781 q 424 759 438 772 q 408 708 410 746 l 407 699 l 558 699 l 635 699 l 635 706 q 625 762 635 747 q 586 776 615 776 q 573 776 579 776 q 561 775 567 775 l 549 775 l 536 794 l 547 899 l 771 899 q 834 899 793 899 q 915 901 875 900 q 1015 906 963 903 l 1006 783 q 965 774 981 779 q 940 761 949 769 q 927 740 931 753 q 922 708 924 728 m 403 607 l 400 540 l 518 536 q 590 537 565 536 q 635 540 615 538 l 635 607 l 522 607 l 403 607 z "},"I":{"ha":514,"x_min":21,"x_max":499,"o":"m 410 708 q 399 481 403 610 q 396 217 396 353 q 404 140 396 158 q 440 121 413 121 q 460 121 451 121 q 474 122 468 121 q 485 125 479 124 l 496 111 l 483 -6 q 389 -3 433 -4 q 312 -1 350 -1 q 251 0 274 0 q 178 -1 218 0 q 103 -4 139 -3 q 21 -7 61 -6 l 32 111 q 78 125 60 117 q 106 146 96 133 q 119 177 115 158 q 122 225 122 196 l 122 706 q 113 763 122 749 q 74 776 103 776 q 61 776 67 776 q 50 775 56 775 l 38 775 l 25 794 l 36 899 l 260 899 q 322 899 282 899 q 401 901 361 900 q 499 906 447 903 l 489 781 q 450 772 465 776 q 426 760 435 768 q 415 740 418 753 q 410 708 411 728 z "},"Ĳ":{"ha":985,"x_min":21,"x_max":989,"o":"m 410 708 q 399 481 403 610 q 396 217 396 353 q 404 140 396 158 q 440 121 413 121 q 460 121 451 121 q 474 122 468 121 q 485 125 479 124 l 496 111 l 483 -6 q 389 -3 433 -4 q 312 -1 350 -1 q 251 0 274 0 q 178 -1 218 0 q 103 -4 139 -3 q 21 -7 61 -6 l 32 111 q 78 125 60 117 q 106 146 96 133 q 119 177 115 158 q 122 225 122 196 l 122 706 q 113 763 122 749 q 74 776 103 776 q 61 776 67 776 q 50 775 56 775 l 38 775 l 25 794 l 36 899 l 260 899 q 322 899 282 899 q 401 901 361 900 q 499 906 447 903 l 489 781 q 450 772 465 776 q 426 760 435 768 q 415 740 418 753 q 410 708 411 728 m 625 706 q 617 763 625 749 q 581 776 608 776 q 563 776 572 776 q 547 775 554 775 q 531 774 539 774 l 518 793 l 529 899 l 725 900 q 823 901 775 900 q 907 906 871 903 q 989 910 950 908 l 978 781 q 945 772 957 776 q 926 759 933 767 q 917 740 919 751 q 913 708 914 728 q 906 589 910 660 q 901 437 903 518 q 897 272 899 356 q 896 118 896 189 q 817 -99 896 -17 q 563 -228 738 -182 l 507 -161 l 510 -140 q 567 -79 544 -108 q 603 -14 590 -50 q 620 69 615 22 q 625 183 625 115 l 625 706 z "},"J":{"ha":471,"x_min":-7,"x_max":475,"o":"m 111 706 q 103 763 111 749 q 67 776 94 776 q 49 776 58 776 q 33 775 40 775 q 17 774 25 774 l 4 793 l 15 899 l 211 900 q 309 901 261 900 q 393 906 357 903 q 475 910 436 908 l 464 781 q 431 772 443 776 q 413 759 419 767 q 403 740 406 751 q 399 708 400 728 q 392 589 396 660 q 387 437 389 518 q 383 272 385 356 q 382 118 382 189 q 303 -99 382 -17 q 49 -228 224 -182 l -7 -161 l -4 -140 q 53 -79 31 -108 q 89 -14 76 -50 q 106 69 101 22 q 111 183 111 115 l 111 706 z "},"Í":{"ha":514,"x_min":21,"x_max":522,"o":"m 410 708 q 399 481 403 610 q 396 217 396 353 q 404 140 396 158 q 440 121 413 121 q 460 121 451 121 q 474 122 468 121 q 485 125 479 124 l 496 111 l 483 -6 q 389 -3 433 -4 q 312 -1 350 -1 q 251 0 274 0 q 178 -1 218 0 q 103 -4 139 -3 q 21 -7 61 -6 l 32 111 q 78 125 60 117 q 106 146 96 133 q 119 177 115 158 q 122 225 122 196 l 122 706 q 113 763 122 749 q 74 776 103 776 q 61 776 67 776 q 50 775 56 775 l 38 775 l 25 794 l 36 899 l 260 899 q 322 899 282 899 q 401 901 361 900 q 499 906 447 903 l 489 781 q 450 772 465 776 q 426 760 435 768 q 415 740 418 753 q 410 708 411 728 m 513 1036 q 400 1014 458 1026 q 288 989 350 1003 q 160 960 225 975 l 133 978 l 104 1076 q 231 1125 168 1100 q 342 1169 293 1150 q 450 1215 399 1193 l 472 1208 l 522 1058 l 513 1036 z "},"Î":{"ha":514,"x_min":0,"x_max":528,"o":"m 410 708 q 399 481 403 610 q 396 217 396 353 q 404 140 396 158 q 440 121 413 121 q 460 121 451 121 q 474 122 468 121 q 485 125 479 124 l 496 111 l 483 -6 q 389 -3 433 -4 q 312 -1 350 -1 q 251 0 274 0 q 178 -1 218 0 q 103 -4 139 -3 q 21 -7 61 -6 l 32 111 q 78 125 60 117 q 106 146 96 133 q 119 177 115 158 q 122 225 122 196 l 122 706 q 113 763 122 749 q 74 776 103 776 q 61 776 67 776 q 50 775 56 775 l 38 775 l 25 794 l 36 899 l 260 899 q 322 899 282 899 q 401 901 361 900 q 499 906 447 903 l 489 781 q 450 772 465 776 q 426 760 435 768 q 415 740 418 753 q 410 708 411 728 m 0 1069 q 88 1135 44 1101 q 167 1197 131 1169 q 246 1261 208 1231 l 283 1261 q 306 1247 283 1264 q 363 1201 328 1229 q 441 1138 397 1172 q 528 1069 485 1103 l 479 983 l 447 974 q 348 1013 400 993 q 264 1044 296 1033 q 181 1013 232 1033 q 82 974 131 993 l 50 983 l 0 1069 z "},"Ï":{"ha":514,"x_min":14,"x_max":510,"o":"m 410 708 q 399 481 403 610 q 396 217 396 353 q 404 140 396 158 q 440 121 413 121 q 460 121 451 121 q 474 122 468 121 q 485 125 479 124 l 496 111 l 483 -6 q 389 -3 433 -4 q 312 -1 350 -1 q 251 0 274 0 q 178 -1 218 0 q 103 -4 139 -3 q 21 -7 61 -6 l 32 111 q 78 125 60 117 q 106 146 96 133 q 119 177 115 158 q 122 225 122 196 l 122 706 q 113 763 122 749 q 74 776 103 776 q 61 776 67 776 q 50 775 56 775 l 38 775 l 25 794 l 36 899 l 260 899 q 322 899 282 899 q 401 901 361 900 q 499 906 447 903 l 489 781 q 450 772 465 776 q 426 760 435 768 q 415 740 418 753 q 410 708 411 728 m 392 951 q 281 1063 281 951 q 313 1151 281 1118 q 400 1183 344 1183 q 481 1154 453 1183 q 510 1072 510 1125 q 478 984 510 1017 q 392 951 446 951 m 124 951 q 14 1063 14 951 q 46 1151 14 1118 q 133 1183 78 1183 q 215 1154 186 1183 q 243 1072 243 1125 q 211 984 243 1017 q 124 951 179 951 z "},"İ":{"ha":514,"x_min":21,"x_max":499,"o":"m 410 708 q 399 481 403 610 q 396 217 396 353 q 404 140 396 158 q 440 121 413 121 q 460 121 451 121 q 474 122 468 121 q 485 125 479 124 l 496 111 l 483 -6 q 389 -3 433 -4 q 312 -1 350 -1 q 251 0 274 0 q 178 -1 218 0 q 103 -4 139 -3 q 21 -7 61 -6 l 32 111 q 78 125 60 117 q 106 146 96 133 q 119 177 115 158 q 122 225 122 196 l 122 706 q 113 763 122 749 q 74 776 103 776 q 61 776 67 776 q 50 775 56 775 l 38 775 l 25 794 l 36 899 l 260 899 q 322 899 282 899 q 401 901 361 900 q 499 906 447 903 l 489 781 q 450 772 465 776 q 426 760 435 768 q 415 740 418 753 q 410 708 411 728 m 260 949 q 163 983 196 949 q 129 1081 129 1017 q 167 1186 129 1147 q 271 1225 204 1225 q 367 1190 333 1225 q 400 1093 400 1156 q 363 988 400 1026 q 260 949 325 949 z "},"Ì":{"ha":514,"x_min":7,"x_max":499,"o":"m 410 708 q 399 481 403 610 q 396 217 396 353 q 404 140 396 158 q 440 121 413 121 q 460 121 451 121 q 474 122 468 121 q 485 125 479 124 l 496 111 l 483 -6 q 389 -3 433 -4 q 312 -1 350 -1 q 251 0 274 0 q 178 -1 218 0 q 103 -4 139 -3 q 21 -7 61 -6 l 32 111 q 78 125 60 117 q 106 146 96 133 q 119 177 115 158 q 122 225 122 196 l 122 706 q 113 763 122 749 q 74 776 103 776 q 61 776 67 776 q 50 775 56 775 l 38 775 l 25 794 l 36 899 l 260 899 q 322 899 282 899 q 401 901 361 900 q 499 906 447 903 l 489 781 q 450 772 465 776 q 426 760 435 768 q 415 740 418 753 q 410 708 411 728 m 7 1058 l 57 1208 l 79 1215 q 188 1169 131 1193 q 298 1125 236 1150 q 425 1076 360 1100 l 396 978 l 369 960 q 241 989 304 975 q 128 1014 178 1003 q 17 1036 69 1026 l 7 1058 z "},"Ī":{"ha":514,"x_min":21,"x_max":499,"o":"m 410 708 q 399 481 403 610 q 396 217 396 353 q 404 140 396 158 q 440 121 413 121 q 460 121 451 121 q 474 122 468 121 q 485 125 479 124 l 496 111 l 483 -6 q 389 -3 433 -4 q 312 -1 350 -1 q 251 0 274 0 q 178 -1 218 0 q 103 -4 139 -3 q 21 -7 61 -6 l 32 111 q 78 125 60 117 q 106 146 96 133 q 119 177 115 158 q 122 225 122 196 l 122 706 q 113 763 122 749 q 74 776 103 776 q 61 776 67 776 q 50 775 56 775 l 38 775 l 25 794 l 36 899 l 260 899 q 322 899 282 899 q 401 901 361 900 q 499 906 447 903 l 489 781 q 450 772 465 776 q 426 760 435 768 q 415 740 418 753 q 410 708 411 728 m 482 1118 l 457 967 l 263 965 q 199 965 231 965 q 139 964 167 964 l 76 964 l 54 985 l 81 1136 q 157 1135 119 1135 l 294 1135 q 351 1135 321 1135 q 407 1139 381 1136 q 467 1143 438 1140 l 482 1118 z "},"Į":{"ha":514,"x_min":21,"x_max":504,"o":"m 504 -237 q 457 -278 482 -260 q 410 -310 436 -294 q 360 -336 385 -326 q 228 -303 276 -336 q 181 -212 181 -271 q 187 -168 181 -190 q 208 -121 193 -146 q 245 -67 222 -96 q 303 0 268 -37 l 251 0 q 178 -1 218 0 q 103 -4 139 -3 q 21 -7 61 -6 l 32 111 q 78 125 60 117 q 106 146 96 133 q 119 177 115 158 q 122 225 122 196 l 122 706 q 113 763 122 749 q 74 776 103 776 q 61 776 67 776 q 50 775 56 775 l 38 775 l 25 794 l 36 899 l 260 899 q 322 899 282 899 q 401 901 361 900 q 499 906 447 903 l 489 781 q 450 772 465 776 q 426 760 435 768 q 415 740 418 753 q 410 708 411 728 q 399 481 403 610 q 396 217 396 353 q 404 140 396 158 q 440 121 413 121 q 460 121 451 121 q 474 122 468 121 q 485 125 479 124 l 496 111 l 483 -6 q 460 -4 472 -4 q 435 -4 449 -4 q 406 -3 421 -4 q 338 -103 356 -69 q 321 -161 321 -136 q 336 -203 321 -187 q 378 -218 351 -218 q 409 -213 393 -218 q 439 -201 425 -208 q 469 -183 454 -194 l 504 -237 z "},"K":{"ha":963,"x_min":21,"x_max":964,"o":"m 122 706 q 113 763 122 749 q 74 776 103 776 q 61 776 67 776 q 50 775 56 775 l 38 775 l 25 794 l 38 900 q 139 899 93 899 l 260 899 q 322 899 282 899 q 401 901 361 900 q 499 906 447 903 l 489 781 q 448 768 464 774 q 422 754 432 763 q 409 733 413 746 q 406 703 406 721 l 396 217 q 403 140 394 158 q 440 121 413 121 q 460 121 451 121 q 474 122 468 121 q 485 125 479 124 l 496 111 l 483 -6 q 389 -3 433 -4 q 312 -1 350 -1 q 251 0 274 0 q 178 -1 218 0 q 103 -4 139 -3 q 21 -7 61 -6 l 32 111 q 77 124 60 117 q 105 144 94 132 q 119 176 115 157 q 122 225 122 196 l 122 706 m 415 482 l 571 667 q 600 731 600 696 q 588 763 600 754 q 543 775 575 772 l 535 789 l 547 903 q 622 900 586 901 q 688 899 654 899 q 746 899 722 899 q 798 899 765 899 q 864 901 831 900 q 946 906 901 903 l 958 885 l 946 781 q 846 703 894 751 q 742 576 797 654 l 683 494 l 814 242 q 876 152 846 181 q 950 117 906 124 l 964 96 l 949 -7 q 856 -15 899 -11 q 784 -20 819 -18 q 736 -22 749 -22 q 649 2 682 -22 q 583 90 615 26 l 408 440 l 415 482 z "},"Ķ":{"ha":963,"x_min":21,"x_max":964,"o":"m 122 706 q 113 763 122 749 q 74 776 103 776 q 61 776 67 776 q 50 775 56 775 l 38 775 l 25 794 l 38 900 q 139 899 93 899 l 260 899 q 322 899 282 899 q 401 901 361 900 q 499 906 447 903 l 489 781 q 448 768 464 774 q 422 754 432 763 q 409 733 413 746 q 406 703 406 721 l 396 217 q 403 140 394 158 q 440 121 413 121 q 460 121 451 121 q 474 122 468 121 q 485 125 479 124 l 496 111 l 483 -6 q 389 -3 433 -4 q 312 -1 350 -1 q 251 0 274 0 q 178 -1 218 0 q 103 -4 139 -3 q 21 -7 61 -6 l 32 111 q 77 124 60 117 q 105 144 94 132 q 119 176 115 157 q 122 225 122 196 l 122 706 m 415 482 l 571 667 q 600 731 600 696 q 588 763 600 754 q 543 775 575 772 l 535 789 l 547 903 q 622 900 586 901 q 688 899 654 899 q 746 899 722 899 q 798 899 765 899 q 864 901 831 900 q 946 906 901 903 l 958 885 l 946 781 q 846 703 894 751 q 742 576 797 654 l 683 494 l 814 242 q 876 152 846 181 q 950 117 906 124 l 964 96 l 949 -7 q 856 -15 899 -11 q 784 -20 819 -18 q 736 -22 749 -22 q 649 2 682 -22 q 583 90 615 26 l 408 440 l 415 482 m 382 -108 q 457 -63 419 -79 q 524 -47 494 -47 q 609 -85 576 -47 q 642 -187 642 -124 q 580 -339 642 -261 q 410 -479 518 -417 l 329 -415 l 329 -381 q 394 -311 369 -351 q 418 -233 418 -271 q 407 -176 418 -206 q 378 -128 396 -147 l 382 -108 z "},"L":{"ha":774,"x_min":18,"x_max":774,"o":"m 311 0 q 205 -2 257 0 q 111 -7 153 -4 q 18 -14 63 -11 l 31 114 q 102 148 83 122 q 121 236 121 174 l 121 706 q 111 763 121 749 q 72 776 101 776 q 60 776 65 776 q 49 775 54 775 l 36 775 l 24 794 l 35 899 l 258 899 q 331 899 283 899 q 426 901 378 900 q 546 906 482 903 l 531 769 q 472 760 494 765 q 435 748 449 756 q 415 728 421 740 q 408 697 410 715 q 403 599 406 650 q 398 490 400 549 q 395 365 396 432 q 394 219 394 299 q 406 174 394 188 q 446 160 418 160 q 507 169 483 160 q 546 203 531 178 q 568 272 561 228 q 579 386 575 317 l 757 404 l 774 383 q 761 271 767 331 q 750 152 756 219 q 740 13 744 85 l 719 -10 q 590 -6 658 -8 q 459 -1 532 -3 q 311 0 386 0 z "},"Ĺ":{"ha":774,"x_min":18,"x_max":774,"o":"m 311 0 q 205 -2 257 0 q 111 -7 153 -4 q 18 -14 63 -11 l 31 114 q 102 148 83 122 q 121 236 121 174 l 121 706 q 111 763 121 749 q 72 776 101 776 q 60 776 65 776 q 49 775 54 775 l 36 775 l 24 794 l 35 899 l 258 899 q 331 899 283 899 q 426 901 378 900 q 546 906 482 903 l 531 769 q 472 760 494 765 q 435 748 449 756 q 415 728 421 740 q 408 697 410 715 q 403 599 406 650 q 398 490 400 549 q 395 365 396 432 q 394 219 394 299 q 406 174 394 188 q 446 160 418 160 q 507 169 483 160 q 546 203 531 178 q 568 272 561 228 q 579 386 575 317 l 757 404 l 774 383 q 761 271 767 331 q 750 152 756 219 q 740 13 744 85 l 719 -10 q 590 -6 658 -8 q 459 -1 532 -3 q 311 0 386 0 m 517 1036 q 404 1014 463 1026 q 292 989 354 1003 q 164 960 229 975 l 138 978 l 108 1076 q 235 1125 172 1100 q 346 1169 297 1150 q 454 1215 403 1193 l 476 1208 l 526 1058 l 517 1036 z "},"Ľ":{"ha":792,"x_min":18,"x_max":797,"o":"m 311 0 q 205 -2 257 0 q 111 -7 153 -4 q 18 -14 63 -11 l 31 114 q 102 148 83 122 q 121 236 121 174 l 121 706 q 111 763 121 749 q 72 776 101 776 q 60 776 65 776 q 49 775 54 775 l 36 775 l 24 794 l 35 899 l 258 899 q 331 899 283 899 q 426 901 378 900 q 546 906 482 903 l 531 769 q 472 760 494 765 q 435 748 449 756 q 415 728 421 740 q 408 697 410 715 q 403 599 406 650 q 398 490 400 549 q 395 365 396 432 q 394 219 394 299 q 406 174 394 188 q 446 160 418 160 q 507 169 483 160 q 546 203 531 178 q 568 272 561 228 q 579 386 575 317 l 757 404 l 774 383 q 761 271 767 331 q 750 152 756 219 q 740 13 744 85 l 719 -10 q 590 -6 658 -8 q 459 -1 532 -3 q 311 0 386 0 m 797 882 q 782 786 790 836 q 764 688 775 743 q 739 575 753 633 l 638 540 l 611 549 q 610 670 613 611 q 606 776 608 729 q 599 879 601 831 l 785 899 l 797 882 z "},"Ļ":{"ha":774,"x_min":18,"x_max":774,"o":"m 311 0 q 205 -2 257 0 q 111 -7 153 -4 q 18 -14 63 -11 l 31 114 q 102 148 83 122 q 121 236 121 174 l 121 706 q 111 763 121 749 q 72 776 101 776 q 60 776 65 776 q 49 775 54 775 l 36 775 l 24 794 l 35 899 l 258 899 q 331 899 283 899 q 426 901 378 900 q 546 906 482 903 l 531 769 q 472 760 494 765 q 435 748 449 756 q 415 728 421 740 q 408 697 410 715 q 403 599 406 650 q 398 490 400 549 q 395 365 396 432 q 394 219 394 299 q 406 174 394 188 q 446 160 418 160 q 507 169 483 160 q 546 203 531 178 q 568 272 561 228 q 579 386 575 317 l 757 404 l 774 383 q 761 271 767 331 q 750 152 756 219 q 740 13 744 85 l 719 -10 q 590 -6 658 -8 q 459 -1 532 -3 q 311 0 386 0 m 264 -108 q 339 -63 301 -79 q 406 -47 376 -47 q 491 -85 458 -47 q 524 -187 524 -124 q 462 -339 524 -261 q 292 -479 400 -417 l 211 -415 l 211 -381 q 276 -311 251 -351 q 300 -233 300 -271 q 289 -176 300 -206 q 260 -128 278 -147 l 264 -108 z "},"Ŀ":{"ha":801,"x_min":18,"x_max":794,"o":"m 311 0 q 205 -2 257 0 q 111 -7 153 -4 q 18 -14 63 -11 l 31 114 q 102 148 83 122 q 121 236 121 174 l 121 706 q 111 763 121 749 q 72 776 101 776 q 60 776 65 776 q 49 775 54 775 l 36 775 l 24 794 l 35 899 l 258 899 q 331 899 283 899 q 426 901 378 900 q 546 906 482 903 l 531 769 q 472 760 494 765 q 435 748 449 756 q 415 728 421 740 q 408 697 410 715 q 403 599 406 650 q 398 490 400 549 q 395 365 396 432 q 394 219 394 299 q 406 174 394 188 q 446 160 418 160 q 507 169 483 160 q 546 203 531 178 q 568 272 561 228 q 579 386 575 317 l 757 404 l 774 383 q 761 271 767 331 q 750 152 756 219 q 740 13 744 85 l 719 -10 q 590 -6 658 -8 q 459 -1 532 -3 q 311 0 386 0 m 654 525 q 557 559 590 525 q 524 657 524 593 q 561 763 524 724 q 665 801 599 801 q 761 767 728 801 q 794 669 794 732 q 757 564 794 603 q 654 525 719 525 z "},"·":{"ha":331,"x_min":29,"x_max":300,"o":"m 160 214 q 63 248 96 214 q 29 346 29 282 q 67 451 29 413 q 171 490 104 490 q 267 456 233 490 q 300 358 300 421 q 263 253 300 292 q 160 214 225 214 z "},"Ł":{"ha":808,"x_min":21,"x_max":808,"o":"m 346 0 q 240 -2 292 0 q 146 -7 188 -4 q 53 -14 97 -11 l 65 114 q 137 148 118 122 q 156 236 156 174 l 156 331 l 78 292 l 64 294 l 21 425 l 156 492 l 156 706 q 146 763 156 749 q 107 776 136 776 q 94 776 100 776 q 83 775 89 775 l 71 775 l 58 794 l 69 899 l 293 899 q 365 899 318 899 q 461 901 413 900 q 581 906 517 903 l 565 769 q 506 760 529 765 q 469 748 483 756 q 450 728 456 740 q 443 697 444 715 q 440 650 440 674 q 438 603 439 626 l 551 660 l 564 654 l 607 525 l 431 438 q 429 335 429 389 q 429 219 429 282 q 441 174 429 188 q 481 160 453 160 q 542 169 518 160 q 581 203 565 178 q 603 272 596 228 q 614 386 610 317 l 792 404 l 808 383 q 796 271 801 331 q 785 152 790 219 q 775 13 779 85 l 754 -10 q 625 -6 693 -8 q 494 -1 567 -3 q 346 0 421 0 z "},"M":{"ha":1158,"x_min":10,"x_max":1161,"o":"m 468 -17 q 411 189 438 94 q 364 354 385 283 q 318 504 339 436 l 300 504 q 296 349 297 418 q 295 289 296 318 q 294 235 294 260 q 293 192 293 210 q 293 169 293 175 q 339 122 293 122 q 348 122 342 122 q 361 124 354 122 q 375 125 368 124 l 388 114 l 371 -6 q 289 -3 328 -4 q 222 -1 256 -1 q 172 0 189 0 q 124 -1 151 0 q 70 -5 96 -3 q 27 -9 44 -7 q 10 -11 10 -11 l 21 114 q 78 138 60 118 q 100 206 97 158 q 124 446 113 339 q 133 537 128 492 q 141 619 138 582 q 147 681 144 656 q 149 713 149 706 q 147 742 149 732 q 136 759 144 753 q 110 768 128 765 q 63 775 93 771 l 51 786 l 65 906 q 146 901 107 903 q 213 899 178 900 q 269 899 247 899 q 335 899 297 899 q 406 901 372 900 q 483 904 444 903 q 517 747 499 825 q 550 606 535 669 q 586 463 568 531 l 604 463 q 644 606 624 532 q 682 745 663 668 q 721 899 701 822 q 849 897 786 899 q 978 900 913 896 q 1026 902 1003 901 q 1068 904 1049 903 q 1108 907 1089 906 l 1118 901 l 1107 779 q 1033 763 1050 776 q 1015 708 1015 750 q 1018 618 1015 676 q 1025 493 1021 560 q 1035 360 1029 426 q 1046 244 1040 293 q 1065 150 1051 176 q 1110 124 1078 124 q 1125 124 1118 124 q 1139 125 1132 124 q 1151 126 1144 125 l 1161 115 l 1149 -4 q 1097 -3 1124 -4 q 1047 -1 1074 -1 q 996 0 1019 -1 q 946 -1 986 0 q 860 -3 906 -1 q 775 -8 814 -6 q 729 -11 736 -10 l 746 115 q 801 135 785 119 q 817 183 817 150 q 817 215 817 194 q 816 260 817 235 q 815 312 815 285 q 814 367 814 339 q 811 504 813 431 l 793 504 q 744 353 769 435 q 696 191 722 282 q 642 -3 669 100 l 468 -17 z "},"N":{"ha":1026,"x_min":18,"x_max":1026,"o":"m 697 463 l 692 717 q 680 765 689 753 q 646 776 671 776 l 603 776 l 596 792 l 603 904 q 689 901 646 903 q 765 899 725 900 q 833 899 804 899 q 897 899 863 899 q 959 901 931 900 q 1007 902 988 901 q 1026 903 1026 903 l 1019 778 q 958 752 975 771 q 939 690 940 733 l 921 0 l 660 -17 q 549 163 601 81 q 458 307 497 244 q 375 438 413 378 l 354 438 l 358 190 q 371 135 360 150 q 413 119 382 119 q 427 120 419 119 q 442 122 435 121 q 460 125 450 124 l 472 113 l 457 -6 q 372 -3 413 -4 q 301 -1 338 -1 q 243 0 265 0 q 169 -1 207 0 q 100 -6 132 -3 q 29 -11 64 -8 l 43 114 q 102 140 83 119 q 122 201 121 160 l 139 686 q 135 725 139 710 q 119 750 131 740 q 88 765 108 760 q 35 774 68 769 l 18 793 l 26 906 q 92 901 57 903 q 157 899 121 900 q 232 899 193 899 q 291 899 260 899 q 349 901 322 900 q 410 904 379 903 q 504 740 457 819 q 590 599 551 661 q 676 463 636 526 l 697 463 z "},"Ń":{"ha":1026,"x_min":18,"x_max":1026,"o":"m 697 463 l 692 717 q 680 765 689 753 q 646 776 671 776 l 603 776 l 596 792 l 603 904 q 689 901 646 903 q 765 899 725 900 q 833 899 804 899 q 897 899 863 899 q 959 901 931 900 q 1007 902 988 901 q 1026 903 1026 903 l 1019 778 q 958 752 975 771 q 939 690 940 733 l 921 0 l 660 -17 q 549 163 601 81 q 458 307 497 244 q 375 438 413 378 l 354 438 l 358 190 q 371 135 360 150 q 413 119 382 119 q 427 120 419 119 q 442 122 435 121 q 460 125 450 124 l 472 113 l 457 -6 q 372 -3 413 -4 q 301 -1 338 -1 q 243 0 265 0 q 169 -1 207 0 q 100 -6 132 -3 q 29 -11 64 -8 l 43 114 q 102 140 83 119 q 122 201 121 160 l 139 686 q 135 725 139 710 q 119 750 131 740 q 88 765 108 760 q 35 774 68 769 l 18 793 l 26 906 q 92 901 57 903 q 157 899 121 900 q 232 899 193 899 q 291 899 260 899 q 349 901 322 900 q 410 904 379 903 q 504 740 457 819 q 590 599 551 661 q 676 463 636 526 l 697 463 m 786 1036 q 674 1014 732 1026 q 561 989 624 1003 q 433 960 499 975 l 407 978 l 378 1076 q 504 1125 442 1100 q 615 1169 567 1150 q 724 1215 672 1193 l 746 1208 l 796 1058 l 786 1036 z "},"Ň":{"ha":1026,"x_min":18,"x_max":1026,"o":"m 697 463 l 692 717 q 680 765 689 753 q 646 776 671 776 l 603 776 l 596 792 l 603 904 q 689 901 646 903 q 765 899 725 900 q 833 899 804 899 q 897 899 863 899 q 959 901 931 900 q 1007 902 988 901 q 1026 903 1026 903 l 1019 778 q 958 752 975 771 q 939 690 940 733 l 921 0 l 660 -17 q 549 163 601 81 q 458 307 497 244 q 375 438 413 378 l 354 438 l 358 190 q 371 135 360 150 q 413 119 382 119 q 427 120 419 119 q 442 122 435 121 q 460 125 450 124 l 472 113 l 457 -6 q 372 -3 413 -4 q 301 -1 338 -1 q 243 0 265 0 q 169 -1 207 0 q 100 -6 132 -3 q 29 -11 64 -8 l 43 114 q 102 140 83 119 q 122 201 121 160 l 139 686 q 135 725 139 710 q 119 750 131 740 q 88 765 108 760 q 35 774 68 769 l 18 793 l 26 906 q 92 901 57 903 q 157 899 121 900 q 232 899 193 899 q 291 899 260 899 q 349 901 322 900 q 410 904 379 903 q 504 740 457 819 q 590 599 551 661 q 676 463 636 526 l 697 463 m 797 1147 q 710 1081 753 1115 q 631 1019 667 1047 q 551 956 589 986 l 514 956 q 435 1019 476 986 q 356 1081 399 1047 q 269 1147 313 1115 l 318 1233 l 350 1243 q 449 1203 397 1224 q 533 1172 501 1183 q 616 1203 565 1183 q 715 1243 667 1224 l 747 1233 l 797 1147 z "},"Ņ":{"ha":1026,"x_min":18,"x_max":1026,"o":"m 697 463 l 692 717 q 680 765 689 753 q 646 776 671 776 l 603 776 l 596 792 l 603 904 q 689 901 646 903 q 765 899 725 900 q 833 899 804 899 q 897 899 863 899 q 959 901 931 900 q 1007 902 988 901 q 1026 903 1026 903 l 1019 778 q 958 752 975 771 q 939 690 940 733 l 921 0 l 660 -17 q 549 163 601 81 q 458 307 497 244 q 375 438 413 378 l 354 438 l 358 190 q 371 135 360 150 q 413 119 382 119 q 427 120 419 119 q 442 122 435 121 q 460 125 450 124 l 472 113 l 457 -6 q 372 -3 413 -4 q 301 -1 338 -1 q 243 0 265 0 q 169 -1 207 0 q 100 -6 132 -3 q 29 -11 64 -8 l 43 114 q 102 140 83 119 q 122 201 121 160 l 139 686 q 135 725 139 710 q 119 750 131 740 q 88 765 108 760 q 35 774 68 769 l 18 793 l 26 906 q 92 901 57 903 q 157 899 121 900 q 232 899 193 899 q 291 899 260 899 q 349 901 322 900 q 410 904 379 903 q 504 740 457 819 q 590 599 551 661 q 676 463 636 526 l 697 463 m 397 -108 q 472 -63 435 -79 q 539 -47 510 -47 q 624 -85 592 -47 q 657 -187 657 -124 q 595 -339 657 -261 q 425 -479 533 -417 l 344 -415 l 344 -381 q 409 -311 385 -351 q 433 -233 433 -271 q 422 -176 433 -206 q 393 -128 411 -147 l 397 -108 z "},"Ñ":{"ha":1026,"x_min":18,"x_max":1026,"o":"m 697 463 l 692 717 q 680 765 689 753 q 646 776 671 776 l 603 776 l 596 792 l 603 904 q 689 901 646 903 q 765 899 725 900 q 833 899 804 899 q 897 899 863 899 q 959 901 931 900 q 1007 902 988 901 q 1026 903 1026 903 l 1019 778 q 958 752 975 771 q 939 690 940 733 l 921 0 l 660 -17 q 549 163 601 81 q 458 307 497 244 q 375 438 413 378 l 354 438 l 358 190 q 371 135 360 150 q 413 119 382 119 q 427 120 419 119 q 442 122 435 121 q 460 125 450 124 l 472 113 l 457 -6 q 372 -3 413 -4 q 301 -1 338 -1 q 243 0 265 0 q 169 -1 207 0 q 100 -6 132 -3 q 29 -11 64 -8 l 43 114 q 102 140 83 119 q 122 201 121 160 l 139 686 q 135 725 139 710 q 119 750 131 740 q 88 765 108 760 q 35 774 68 769 l 18 793 l 26 906 q 92 901 57 903 q 157 899 121 900 q 232 899 193 899 q 291 899 260 899 q 349 901 322 900 q 410 904 379 903 q 504 740 457 819 q 590 599 551 661 q 676 463 636 526 l 697 463 m 343 938 l 261 1013 l 261 1035 l 374 1194 l 397 1200 q 445 1192 415 1200 q 507 1176 475 1185 q 567 1160 539 1168 q 611 1153 596 1153 q 639 1165 624 1153 q 669 1193 654 1178 q 704 1233 686 1210 l 726 1233 l 808 1158 l 808 1136 l 696 976 l 672 971 q 624 978 654 971 q 563 994 594 986 q 502 1010 531 1003 q 458 1018 474 1018 q 429 1006 444 1018 q 399 978 414 993 q 365 938 382 960 l 343 938 z "},"O":{"ha":910,"x_min":21,"x_max":889,"o":"m 461 158 q 546 210 521 158 q 571 385 571 261 q 565 544 571 479 q 544 650 558 610 q 505 708 529 690 q 446 725 481 725 q 363 674 388 725 q 339 501 339 624 q 345 341 339 407 q 366 235 351 275 q 404 176 381 194 q 461 158 428 158 m 435 -17 q 126 99 232 -17 q 21 433 21 214 q 137 792 21 668 q 475 915 253 915 q 889 472 889 915 q 772 110 889 236 q 435 -17 654 -17 z "},"Œ":{"ha":1271,"x_min":21,"x_max":1250,"o":"m 828 243 q 830 199 828 215 q 839 174 832 183 q 859 163 846 165 q 894 160 872 160 q 969 165 940 160 q 1015 187 997 171 q 1041 232 1032 203 q 1056 307 1050 261 l 1233 319 l 1250 299 q 1236 213 1243 258 q 1223 121 1229 172 q 1211 13 1217 69 l 1190 -10 q 1046 -3 1122 -7 q 901 2 981 0 q 740 4 821 4 q 581 -5 661 4 q 442 -14 500 -14 q 130 100 239 -14 q 21 433 21 214 q 133 785 21 668 q 468 903 246 903 q 613 894 536 903 q 786 886 690 886 q 918 890 851 886 q 1044 897 985 893 q 1153 906 1104 901 q 1231 915 1201 911 l 1249 893 q 1235 804 1240 850 q 1224 715 1229 764 q 1217 617 1219 665 l 1025 604 q 1026 624 1025 614 q 1027 640 1026 632 q 1028 656 1028 649 q 1022 694 1028 679 q 1002 717 1017 708 q 960 728 988 725 q 892 732 933 732 q 853 725 863 732 q 844 694 844 718 l 836 538 l 950 536 q 991 537 965 536 q 1042 540 1017 538 q 1103 544 1071 542 l 1119 525 l 1100 365 q 1040 367 1069 365 q 986 369 1015 368 q 933 369 957 369 l 829 361 l 828 243 m 461 150 q 535 179 510 150 q 561 272 561 208 l 563 610 q 531 706 563 679 q 447 733 499 733 q 361 681 386 733 q 336 503 336 629 q 342 338 336 406 q 363 229 349 271 q 402 169 378 188 q 461 150 426 150 z "},"Ó":{"ha":910,"x_min":21,"x_max":889,"o":"m 461 158 q 546 210 521 158 q 571 385 571 261 q 565 544 571 479 q 544 650 558 610 q 505 708 529 690 q 446 725 481 725 q 363 674 388 725 q 339 501 339 624 q 345 341 339 407 q 366 235 351 275 q 404 176 381 194 q 461 158 428 158 m 435 -17 q 126 99 232 -17 q 21 433 21 214 q 137 792 21 668 q 475 915 253 915 q 889 472 889 915 q 772 110 889 236 q 435 -17 654 -17 m 703 1036 q 590 1014 649 1026 q 478 989 540 1003 q 350 960 415 975 l 324 978 l 294 1076 q 421 1125 358 1100 q 532 1169 483 1150 q 640 1215 589 1193 l 663 1208 l 713 1058 l 703 1036 z "},"Ô":{"ha":910,"x_min":21,"x_max":889,"o":"m 461 158 q 546 210 521 158 q 571 385 571 261 q 565 544 571 479 q 544 650 558 610 q 505 708 529 690 q 446 725 481 725 q 363 674 388 725 q 339 501 339 624 q 345 341 339 407 q 366 235 351 275 q 404 176 381 194 q 461 158 428 158 m 435 -17 q 126 99 232 -17 q 21 433 21 214 q 137 792 21 668 q 475 915 253 915 q 889 472 889 915 q 772 110 889 236 q 435 -17 654 -17 m 189 1069 q 276 1135 233 1101 q 356 1197 319 1169 q 435 1261 397 1231 l 472 1261 q 494 1247 472 1264 q 551 1201 517 1229 q 630 1138 586 1172 q 717 1069 674 1103 l 668 983 l 636 974 q 537 1013 589 993 q 453 1044 485 1033 q 370 1013 421 1033 q 271 974 319 993 l 239 983 l 189 1069 z "},"Ö":{"ha":910,"x_min":21,"x_max":889,"o":"m 461 158 q 546 210 521 158 q 571 385 571 261 q 565 544 571 479 q 544 650 558 610 q 505 708 529 690 q 446 725 481 725 q 363 674 388 725 q 339 501 339 624 q 345 341 339 407 q 366 235 351 275 q 404 176 381 194 q 461 158 428 158 m 435 -17 q 126 99 232 -17 q 21 433 21 214 q 137 792 21 668 q 475 915 253 915 q 889 472 889 915 q 772 110 889 236 q 435 -17 654 -17 m 581 951 q 469 1063 469 951 q 501 1151 469 1118 q 589 1183 533 1183 q 670 1154 642 1183 q 699 1072 699 1125 q 667 984 699 1017 q 581 951 635 951 m 313 951 q 203 1063 203 951 q 235 1151 203 1118 q 322 1183 267 1183 q 403 1154 375 1183 q 432 1072 432 1125 q 400 984 432 1017 q 313 951 368 951 z "},"Ò":{"ha":910,"x_min":21,"x_max":889,"o":"m 461 158 q 546 210 521 158 q 571 385 571 261 q 565 544 571 479 q 544 650 558 610 q 505 708 529 690 q 446 725 481 725 q 363 674 388 725 q 339 501 339 624 q 345 341 339 407 q 366 235 351 275 q 404 176 381 194 q 461 158 428 158 m 435 -17 q 126 99 232 -17 q 21 433 21 214 q 137 792 21 668 q 475 915 253 915 q 889 472 889 915 q 772 110 889 236 q 435 -17 654 -17 m 196 1058 l 246 1208 l 268 1215 q 376 1169 319 1193 q 487 1125 425 1150 q 614 1076 549 1100 l 585 978 l 558 960 q 430 989 493 975 q 317 1014 367 1003 q 206 1036 258 1026 l 196 1058 z "},"Ő":{"ha":910,"x_min":21,"x_max":889,"o":"m 461 158 q 546 210 521 158 q 571 385 571 261 q 565 544 571 479 q 544 650 558 610 q 505 708 529 690 q 446 725 481 725 q 363 674 388 725 q 339 501 339 624 q 345 341 339 407 q 366 235 351 275 q 404 176 381 194 q 461 158 428 158 m 435 -17 q 126 99 232 -17 q 21 433 21 214 q 137 792 21 668 q 475 915 253 915 q 889 472 889 915 q 772 110 889 236 q 435 -17 654 -17 m 518 1089 q 442 1042 482 1067 q 365 993 407 1021 q 278 936 322 965 l 251 943 l 199 1010 q 276 1086 239 1049 q 342 1154 313 1124 q 406 1221 376 1190 l 426 1222 l 518 1110 l 518 1089 m 793 1089 q 717 1042 757 1067 q 640 993 682 1021 q 553 936 597 965 l 526 943 l 474 1010 q 551 1086 514 1049 q 617 1154 588 1124 q 681 1221 651 1190 l 701 1222 l 793 1110 l 793 1089 z "},"Ō":{"ha":910,"x_min":21,"x_max":889,"o":"m 461 158 q 546 210 521 158 q 571 385 571 261 q 565 544 571 479 q 544 650 558 610 q 505 708 529 690 q 446 725 481 725 q 363 674 388 725 q 339 501 339 624 q 345 341 339 407 q 366 235 351 275 q 404 176 381 194 q 461 158 428 158 m 435 -17 q 126 99 232 -17 q 21 433 21 214 q 137 792 21 668 q 475 915 253 915 q 889 472 889 915 q 772 110 889 236 q 435 -17 654 -17 m 671 1118 l 646 967 l 451 965 q 388 965 419 965 q 328 964 356 964 l 265 964 l 243 985 l 269 1136 q 346 1135 308 1135 l 483 1135 q 540 1135 510 1135 q 596 1139 569 1136 q 656 1143 626 1140 l 671 1118 z "},"Ø":{"ha":910,"x_min":21,"x_max":901,"o":"m 132 93 q 21 433 21 208 q 137 792 21 668 q 475 915 253 915 q 658 886 579 915 l 764 1044 l 899 969 l 901 951 l 794 793 q 889 472 889 682 q 772 110 889 236 q 435 -17 654 -17 q 271 7 344 -17 l 160 -162 l 28 -86 l 22 -72 l 132 93 m 461 158 q 546 210 521 158 q 571 385 571 261 q 565 544 571 479 q 544 650 558 610 q 505 708 529 690 q 446 725 481 725 q 363 674 388 725 q 339 501 339 624 q 345 341 339 407 q 366 235 351 275 q 404 176 381 194 q 461 158 428 158 z "},"Õ":{"ha":910,"x_min":21,"x_max":889,"o":"m 461 158 q 546 210 521 158 q 571 385 571 261 q 565 544 571 479 q 544 650 558 610 q 505 708 529 690 q 446 725 481 725 q 363 674 388 725 q 339 501 339 624 q 345 341 339 407 q 366 235 351 275 q 404 176 381 194 q 461 158 428 158 m 435 -17 q 126 99 232 -17 q 21 433 21 214 q 137 792 21 668 q 475 915 253 915 q 889 472 889 915 q 772 110 889 236 q 435 -17 654 -17 m 260 938 l 178 1013 l 178 1035 l 290 1194 l 314 1200 q 362 1192 332 1200 q 424 1176 392 1185 q 484 1160 456 1168 q 528 1153 513 1153 q 556 1165 540 1153 q 586 1193 571 1178 q 621 1233 603 1210 l 643 1233 l 725 1158 l 725 1136 l 613 976 l 589 971 q 541 978 571 971 q 479 994 511 986 q 419 1010 447 1003 q 375 1018 390 1018 q 346 1006 361 1018 q 315 978 331 993 q 282 938 299 960 l 260 938 z "},"P":{"ha":842,"x_min":19,"x_max":863,"o":"m 38 899 l 236 899 q 302 899 260 899 q 385 903 344 900 q 486 907 432 904 q 629 893 569 907 q 731 856 689 879 q 799 803 774 833 q 839 741 825 774 q 858 676 853 708 q 863 618 863 644 q 835 492 863 551 q 759 387 807 432 q 648 315 711 342 q 515 289 585 289 l 396 289 l 396 222 q 409 144 396 165 q 465 122 422 122 q 481 122 472 122 q 496 124 489 122 q 511 125 503 124 l 518 114 l 504 -6 q 413 -3 456 -4 q 338 -1 375 -1 q 278 0 300 0 q 211 -2 254 0 q 125 -7 168 -4 q 19 -12 75 -10 l 32 115 q 103 149 83 124 q 122 233 122 175 l 122 701 q 115 760 122 744 q 86 776 107 776 q 69 776 78 776 q 54 775 61 775 q 38 774 46 774 l 24 790 l 38 899 m 494 446 q 556 499 536 461 q 576 604 576 538 q 542 703 576 672 q 433 733 508 733 q 415 728 418 733 q 410 703 411 722 q 404 588 407 650 q 399 460 401 526 l 494 446 z "},"Q":{"ha":915,"x_min":21,"x_max":1151,"o":"m 435 -17 q 126 99 232 -17 q 21 433 21 214 q 137 792 21 668 q 475 915 253 915 q 889 472 889 915 q 831 215 889 325 q 674 44 774 106 l 674 25 q 833 -67 749 -33 q 985 -100 917 -100 q 1071 -93 1032 -100 q 1111 -86 1092 -90 l 1128 -101 l 1151 -196 q 1049 -267 1096 -236 q 1007 -292 1028 -279 q 967 -314 986 -304 q 932 -330 947 -324 q 907 -336 917 -336 q 825 -324 864 -336 q 735 -278 786 -312 q 613 -181 685 -243 q 435 -17 542 -118 m 461 158 q 546 210 521 158 q 571 385 571 261 q 565 544 571 479 q 544 650 558 610 q 505 708 529 690 q 446 725 481 725 q 363 674 388 725 q 339 501 339 624 q 345 341 339 407 q 366 235 351 275 q 404 176 381 194 q 461 158 428 158 z "},"R":{"ha":942,"x_min":19,"x_max":946,"o":"m 396 317 l 396 222 q 399 171 396 190 q 412 141 401 151 q 442 127 422 131 q 494 122 461 124 l 501 111 l 488 -6 q 396 -3 440 -4 q 320 -1 358 -1 q 260 0 282 0 q 179 -2 221 0 q 101 -7 138 -4 q 19 -12 60 -10 l 32 115 q 103 149 83 124 q 122 233 122 175 l 122 715 q 115 763 122 750 q 86 776 107 776 q 69 776 78 776 q 54 775 61 775 q 38 774 46 774 l 24 790 l 39 900 q 117 899 81 899 l 236 899 q 304 899 261 899 q 389 903 347 900 q 493 907 438 904 q 876 646 876 907 q 710 383 876 482 l 796 239 q 931 117 868 117 l 946 94 l 933 -7 l 718 -22 q 624 6 660 -22 q 560 104 588 35 l 474 317 l 396 317 m 506 478 q 572 528 553 497 q 590 618 590 558 q 553 706 590 678 q 433 733 515 733 q 415 728 418 733 q 410 703 411 722 q 403 597 406 650 q 400 492 401 544 l 506 478 z "},"Ŕ":{"ha":942,"x_min":19,"x_max":946,"o":"m 396 317 l 396 222 q 399 171 396 190 q 412 141 401 151 q 442 127 422 131 q 494 122 461 124 l 501 111 l 488 -6 q 396 -3 440 -4 q 320 -1 358 -1 q 260 0 282 0 q 179 -2 221 0 q 101 -7 138 -4 q 19 -12 60 -10 l 32 115 q 103 149 83 124 q 122 233 122 175 l 122 715 q 115 763 122 750 q 86 776 107 776 q 69 776 78 776 q 54 775 61 775 q 38 774 46 774 l 24 790 l 39 900 q 117 899 81 899 l 236 899 q 304 899 261 899 q 389 903 347 900 q 493 907 438 904 q 876 646 876 907 q 710 383 876 482 l 796 239 q 931 117 868 117 l 946 94 l 933 -7 l 718 -22 q 624 6 660 -22 q 560 104 588 35 l 474 317 l 396 317 m 506 478 q 572 528 553 497 q 590 618 590 558 q 553 706 590 678 q 433 733 515 733 q 415 728 418 733 q 410 703 411 722 q 403 597 406 650 q 400 492 401 544 l 506 478 m 728 1036 q 615 1014 674 1026 q 503 989 565 1003 q 375 960 440 975 l 349 978 l 319 1076 q 446 1125 383 1100 q 557 1169 508 1150 q 665 1215 614 1193 l 688 1208 l 738 1058 l 728 1036 z "},"Ř":{"ha":942,"x_min":19,"x_max":946,"o":"m 396 317 l 396 222 q 399 171 396 190 q 412 141 401 151 q 442 127 422 131 q 494 122 461 124 l 501 111 l 488 -6 q 396 -3 440 -4 q 320 -1 358 -1 q 260 0 282 0 q 179 -2 221 0 q 101 -7 138 -4 q 19 -12 60 -10 l 32 115 q 103 149 83 124 q 122 233 122 175 l 122 715 q 115 763 122 750 q 86 776 107 776 q 69 776 78 776 q 54 775 61 775 q 38 774 46 774 l 24 790 l 39 900 q 117 899 81 899 l 236 899 q 304 899 261 899 q 389 903 347 900 q 493 907 438 904 q 876 646 876 907 q 710 383 876 482 l 796 239 q 931 117 868 117 l 946 94 l 933 -7 l 718 -22 q 624 6 660 -22 q 560 104 588 35 l 474 317 l 396 317 m 506 478 q 572 528 553 497 q 590 618 590 558 q 553 706 590 678 q 433 733 515 733 q 415 728 418 733 q 410 703 411 722 q 403 597 406 650 q 400 492 401 544 l 506 478 m 739 1147 q 651 1081 694 1115 q 572 1019 608 1047 q 493 956 531 986 l 456 956 q 376 1019 418 986 q 297 1081 340 1047 q 211 1147 254 1115 l 260 1233 l 292 1243 q 391 1203 339 1224 q 475 1172 443 1183 q 558 1203 507 1183 q 657 1243 608 1224 l 689 1233 l 739 1147 z "},"Ŗ":{"ha":942,"x_min":19,"x_max":946,"o":"m 396 317 l 396 222 q 399 171 396 190 q 412 141 401 151 q 442 127 422 131 q 494 122 461 124 l 501 111 l 488 -6 q 396 -3 440 -4 q 320 -1 358 -1 q 260 0 282 0 q 179 -2 221 0 q 101 -7 138 -4 q 19 -12 60 -10 l 32 115 q 103 149 83 124 q 122 233 122 175 l 122 715 q 115 763 122 750 q 86 776 107 776 q 69 776 78 776 q 54 775 61 775 q 38 774 46 774 l 24 790 l 39 900 q 117 899 81 899 l 236 899 q 304 899 261 899 q 389 903 347 900 q 493 907 438 904 q 876 646 876 907 q 710 383 876 482 l 796 239 q 931 117 868 117 l 946 94 l 933 -7 l 718 -22 q 624 6 660 -22 q 560 104 588 35 l 474 317 l 396 317 m 506 478 q 572 528 553 497 q 590 618 590 558 q 553 706 590 678 q 433 733 515 733 q 415 728 418 733 q 410 703 411 722 q 403 597 406 650 q 400 492 401 544 l 506 478 m 349 -108 q 424 -63 386 -79 q 490 -47 461 -47 q 576 -85 543 -47 q 608 -187 608 -124 q 547 -339 608 -261 q 376 -479 485 -417 l 296 -415 l 296 -381 q 360 -311 336 -351 q 385 -233 385 -271 q 374 -176 385 -206 q 344 -128 363 -147 l 349 -108 z "},"S":{"ha":765,"x_min":18,"x_max":743,"o":"m 308 -17 q 197 -8 246 -17 q 111 13 147 1 q 35 43 68 26 l 18 68 q 31 149 25 108 q 40 223 36 183 q 47 297 44 263 l 222 310 q 253 201 222 235 q 344 168 285 168 q 412 183 388 168 q 436 225 436 199 q 419 265 436 247 q 374 299 403 283 q 310 328 346 314 q 238 360 275 343 q 160 400 197 378 q 92 453 122 422 q 43 524 61 483 q 25 618 25 564 q 56 740 25 685 q 142 833 86 794 q 278 894 199 872 q 453 915 357 915 q 559 909 511 915 q 643 896 607 903 q 718 876 685 888 l 735 846 q 719 772 726 811 q 707 695 713 739 q 697 604 701 651 l 536 593 l 519 604 l 519 626 q 418 724 519 724 q 355 706 379 724 q 331 661 331 689 q 345 624 331 640 q 384 592 360 607 q 440 565 408 578 q 506 538 471 551 q 590 498 547 519 q 666 446 632 476 q 722 374 700 415 q 743 274 743 332 q 713 152 743 206 q 627 61 683 99 q 490 3 571 24 q 308 -17 410 -17 z "},"Ś":{"ha":765,"x_min":110,"x_max":835,"o":"m 400 -17 q 288 -8 338 -17 q 203 13 239 1 q 126 43 160 26 l 110 68 q 122 149 117 108 q 132 223 128 183 q 139 297 136 263 l 314 310 q 345 201 314 235 q 436 168 376 168 q 503 183 479 168 q 528 225 528 199 q 511 265 528 247 q 466 299 494 283 q 402 328 438 314 q 329 360 367 343 q 251 400 289 378 q 183 453 214 422 q 135 524 153 483 q 117 618 117 564 q 147 740 117 685 q 234 833 178 794 q 369 894 290 872 q 544 915 449 915 q 651 909 603 915 q 735 896 699 903 q 810 876 776 888 l 826 846 q 811 772 818 811 q 799 695 804 739 q 789 604 793 651 l 628 593 l 611 604 l 611 626 q 510 724 611 724 q 447 706 471 724 q 422 661 422 689 q 437 624 422 640 q 476 592 451 607 q 531 565 500 578 q 597 538 563 551 q 681 498 639 519 q 758 446 724 476 q 813 374 792 415 q 835 274 835 332 q 805 152 835 206 q 719 61 775 99 q 582 3 663 24 q 400 -17 501 -17 m 651 1036 q 539 1014 597 1026 q 426 989 489 1003 q 299 960 364 975 l 272 978 l 243 1076 q 369 1125 307 1100 q 481 1169 432 1150 q 589 1215 538 1193 l 611 1208 l 661 1058 l 651 1036 z "},"Š":{"ha":765,"x_min":110,"x_max":835,"o":"m 400 -17 q 288 -8 338 -17 q 203 13 239 1 q 126 43 160 26 l 110 68 q 122 149 117 108 q 132 223 128 183 q 139 297 136 263 l 314 310 q 345 201 314 235 q 436 168 376 168 q 503 183 479 168 q 528 225 528 199 q 511 265 528 247 q 466 299 494 283 q 402 328 438 314 q 329 360 367 343 q 251 400 289 378 q 183 453 214 422 q 135 524 153 483 q 117 618 117 564 q 147 740 117 685 q 234 833 178 794 q 369 894 290 872 q 544 915 449 915 q 651 909 603 915 q 735 896 699 903 q 810 876 776 888 l 826 846 q 811 772 818 811 q 799 695 804 739 q 789 604 793 651 l 628 593 l 611 604 l 611 626 q 510 724 611 724 q 447 706 471 724 q 422 661 422 689 q 437 624 422 640 q 476 592 451 607 q 531 565 500 578 q 597 538 563 551 q 681 498 639 519 q 758 446 724 476 q 813 374 792 415 q 835 274 835 332 q 805 152 835 206 q 719 61 775 99 q 582 3 663 24 q 400 -17 501 -17 m 663 1147 q 575 1081 618 1115 q 496 1019 532 1047 q 417 956 454 986 l 379 956 q 300 1019 342 986 q 221 1081 264 1047 q 135 1147 178 1115 l 183 1233 l 215 1243 q 315 1203 263 1224 q 399 1172 367 1183 q 481 1203 431 1183 q 581 1243 532 1224 l 613 1233 l 663 1147 z "},"Ş":{"ha":765,"x_min":110,"x_max":835,"o":"m 306 -10 q 231 5 264 -4 q 175 22 199 14 q 126 43 149 32 l 110 68 q 122 149 117 108 q 132 223 128 183 q 139 297 136 263 l 314 310 q 345 201 314 235 q 436 168 376 168 q 503 183 479 168 q 528 225 528 199 q 511 265 528 247 q 466 299 494 283 q 402 328 438 314 q 329 360 367 343 q 251 400 289 378 q 183 453 214 422 q 135 524 153 483 q 117 618 117 564 q 147 740 117 685 q 234 833 178 794 q 369 894 290 872 q 544 915 449 915 q 651 909 603 915 q 735 896 699 903 q 810 876 776 888 l 826 846 q 811 772 818 811 q 799 695 804 739 q 789 604 793 651 l 628 593 l 611 604 l 611 626 q 510 724 611 724 q 447 706 471 724 q 422 661 422 689 q 437 624 422 640 q 476 592 451 607 q 531 565 500 578 q 597 538 563 551 q 681 498 639 519 q 758 446 724 476 q 813 374 792 415 q 835 274 835 332 q 805 152 835 206 q 719 61 775 99 q 582 3 663 24 q 400 -17 501 -17 l 390 -17 l 383 -53 q 431 -79 406 -64 q 480 -113 457 -94 q 518 -153 503 -132 q 533 -199 533 -175 q 517 -253 533 -228 q 474 -297 501 -278 q 408 -326 446 -315 q 328 -336 371 -336 q 285 -331 307 -336 q 247 -317 264 -326 q 217 -294 229 -308 q 206 -264 206 -281 q 213 -243 206 -256 q 229 -217 219 -231 q 251 -191 239 -204 q 274 -167 263 -178 l 286 -167 q 306 -225 288 -206 q 354 -244 325 -244 q 399 -212 399 -244 q 388 -189 399 -201 q 358 -165 376 -176 q 319 -142 340 -153 q 278 -121 299 -131 l 306 -10 z "},"Ș":{"ha":765,"x_min":110,"x_max":835,"o":"m 400 -17 q 288 -8 338 -17 q 203 13 239 1 q 126 43 160 26 l 110 68 q 122 149 117 108 q 132 223 128 183 q 139 297 136 263 l 314 310 q 345 201 314 235 q 436 168 376 168 q 503 183 479 168 q 528 225 528 199 q 511 265 528 247 q 466 299 494 283 q 402 328 438 314 q 329 360 367 343 q 251 400 289 378 q 183 453 214 422 q 135 524 153 483 q 117 618 117 564 q 147 740 117 685 q 234 833 178 794 q 369 894 290 872 q 544 915 449 915 q 651 909 603 915 q 735 896 699 903 q 810 876 776 888 l 826 846 q 811 772 818 811 q 799 695 804 739 q 789 604 793 651 l 628 593 l 611 604 l 611 626 q 510 724 611 724 q 447 706 471 724 q 422 661 422 689 q 437 624 422 640 q 476 592 451 607 q 531 565 500 578 q 597 538 563 551 q 681 498 639 519 q 758 446 724 476 q 813 374 792 415 q 835 274 835 332 q 805 152 835 206 q 719 61 775 99 q 582 3 663 24 q 400 -17 501 -17 m 217 -108 q 292 -63 254 -79 q 358 -47 329 -47 q 444 -85 411 -47 q 476 -187 476 -124 q 415 -339 476 -261 q 244 -479 353 -417 l 164 -415 l 164 -381 q 228 -311 204 -351 q 253 -233 253 -271 q 242 -176 253 -206 q 213 -128 231 -147 l 217 -108 z "},"T":{"ha":824,"x_min":0,"x_max":824,"o":"m 274 731 q 227 723 244 731 q 199 694 210 715 q 183 637 189 674 q 172 542 176 600 l 0 531 q 6 653 3 590 q 9 770 8 706 q 11 894 10 835 l 29 914 l 194 899 l 631 899 l 799 914 l 817 894 q 818 770 817 832 q 821 657 819 708 q 824 542 822 597 l 651 531 q 641 634 646 594 q 626 695 636 674 q 600 724 617 717 q 556 731 583 731 q 551 494 553 626 q 549 222 549 361 q 565 148 549 169 q 621 126 581 126 q 646 126 633 126 q 669 128 658 126 q 692 131 682 129 l 699 122 l 686 -8 q 575 -4 629 -7 q 481 -1 529 -3 q 404 0 433 0 q 323 -2 371 0 q 231 -7 275 -4 q 125 -12 179 -10 l 136 115 q 206 126 179 119 q 247 145 232 132 q 268 180 263 158 q 274 233 274 201 l 274 731 z "},"Ŧ":{"ha":824,"x_min":0,"x_max":824,"o":"m 274 350 q 233 349 251 349 q 199 349 214 349 l 167 349 l 151 363 l 163 443 q 196 442 178 442 l 274 442 l 274 731 q 227 723 244 731 q 199 694 210 715 q 183 637 189 674 q 172 542 176 600 l 0 531 q 6 653 3 590 q 9 770 8 706 q 11 894 10 835 l 29 914 l 194 899 l 631 899 l 799 914 l 817 894 q 818 770 817 832 q 821 657 819 708 q 824 542 822 597 l 651 531 q 641 634 646 594 q 626 695 636 674 q 600 724 617 717 q 556 731 583 731 q 551 595 553 668 q 549 443 550 522 q 587 444 568 443 q 619 446 606 444 q 649 447 635 447 l 669 426 l 663 350 l 549 350 l 549 222 q 565 148 549 169 q 621 126 581 126 q 646 126 633 126 q 669 128 658 126 q 692 131 682 129 l 699 122 l 686 -8 q 575 -4 629 -7 q 481 -1 529 -3 q 404 0 433 0 q 323 -2 371 0 q 231 -7 275 -4 q 125 -12 179 -10 l 136 115 q 206 126 179 119 q 247 145 232 132 q 268 180 263 158 q 274 233 274 201 l 274 350 z "},"Ť":{"ha":824,"x_min":0,"x_max":824,"o":"m 274 731 q 227 723 244 731 q 199 694 210 715 q 183 637 189 674 q 172 542 176 600 l 0 531 q 6 653 3 590 q 9 770 8 706 q 11 894 10 835 l 29 914 l 194 899 l 631 899 l 799 914 l 817 894 q 818 770 817 832 q 821 657 819 708 q 824 542 822 597 l 651 531 q 641 634 646 594 q 626 695 636 674 q 600 724 617 717 q 556 731 583 731 q 551 494 553 626 q 549 222 549 361 q 565 148 549 169 q 621 126 581 126 q 646 126 633 126 q 669 128 658 126 q 692 131 682 129 l 699 122 l 686 -8 q 575 -4 629 -7 q 481 -1 529 -3 q 404 0 433 0 q 323 -2 371 0 q 231 -7 275 -4 q 125 -12 179 -10 l 136 115 q 206 126 179 119 q 247 145 232 132 q 268 180 263 158 q 274 233 274 201 l 274 731 m 681 1147 q 593 1081 636 1115 q 514 1019 550 1047 q 435 956 472 986 l 397 956 q 318 1019 360 986 q 239 1081 282 1047 q 153 1147 196 1115 l 201 1233 l 233 1243 q 333 1203 281 1224 q 417 1172 385 1183 q 499 1203 449 1183 q 599 1243 550 1224 l 631 1233 l 681 1147 z "},"Ţ":{"ha":824,"x_min":0,"x_max":824,"o":"m 363 0 q 285 -3 326 -1 q 208 -7 244 -4 q 125 -12 167 -10 l 136 115 q 206 126 179 119 q 247 145 232 132 q 268 180 263 158 q 274 233 274 201 l 274 731 q 227 723 244 731 q 199 694 210 715 q 183 637 189 674 q 172 542 176 600 l 0 531 q 6 653 3 590 q 9 770 8 706 q 11 894 10 835 l 29 914 l 194 899 l 631 899 l 799 914 l 817 894 q 818 770 817 832 q 821 657 819 708 q 824 542 822 597 l 651 531 q 641 634 646 594 q 626 695 636 674 q 600 724 617 717 q 556 731 583 731 q 551 494 553 626 q 549 222 549 361 q 565 148 549 169 q 621 126 581 126 q 646 126 633 126 q 669 128 658 126 q 692 131 682 129 l 699 122 l 686 -8 q 603 -6 644 -7 q 525 -3 567 -4 q 449 0 483 -1 l 438 -53 q 485 -79 460 -64 q 534 -113 511 -94 q 572 -153 557 -132 q 588 -199 588 -175 q 572 -253 588 -228 q 528 -297 556 -278 q 463 -326 500 -315 q 382 -336 425 -336 q 340 -331 361 -336 q 301 -317 318 -326 q 272 -294 283 -308 q 260 -264 260 -281 q 267 -243 260 -256 q 283 -217 274 -231 q 305 -191 293 -204 q 328 -167 317 -178 l 340 -167 q 360 -225 342 -206 q 408 -244 379 -244 q 453 -212 453 -244 q 442 -189 453 -201 q 413 -165 431 -176 q 374 -142 394 -153 q 332 -121 353 -131 l 363 0 z "},"Þ":{"ha":840,"x_min":21,"x_max":840,"o":"m 410 732 q 409 728 410 729 q 408 725 408 726 l 504 725 q 759 660 678 725 q 840 460 840 596 q 815 351 840 400 q 744 267 790 303 q 635 213 699 232 q 494 193 571 193 l 396 193 l 396 161 q 404 128 396 136 q 440 121 413 121 q 466 121 456 121 q 483 122 476 121 q 499 125 492 124 l 510 111 l 497 -6 q 397 -3 444 -4 q 316 -1 357 -1 q 251 0 275 0 q 180 -1 219 0 q 104 -4 140 -3 q 21 -7 63 -6 l 32 111 q 77 124 60 117 q 105 144 94 132 q 119 176 115 157 q 122 225 122 196 l 122 706 q 113 763 122 749 q 74 776 103 776 q 61 776 67 776 q 50 775 56 775 l 38 775 l 25 794 l 36 899 l 260 899 q 322 899 282 899 q 401 901 361 900 q 499 906 447 903 l 489 781 q 449 772 464 775 q 425 763 433 768 q 414 750 417 757 q 410 732 411 743 m 400 535 q 399 498 400 521 q 399 449 399 475 q 398 399 399 424 q 397 356 397 374 q 450 345 425 349 q 486 342 475 342 q 554 460 554 360 q 524 540 554 515 q 428 565 494 565 q 400 535 400 565 z "},"U":{"ha":871,"x_min":0,"x_max":872,"o":"m 357 306 q 384 199 357 239 q 464 160 411 160 q 540 188 517 160 q 564 282 564 217 q 564 325 564 299 q 563 383 564 351 q 563 451 563 415 q 563 524 563 488 l 563 701 q 555 760 563 744 q 526 776 547 776 q 515 776 521 776 q 506 775 510 775 q 494 774 500 774 l 490 779 l 506 903 q 569 900 539 901 q 624 899 596 899 q 672 899 653 899 q 740 899 704 899 q 804 900 775 899 q 872 903 839 901 l 861 778 q 826 765 839 771 q 806 752 813 758 q 797 738 799 746 q 794 717 794 729 l 794 325 q 701 69 794 156 q 424 -17 608 -17 q 163 53 244 -17 q 82 276 82 122 l 82 701 q 74 762 82 747 q 43 776 67 776 q 31 776 38 776 q 18 775 25 775 q 3 774 11 774 l 0 779 l 14 903 q 96 900 54 901 q 175 899 132 899 q 260 899 218 899 q 311 899 279 899 q 374 901 343 900 q 446 904 410 903 l 432 775 q 381 756 396 772 q 365 707 367 739 l 357 306 z "},"Ú":{"ha":871,"x_min":0,"x_max":872,"o":"m 357 306 q 384 199 357 239 q 464 160 411 160 q 540 188 517 160 q 564 282 564 217 q 564 325 564 299 q 563 383 564 351 q 563 451 563 415 q 563 524 563 488 l 563 701 q 555 760 563 744 q 526 776 547 776 q 515 776 521 776 q 506 775 510 775 q 494 774 500 774 l 490 779 l 506 903 q 569 900 539 901 q 624 899 596 899 q 672 899 653 899 q 740 899 704 899 q 804 900 775 899 q 872 903 839 901 l 861 778 q 826 765 839 771 q 806 752 813 758 q 797 738 799 746 q 794 717 794 729 l 794 325 q 701 69 794 156 q 424 -17 608 -17 q 163 53 244 -17 q 82 276 82 122 l 82 701 q 74 762 82 747 q 43 776 67 776 q 31 776 38 776 q 18 775 25 775 q 3 774 11 774 l 0 779 l 14 903 q 96 900 54 901 q 175 899 132 899 q 260 899 218 899 q 311 899 279 899 q 374 901 343 900 q 446 904 410 903 l 432 775 q 381 756 396 772 q 365 707 367 739 l 357 306 m 714 1036 q 601 1014 660 1026 q 489 989 551 1003 q 361 960 426 975 l 335 978 l 306 1076 q 432 1125 369 1100 q 543 1169 494 1150 q 651 1215 600 1193 l 674 1208 l 724 1058 l 714 1036 z "},"Û":{"ha":871,"x_min":0,"x_max":872,"o":"m 357 306 q 384 199 357 239 q 464 160 411 160 q 540 188 517 160 q 564 282 564 217 q 564 325 564 299 q 563 383 564 351 q 563 451 563 415 q 563 524 563 488 l 563 701 q 555 760 563 744 q 526 776 547 776 q 515 776 521 776 q 506 775 510 775 q 494 774 500 774 l 490 779 l 506 903 q 569 900 539 901 q 624 899 596 899 q 672 899 653 899 q 740 899 704 899 q 804 900 775 899 q 872 903 839 901 l 861 778 q 826 765 839 771 q 806 752 813 758 q 797 738 799 746 q 794 717 794 729 l 794 325 q 701 69 794 156 q 424 -17 608 -17 q 163 53 244 -17 q 82 276 82 122 l 82 701 q 74 762 82 747 q 43 776 67 776 q 31 776 38 776 q 18 775 25 775 q 3 774 11 774 l 0 779 l 14 903 q 96 900 54 901 q 175 899 132 899 q 260 899 218 899 q 311 899 279 899 q 374 901 343 900 q 446 904 410 903 l 432 775 q 381 756 396 772 q 365 707 367 739 l 357 306 m 200 1069 q 288 1135 244 1101 q 367 1197 331 1169 q 446 1261 408 1231 l 483 1261 q 506 1247 483 1264 q 563 1201 528 1229 q 641 1138 597 1172 q 728 1069 685 1103 l 679 983 l 647 974 q 548 1013 600 993 q 464 1044 496 1033 q 381 1013 432 1033 q 282 974 331 993 l 250 983 l 200 1069 z "},"Ü":{"ha":871,"x_min":0,"x_max":872,"o":"m 357 306 q 384 199 357 239 q 464 160 411 160 q 540 188 517 160 q 564 282 564 217 q 564 325 564 299 q 563 383 564 351 q 563 451 563 415 q 563 524 563 488 l 563 701 q 555 760 563 744 q 526 776 547 776 q 515 776 521 776 q 506 775 510 775 q 494 774 500 774 l 490 779 l 506 903 q 569 900 539 901 q 624 899 596 899 q 672 899 653 899 q 740 899 704 899 q 804 900 775 899 q 872 903 839 901 l 861 778 q 826 765 839 771 q 806 752 813 758 q 797 738 799 746 q 794 717 794 729 l 794 325 q 701 69 794 156 q 424 -17 608 -17 q 163 53 244 -17 q 82 276 82 122 l 82 701 q 74 762 82 747 q 43 776 67 776 q 31 776 38 776 q 18 775 25 775 q 3 774 11 774 l 0 779 l 14 903 q 96 900 54 901 q 175 899 132 899 q 260 899 218 899 q 311 899 279 899 q 374 901 343 900 q 446 904 410 903 l 432 775 q 381 756 396 772 q 365 707 367 739 l 357 306 m 592 951 q 481 1063 481 951 q 513 1151 481 1118 q 600 1183 544 1183 q 681 1154 653 1183 q 710 1072 710 1125 q 678 984 710 1017 q 592 951 646 951 m 324 951 q 214 1063 214 951 q 246 1151 214 1118 q 333 1183 278 1183 q 415 1154 386 1183 q 443 1072 443 1125 q 411 984 443 1017 q 324 951 379 951 z "},"Ù":{"ha":871,"x_min":0,"x_max":872,"o":"m 357 306 q 384 199 357 239 q 464 160 411 160 q 540 188 517 160 q 564 282 564 217 q 564 325 564 299 q 563 383 564 351 q 563 451 563 415 q 563 524 563 488 l 563 701 q 555 760 563 744 q 526 776 547 776 q 515 776 521 776 q 506 775 510 775 q 494 774 500 774 l 490 779 l 506 903 q 569 900 539 901 q 624 899 596 899 q 672 899 653 899 q 740 899 704 899 q 804 900 775 899 q 872 903 839 901 l 861 778 q 826 765 839 771 q 806 752 813 758 q 797 738 799 746 q 794 717 794 729 l 794 325 q 701 69 794 156 q 424 -17 608 -17 q 163 53 244 -17 q 82 276 82 122 l 82 701 q 74 762 82 747 q 43 776 67 776 q 31 776 38 776 q 18 775 25 775 q 3 774 11 774 l 0 779 l 14 903 q 96 900 54 901 q 175 899 132 899 q 260 899 218 899 q 311 899 279 899 q 374 901 343 900 q 446 904 410 903 l 432 775 q 381 756 396 772 q 365 707 367 739 l 357 306 m 207 1058 l 257 1208 l 279 1215 q 388 1169 331 1193 q 498 1125 436 1150 q 625 1076 560 1100 l 596 978 l 569 960 q 441 989 504 975 q 328 1014 378 1003 q 217 1036 269 1026 l 207 1058 z "},"Ű":{"ha":871,"x_min":0,"x_max":872,"o":"m 357 306 q 384 199 357 239 q 464 160 411 160 q 540 188 517 160 q 564 282 564 217 q 564 325 564 299 q 563 383 564 351 q 563 451 563 415 q 563 524 563 488 l 563 701 q 555 760 563 744 q 526 776 547 776 q 515 776 521 776 q 506 775 510 775 q 494 774 500 774 l 490 779 l 506 903 q 569 900 539 901 q 624 899 596 899 q 672 899 653 899 q 740 899 704 899 q 804 900 775 899 q 872 903 839 901 l 861 778 q 826 765 839 771 q 806 752 813 758 q 797 738 799 746 q 794 717 794 729 l 794 325 q 701 69 794 156 q 424 -17 608 -17 q 163 53 244 -17 q 82 276 82 122 l 82 701 q 74 762 82 747 q 43 776 67 776 q 31 776 38 776 q 18 775 25 775 q 3 774 11 774 l 0 779 l 14 903 q 96 900 54 901 q 175 899 132 899 q 260 899 218 899 q 311 899 279 899 q 374 901 343 900 q 446 904 410 903 l 432 775 q 381 756 396 772 q 365 707 367 739 l 357 306 m 529 1089 q 453 1042 493 1067 q 376 993 418 1021 q 289 936 333 965 l 263 943 l 210 1010 q 287 1086 250 1049 q 353 1154 324 1124 q 417 1221 388 1190 l 438 1222 l 529 1110 l 529 1089 m 804 1089 q 728 1042 768 1067 q 651 993 693 1021 q 564 936 608 965 l 538 943 l 485 1010 q 562 1086 525 1049 q 628 1154 599 1124 q 692 1221 663 1190 l 713 1222 l 804 1110 l 804 1089 z "},"Ū":{"ha":871,"x_min":0,"x_max":872,"o":"m 357 306 q 384 199 357 239 q 464 160 411 160 q 540 188 517 160 q 564 282 564 217 q 564 325 564 299 q 563 383 564 351 q 563 451 563 415 q 563 524 563 488 l 563 701 q 555 760 563 744 q 526 776 547 776 q 515 776 521 776 q 506 775 510 775 q 494 774 500 774 l 490 779 l 506 903 q 569 900 539 901 q 624 899 596 899 q 672 899 653 899 q 740 899 704 899 q 804 900 775 899 q 872 903 839 901 l 861 778 q 826 765 839 771 q 806 752 813 758 q 797 738 799 746 q 794 717 794 729 l 794 325 q 701 69 794 156 q 424 -17 608 -17 q 163 53 244 -17 q 82 276 82 122 l 82 701 q 74 762 82 747 q 43 776 67 776 q 31 776 38 776 q 18 775 25 775 q 3 774 11 774 l 0 779 l 14 903 q 96 900 54 901 q 175 899 132 899 q 260 899 218 899 q 311 899 279 899 q 374 901 343 900 q 446 904 410 903 l 432 775 q 381 756 396 772 q 365 707 367 739 l 357 306 m 682 1118 l 657 967 l 463 965 q 399 965 431 965 q 339 964 367 964 l 276 964 l 254 985 l 281 1136 q 357 1135 319 1135 l 494 1135 q 551 1135 521 1135 q 607 1139 581 1136 q 667 1143 638 1140 l 682 1118 z "},"Ų":{"ha":871,"x_min":0,"x_max":872,"o":"m 747 -237 q 700 -278 725 -260 q 653 -310 679 -294 q 603 -336 628 -326 q 472 -303 519 -336 q 424 -212 424 -271 q 449 -121 424 -167 q 535 -7 474 -75 q 424 -17 488 -17 q 163 53 244 -17 q 82 276 82 122 l 82 701 q 74 762 82 747 q 43 776 67 776 q 31 776 38 776 q 18 775 25 775 q 3 774 11 774 l 0 779 l 14 903 q 96 900 54 901 q 175 899 132 899 q 260 899 218 899 q 311 899 279 899 q 374 901 343 900 q 446 904 410 903 l 432 775 q 381 756 396 772 q 365 707 367 740 l 357 306 q 385 198 357 236 q 464 160 414 160 q 540 188 517 160 q 564 282 564 217 q 564 325 564 299 q 563 383 564 351 q 563 451 563 415 q 563 524 563 488 l 563 701 q 555 760 563 744 q 526 776 547 776 q 515 776 521 776 q 506 775 510 775 q 494 774 500 774 l 490 779 l 506 903 q 569 900 539 901 q 624 899 596 899 q 672 899 653 899 q 740 899 704 899 q 804 900 775 899 q 872 903 839 901 l 861 778 q 826 765 839 771 q 806 752 813 758 q 797 738 799 746 q 794 717 794 729 l 794 325 q 775 191 794 250 q 711 76 756 132 q 633 -26 663 13 q 589 -90 604 -65 q 569 -131 574 -115 q 564 -161 564 -146 q 579 -203 564 -187 q 621 -218 594 -218 q 652 -213 636 -218 q 682 -201 668 -208 q 713 -183 697 -194 l 747 -237 z "},"Ů":{"ha":871,"x_min":0,"x_max":872,"o":"m 357 306 q 384 199 357 239 q 464 160 411 160 q 540 188 517 160 q 564 282 564 217 q 564 325 564 299 q 563 383 564 351 q 563 451 563 415 q 563 524 563 488 l 563 701 q 555 760 563 744 q 526 776 547 776 q 515 776 521 776 q 506 775 510 775 q 494 774 500 774 l 490 779 l 506 903 q 569 900 539 901 q 624 899 596 899 q 672 899 653 899 q 740 899 704 899 q 804 900 775 899 q 872 903 839 901 l 861 778 q 826 765 839 771 q 806 752 813 758 q 797 738 799 746 q 794 717 794 729 l 794 325 q 701 69 794 156 q 424 -17 608 -17 q 163 53 244 -17 q 82 276 82 122 l 82 701 q 74 762 82 747 q 43 776 67 776 q 31 776 38 776 q 18 775 25 775 q 3 774 11 774 l 0 779 l 14 903 q 96 900 54 901 q 175 899 132 899 q 260 899 218 899 q 311 899 279 899 q 374 901 343 900 q 446 904 410 903 l 432 775 q 381 756 396 772 q 365 707 367 739 l 357 306 m 465 1044 q 497 1053 479 1044 q 514 1090 514 1063 q 460 1139 514 1139 q 423 1126 435 1139 q 411 1094 411 1114 q 430 1055 411 1065 q 465 1044 449 1044 m 456 947 q 351 987 388 947 q 315 1090 315 1026 q 356 1197 315 1154 q 468 1239 397 1239 q 534 1227 507 1239 q 578 1197 561 1215 q 602 1153 594 1178 q 610 1103 610 1129 q 599 1044 610 1072 q 569 995 589 1017 q 522 960 550 974 q 456 947 493 947 z "},"V":{"ha":890,"x_min":-7,"x_max":899,"o":"m 79 685 q 49 753 67 732 q 3 778 32 774 l -7 792 l 4 901 q 72 900 38 900 q 134 899 101 899 q 194 899 167 899 q 291 899 243 899 q 376 901 339 900 q 460 906 421 903 l 471 893 l 463 776 q 413 769 431 772 q 386 762 394 767 q 376 749 378 757 q 374 729 374 742 q 376 692 374 718 q 385 628 379 665 q 397 547 390 590 q 411 460 404 503 q 449 233 426 357 l 479 233 q 536 472 511 365 q 556 563 546 518 q 575 646 567 608 q 588 710 583 683 q 593 746 593 738 q 585 769 593 764 q 550 774 578 774 l 514 774 l 503 788 l 514 903 q 589 900 551 901 q 658 899 621 899 q 728 899 696 899 l 843 899 q 899 900 872 899 l 889 779 q 855 758 865 772 q 832 703 844 743 l 625 6 l 243 -18 q 175 276 207 139 q 147 396 161 335 q 121 512 133 457 q 97 612 108 567 q 79 685 86 657 z "},"W":{"ha":1386,"x_min":-7,"x_max":1394,"o":"m 769 -18 l 708 378 l 689 378 l 601 6 l 233 -18 q 168 276 199 139 q 142 396 156 335 q 116 512 128 457 q 94 612 104 567 q 76 685 83 657 q 47 753 64 732 q 3 778 31 774 l -7 792 l 6 901 q 69 900 38 900 q 128 899 97 899 q 188 899 160 899 q 281 899 235 899 q 363 901 326 900 q 443 906 406 903 l 453 893 l 444 776 q 395 769 413 772 q 369 762 378 767 q 360 749 361 757 q 358 729 358 742 q 361 692 358 718 q 369 628 364 665 q 381 547 375 590 q 394 460 388 503 q 431 233 410 357 l 460 233 q 504 419 483 331 q 522 497 513 457 q 539 573 531 536 q 554 642 547 610 q 565 697 561 674 q 569 735 569 724 q 555 770 569 763 q 492 778 540 778 l 482 792 l 494 901 q 576 900 536 900 q 649 899 611 899 q 719 899 688 899 q 813 899 767 899 q 894 901 858 900 q 974 906 936 903 l 985 893 l 975 776 q 926 769 943 772 q 901 763 910 767 q 892 751 893 758 q 890 729 890 743 q 893 692 890 718 q 901 628 896 665 q 912 547 906 590 q 925 460 918 503 q 961 233 940 357 l 990 233 q 1044 472 1019 365 q 1065 563 1054 518 q 1083 646 1075 608 q 1095 710 1090 683 q 1100 746 1100 738 q 1092 769 1100 764 q 1058 774 1085 774 l 1024 774 l 1014 788 l 1025 903 q 1097 900 1061 901 q 1165 899 1129 899 q 1231 899 1200 899 l 1342 899 q 1394 900 1369 899 l 1385 779 q 1352 758 1363 772 q 1329 703 1342 743 l 1138 6 l 769 -18 z "},"Ẃ":{"ha":1386,"x_min":-7,"x_max":1394,"o":"m 769 -18 l 708 378 l 689 378 l 601 6 l 233 -18 q 168 276 199 139 q 142 396 156 335 q 116 512 128 457 q 94 612 104 567 q 76 685 83 657 q 47 753 64 732 q 3 778 31 774 l -7 792 l 6 901 q 69 900 38 900 q 128 899 97 899 q 188 899 160 899 q 281 899 235 899 q 363 901 326 900 q 443 906 406 903 l 453 893 l 444 776 q 395 769 413 772 q 369 762 378 767 q 360 749 361 757 q 358 729 358 742 q 361 692 358 718 q 369 628 364 665 q 381 547 375 590 q 394 460 388 503 q 431 233 410 357 l 460 233 q 504 419 483 331 q 522 497 513 457 q 539 573 531 536 q 554 642 547 610 q 565 697 561 674 q 569 735 569 724 q 555 770 569 763 q 492 778 540 778 l 482 792 l 494 901 q 576 900 536 900 q 649 899 611 899 q 719 899 688 899 q 813 899 767 899 q 894 901 858 900 q 974 906 936 903 l 985 893 l 975 776 q 926 769 943 772 q 901 763 910 767 q 892 751 893 758 q 890 729 890 743 q 893 692 890 718 q 901 628 896 665 q 912 547 906 590 q 925 460 918 503 q 961 233 940 357 l 990 233 q 1044 472 1019 365 q 1065 563 1054 518 q 1083 646 1075 608 q 1095 710 1090 683 q 1100 746 1100 738 q 1092 769 1100 764 q 1058 774 1085 774 l 1024 774 l 1014 788 l 1025 903 q 1097 900 1061 901 q 1165 899 1129 899 q 1231 899 1200 899 l 1342 899 q 1394 900 1369 899 l 1385 779 q 1352 758 1363 772 q 1329 703 1342 743 l 1138 6 l 769 -18 m 972 1036 q 860 1014 918 1026 q 747 989 810 1003 q 619 960 685 975 l 593 978 l 564 1076 q 690 1125 628 1100 q 801 1169 753 1150 q 910 1215 858 1193 l 932 1208 l 982 1058 l 972 1036 z "},"Ŵ":{"ha":1386,"x_min":-7,"x_max":1394,"o":"m 769 -18 l 708 378 l 689 378 l 601 6 l 233 -18 q 168 276 199 139 q 142 396 156 335 q 116 512 128 457 q 94 612 104 567 q 76 685 83 657 q 47 753 64 732 q 3 778 31 774 l -7 792 l 6 901 q 69 900 38 900 q 128 899 97 899 q 188 899 160 899 q 281 899 235 899 q 363 901 326 900 q 443 906 406 903 l 453 893 l 444 776 q 395 769 413 772 q 369 762 378 767 q 360 749 361 757 q 358 729 358 742 q 361 692 358 718 q 369 628 364 665 q 381 547 375 590 q 394 460 388 503 q 431 233 410 357 l 460 233 q 504 419 483 331 q 522 497 513 457 q 539 573 531 536 q 554 642 547 610 q 565 697 561 674 q 569 735 569 724 q 555 770 569 763 q 492 778 540 778 l 482 792 l 494 901 q 576 900 536 900 q 649 899 611 899 q 719 899 688 899 q 813 899 767 899 q 894 901 858 900 q 974 906 936 903 l 985 893 l 975 776 q 926 769 943 772 q 901 763 910 767 q 892 751 893 758 q 890 729 890 743 q 893 692 890 718 q 901 628 896 665 q 912 547 906 590 q 925 460 918 503 q 961 233 940 357 l 990 233 q 1044 472 1019 365 q 1065 563 1054 518 q 1083 646 1075 608 q 1095 710 1090 683 q 1100 746 1100 738 q 1092 769 1100 764 q 1058 774 1085 774 l 1024 774 l 1014 788 l 1025 903 q 1097 900 1061 901 q 1165 899 1129 899 q 1231 899 1200 899 l 1342 899 q 1394 900 1369 899 l 1385 779 q 1352 758 1363 772 q 1329 703 1342 743 l 1138 6 l 769 -18 m 458 1069 q 546 1135 503 1101 q 625 1197 589 1169 q 704 1261 667 1231 l 742 1261 q 764 1247 742 1264 q 821 1201 786 1229 q 899 1138 856 1172 q 986 1069 943 1103 l 938 983 l 906 974 q 806 1013 858 993 q 722 1044 754 1033 q 640 1013 690 1033 q 540 974 589 993 l 508 983 l 458 1069 z "},"Ẅ":{"ha":1386,"x_min":-7,"x_max":1394,"o":"m 769 -18 l 708 378 l 689 378 l 601 6 l 233 -18 q 168 276 199 139 q 142 396 156 335 q 116 512 128 457 q 94 612 104 567 q 76 685 83 657 q 47 753 64 732 q 3 778 31 774 l -7 792 l 6 901 q 69 900 38 900 q 128 899 97 899 q 188 899 160 899 q 281 899 235 899 q 363 901 326 900 q 443 906 406 903 l 453 893 l 444 776 q 395 769 413 772 q 369 762 378 767 q 360 749 361 757 q 358 729 358 742 q 361 692 358 718 q 369 628 364 665 q 381 547 375 590 q 394 460 388 503 q 431 233 410 357 l 460 233 q 504 419 483 331 q 522 497 513 457 q 539 573 531 536 q 554 642 547 610 q 565 697 561 674 q 569 735 569 724 q 555 770 569 763 q 492 778 540 778 l 482 792 l 494 901 q 576 900 536 900 q 649 899 611 899 q 719 899 688 899 q 813 899 767 899 q 894 901 858 900 q 974 906 936 903 l 985 893 l 975 776 q 926 769 943 772 q 901 763 910 767 q 892 751 893 758 q 890 729 890 743 q 893 692 890 718 q 901 628 896 665 q 912 547 906 590 q 925 460 918 503 q 961 233 940 357 l 990 233 q 1044 472 1019 365 q 1065 563 1054 518 q 1083 646 1075 608 q 1095 710 1090 683 q 1100 746 1100 738 q 1092 769 1100 764 q 1058 774 1085 774 l 1024 774 l 1014 788 l 1025 903 q 1097 900 1061 901 q 1165 899 1129 899 q 1231 899 1200 899 l 1342 899 q 1394 900 1369 899 l 1385 779 q 1352 758 1363 772 q 1329 703 1342 743 l 1138 6 l 769 -18 m 850 951 q 739 1063 739 951 q 771 1151 739 1118 q 858 1183 803 1183 q 940 1154 911 1183 q 968 1072 968 1125 q 936 984 968 1017 q 850 951 904 951 m 582 951 q 472 1063 472 951 q 504 1151 472 1118 q 592 1183 536 1183 q 673 1154 644 1183 q 701 1072 701 1125 q 669 984 701 1017 q 582 951 638 951 z "},"Ẁ":{"ha":1386,"x_min":-7,"x_max":1394,"o":"m 769 -18 l 708 378 l 689 378 l 601 6 l 233 -18 q 168 276 199 139 q 142 396 156 335 q 116 512 128 457 q 94 612 104 567 q 76 685 83 657 q 47 753 64 732 q 3 778 31 774 l -7 792 l 6 901 q 69 900 38 900 q 128 899 97 899 q 188 899 160 899 q 281 899 235 899 q 363 901 326 900 q 443 906 406 903 l 453 893 l 444 776 q 395 769 413 772 q 369 762 378 767 q 360 749 361 757 q 358 729 358 742 q 361 692 358 718 q 369 628 364 665 q 381 547 375 590 q 394 460 388 503 q 431 233 410 357 l 460 233 q 504 419 483 331 q 522 497 513 457 q 539 573 531 536 q 554 642 547 610 q 565 697 561 674 q 569 735 569 724 q 555 770 569 763 q 492 778 540 778 l 482 792 l 494 901 q 576 900 536 900 q 649 899 611 899 q 719 899 688 899 q 813 899 767 899 q 894 901 858 900 q 974 906 936 903 l 985 893 l 975 776 q 926 769 943 772 q 901 763 910 767 q 892 751 893 758 q 890 729 890 743 q 893 692 890 718 q 901 628 896 665 q 912 547 906 590 q 925 460 918 503 q 961 233 940 357 l 990 233 q 1044 472 1019 365 q 1065 563 1054 518 q 1083 646 1075 608 q 1095 710 1090 683 q 1100 746 1100 738 q 1092 769 1100 764 q 1058 774 1085 774 l 1024 774 l 1014 788 l 1025 903 q 1097 900 1061 901 q 1165 899 1129 899 q 1231 899 1200 899 l 1342 899 q 1394 900 1369 899 l 1385 779 q 1352 758 1363 772 q 1329 703 1342 743 l 1138 6 l 769 -18 m 465 1058 l 515 1208 l 538 1215 q 646 1169 589 1193 q 756 1125 694 1150 q 883 1076 818 1100 l 854 978 l 828 960 q 699 989 763 975 q 586 1014 636 1003 q 475 1036 528 1026 l 465 1058 z "},"X":{"ha":988,"x_min":1,"x_max":988,"o":"m 307 481 l 193 649 q 151 701 171 682 q 113 733 132 721 q 74 752 94 746 q 28 765 53 758 l 21 774 l 33 900 q 100 899 63 899 l 278 899 q 341 899 301 899 q 421 903 381 900 q 518 907 467 904 l 526 892 l 517 778 q 463 744 463 778 q 488 679 463 717 q 550 589 513 642 q 578 636 563 611 q 606 684 593 661 q 626 725 618 707 q 635 751 635 743 q 624 773 635 767 q 582 779 613 779 l 579 788 l 588 899 l 803 899 q 865 899 833 899 q 922 900 896 899 q 982 903 953 901 l 988 892 l 981 771 q 922 739 947 754 q 876 706 897 724 q 838 668 856 689 q 803 619 821 647 l 672 418 l 793 249 q 877 158 838 186 q 967 129 917 131 l 972 124 l 960 -1 q 886 0 922 -1 q 824 2 856 1 q 772 3 792 3 q 700 1 747 3 q 604 -3 653 0 q 485 -7 549 -6 l 475 3 l 485 119 q 525 147 525 122 q 510 185 525 164 l 425 307 l 372 219 q 355 188 361 203 q 349 164 349 174 q 403 122 349 122 l 411 107 l 404 -6 q 315 -1 357 -4 q 245 1 279 0 q 194 3 211 3 q 142 1 174 3 q 81 -1 110 0 q 8 -6 44 -4 l 1 14 l 10 125 q 47 151 25 132 q 93 194 69 169 q 141 248 117 219 q 185 304 165 276 l 307 481 z "},"Y":{"ha":921,"x_min":0,"x_max":921,"o":"m 413 743 q 421 711 413 735 q 441 658 429 688 q 466 596 453 628 q 490 538 479 564 l 510 538 l 567 696 q 585 757 585 736 q 573 774 585 769 q 532 779 561 779 l 528 788 l 539 897 l 758 897 q 813 898 786 897 q 864 900 840 899 q 915 903 890 901 l 921 892 l 910 771 q 825 700 865 746 q 756 596 785 654 l 629 343 q 611 278 614 307 q 608 214 608 250 q 623 146 608 165 q 678 126 638 126 q 703 126 690 126 q 726 128 715 126 q 749 131 739 129 l 756 122 l 743 -8 q 629 -4 683 -7 q 534 -1 582 -3 q 456 0 486 0 q 374 -2 422 0 q 282 -7 326 -4 q 176 -12 231 -10 l 188 115 q 260 124 232 118 q 303 142 288 131 q 325 174 319 154 q 331 225 331 194 l 331 247 q 322 305 331 278 q 292 372 314 332 l 143 649 q 6 765 101 725 l 0 774 l 14 900 q 101 899 61 899 q 170 897 136 897 q 222 897 204 897 q 288 898 246 897 q 371 901 331 899 q 472 907 418 904 l 482 892 l 469 778 q 413 743 413 778 z "},"Ý":{"ha":921,"x_min":0,"x_max":921,"o":"m 413 743 q 421 711 413 735 q 441 658 429 688 q 466 596 453 628 q 490 538 479 564 l 510 538 l 567 696 q 585 757 585 736 q 573 774 585 769 q 532 779 561 779 l 528 788 l 539 897 l 758 897 q 813 898 786 897 q 864 900 840 899 q 915 903 890 901 l 921 892 l 910 771 q 825 700 865 746 q 756 596 785 654 l 629 343 q 611 278 614 307 q 608 214 608 250 q 623 146 608 165 q 678 126 638 126 q 703 126 690 126 q 726 128 715 126 q 749 131 739 129 l 756 122 l 743 -8 q 629 -4 683 -7 q 534 -1 582 -3 q 456 0 486 0 q 374 -2 422 0 q 282 -7 326 -4 q 176 -12 231 -10 l 188 115 q 260 124 232 118 q 303 142 288 131 q 325 174 319 154 q 331 225 331 194 l 331 247 q 322 305 331 278 q 292 372 314 332 l 143 649 q 6 765 101 725 l 0 774 l 14 900 q 101 899 61 899 q 170 897 136 897 q 222 897 204 897 q 288 898 246 897 q 371 901 331 899 q 472 907 418 904 l 482 892 l 469 778 q 413 743 413 778 m 758 1036 q 646 1014 704 1026 q 533 989 596 1003 q 406 960 471 975 l 379 978 l 350 1076 q 476 1125 414 1100 q 588 1169 539 1150 q 696 1215 644 1193 l 718 1208 l 768 1058 l 758 1036 z "},"Ŷ":{"ha":921,"x_min":0,"x_max":921,"o":"m 413 743 q 421 711 413 735 q 441 658 429 688 q 466 596 453 628 q 490 538 479 564 l 510 538 l 567 696 q 585 757 585 736 q 573 774 585 769 q 532 779 561 779 l 528 788 l 539 897 l 758 897 q 813 898 786 897 q 864 900 840 899 q 915 903 890 901 l 921 892 l 910 771 q 825 700 865 746 q 756 596 785 654 l 629 343 q 611 278 614 307 q 608 214 608 250 q 623 146 608 165 q 678 126 638 126 q 703 126 690 126 q 726 128 715 126 q 749 131 739 129 l 756 122 l 743 -8 q 629 -4 683 -7 q 534 -1 582 -3 q 456 0 486 0 q 374 -2 422 0 q 282 -7 326 -4 q 176 -12 231 -10 l 188 115 q 260 124 232 118 q 303 142 288 131 q 325 174 319 154 q 331 225 331 194 l 331 247 q 322 305 331 278 q 292 372 314 332 l 143 649 q 6 765 101 725 l 0 774 l 14 900 q 101 899 61 899 q 170 897 136 897 q 222 897 204 897 q 288 898 246 897 q 371 901 331 899 q 472 907 418 904 l 482 892 l 469 778 q 413 743 413 778 m 244 1069 q 332 1135 289 1101 q 411 1197 375 1169 q 490 1261 453 1231 l 528 1261 q 550 1247 528 1264 q 607 1201 572 1229 q 685 1138 642 1172 q 772 1069 729 1103 l 724 983 l 692 974 q 592 1013 644 993 q 508 1044 540 1033 q 426 1013 476 1033 q 326 974 375 993 l 294 983 l 244 1069 z "},"Ÿ":{"ha":921,"x_min":0,"x_max":921,"o":"m 413 743 q 421 711 413 735 q 441 658 429 688 q 466 596 453 628 q 490 538 479 564 l 510 538 l 567 696 q 585 757 585 736 q 573 774 585 769 q 532 779 561 779 l 528 788 l 539 897 l 758 897 q 813 898 786 897 q 864 900 840 899 q 915 903 890 901 l 921 892 l 910 771 q 825 700 865 746 q 756 596 785 654 l 629 343 q 611 278 614 307 q 608 214 608 250 q 623 146 608 165 q 678 126 638 126 q 703 126 690 126 q 726 128 715 126 q 749 131 739 129 l 756 122 l 743 -8 q 629 -4 683 -7 q 534 -1 582 -3 q 456 0 486 0 q 374 -2 422 0 q 282 -7 326 -4 q 176 -12 231 -10 l 188 115 q 260 124 232 118 q 303 142 288 131 q 325 174 319 154 q 331 225 331 194 l 331 247 q 322 305 331 278 q 292 372 314 332 l 143 649 q 6 765 101 725 l 0 774 l 14 900 q 101 899 61 899 q 170 897 136 897 q 222 897 204 897 q 288 898 246 897 q 371 901 331 899 q 472 907 418 904 l 482 892 l 469 778 q 413 743 413 778 m 636 951 q 525 1063 525 951 q 557 1151 525 1118 q 644 1183 589 1183 q 726 1154 697 1183 q 754 1072 754 1125 q 722 984 754 1017 q 636 951 690 951 m 368 951 q 258 1063 258 951 q 290 1151 258 1118 q 378 1183 322 1183 q 459 1154 431 1183 q 488 1072 488 1125 q 456 984 488 1017 q 368 951 424 951 z "},"Ỳ":{"ha":921,"x_min":0,"x_max":921,"o":"m 413 743 q 421 711 413 735 q 441 658 429 688 q 466 596 453 628 q 490 538 479 564 l 510 538 l 567 696 q 585 757 585 736 q 573 774 585 769 q 532 779 561 779 l 528 788 l 539 897 l 758 897 q 813 898 786 897 q 864 900 840 899 q 915 903 890 901 l 921 892 l 910 771 q 825 700 865 746 q 756 596 785 654 l 629 343 q 611 278 614 307 q 608 214 608 250 q 623 146 608 165 q 678 126 638 126 q 703 126 690 126 q 726 128 715 126 q 749 131 739 129 l 756 122 l 743 -8 q 629 -4 683 -7 q 534 -1 582 -3 q 456 0 486 0 q 374 -2 422 0 q 282 -7 326 -4 q 176 -12 231 -10 l 188 115 q 260 124 232 118 q 303 142 288 131 q 325 174 319 154 q 331 225 331 194 l 331 247 q 322 305 331 278 q 292 372 314 332 l 143 649 q 6 765 101 725 l 0 774 l 14 900 q 101 899 61 899 q 170 897 136 897 q 222 897 204 897 q 288 898 246 897 q 371 901 331 899 q 472 907 418 904 l 482 892 l 469 778 q 413 743 413 778 m 251 1058 l 301 1208 l 324 1215 q 432 1169 375 1193 q 542 1125 481 1150 q 669 1076 604 1100 l 640 978 l 614 960 q 485 989 549 975 q 372 1014 422 1003 q 261 1036 314 1026 l 251 1058 z "},"Z":{"ha":825,"x_min":4,"x_max":829,"o":"m 764 -4 l 168 4 l 54 -10 l 4 71 l 457 753 l 350 739 q 285 722 310 731 q 247 696 261 713 q 228 652 233 679 q 222 581 224 625 l 47 568 q 56 686 51 628 q 62 794 58 736 q 68 901 65 853 l 83 917 l 335 901 l 794 901 l 829 826 q 681 621 751 722 q 549 430 610 519 q 442 268 489 340 q 367 151 396 196 l 513 172 q 569 192 546 178 q 610 228 593 206 q 636 286 626 251 q 650 369 646 321 l 825 382 q 810 256 815 318 q 799 140 803 201 q 793 26 794 79 l 764 -4 z "},"Ź":{"ha":825,"x_min":4,"x_max":829,"o":"m 764 -4 l 168 4 l 54 -10 l 4 71 l 457 753 l 350 739 q 285 722 310 731 q 247 696 261 713 q 228 652 233 679 q 222 581 224 625 l 47 568 q 56 686 51 628 q 62 794 58 736 q 68 901 65 853 l 83 917 l 335 901 l 794 901 l 829 826 q 681 621 751 722 q 549 430 610 519 q 442 268 489 340 q 367 151 396 196 l 513 172 q 569 192 546 178 q 610 228 593 206 q 636 286 626 251 q 650 369 646 321 l 825 382 q 810 256 815 318 q 799 140 803 201 q 793 26 794 79 l 764 -4 m 713 1036 q 600 1014 658 1026 q 488 989 550 1003 q 360 960 425 975 l 333 978 l 304 1076 q 431 1125 368 1100 q 542 1169 493 1150 q 650 1215 599 1193 l 672 1208 l 722 1058 l 713 1036 z "},"Ž":{"ha":825,"x_min":4,"x_max":829,"o":"m 764 -4 l 168 4 l 54 -10 l 4 71 l 457 753 l 350 739 q 285 722 310 731 q 247 696 261 713 q 228 652 233 679 q 222 581 224 625 l 47 568 q 56 686 51 628 q 62 794 58 736 q 68 901 65 853 l 83 917 l 335 901 l 794 901 l 829 826 q 681 621 751 722 q 549 430 610 519 q 442 268 489 340 q 367 151 396 196 l 513 172 q 569 192 546 178 q 610 228 593 206 q 636 286 626 251 q 650 369 646 321 l 825 382 q 810 256 815 318 q 799 140 803 201 q 793 26 794 79 l 764 -4 m 724 1147 q 636 1081 679 1115 q 557 1019 593 1047 q 478 956 515 986 l 440 956 q 361 1019 403 986 q 282 1081 325 1047 q 196 1147 239 1115 l 244 1233 l 276 1243 q 376 1203 324 1224 q 460 1172 428 1183 q 542 1203 492 1183 q 642 1243 593 1224 l 674 1233 l 724 1147 z "},"Ż":{"ha":825,"x_min":4,"x_max":829,"o":"m 764 -4 l 168 4 l 54 -10 l 4 71 l 457 753 l 350 739 q 285 722 310 731 q 247 696 261 713 q 228 652 233 679 q 222 581 224 625 l 47 568 q 56 686 51 628 q 62 794 58 736 q 68 901 65 853 l 83 917 l 335 901 l 794 901 l 829 826 q 681 621 751 722 q 549 430 610 519 q 442 268 489 340 q 367 151 396 196 l 513 172 q 569 192 546 178 q 610 228 593 206 q 636 286 626 251 q 650 369 646 321 l 825 382 q 810 256 815 318 q 799 140 803 201 q 793 26 794 79 l 764 -4 m 458 949 q 361 983 394 949 q 328 1081 328 1017 q 365 1186 328 1147 q 469 1225 403 1225 q 565 1190 532 1225 q 599 1093 599 1156 q 561 988 599 1026 q 458 949 524 949 z "},"a":{"ha":686,"x_min":15,"x_max":697,"o":"m 376 397 q 346 471 376 444 q 263 497 315 497 q 207 488 235 497 q 156 467 179 478 q 103 438 129 453 l 86 446 l 51 557 q 168 614 113 589 q 264 654 215 636 q 340 672 313 672 q 472 655 419 672 q 558 610 525 638 q 603 545 590 582 q 617 471 617 508 q 612 419 617 454 q 601 346 607 385 q 591 273 596 307 q 586 225 586 239 q 597 191 586 204 q 626 178 608 178 q 643 179 635 178 q 658 183 651 181 q 674 189 665 186 l 697 151 q 647 72 672 108 q 598 15 625 42 q 547 -17 571 -11 q 438 10 478 -17 q 390 85 397 36 l 374 92 q 337 57 357 75 q 296 24 317 39 q 256 -1 275 8 q 219 -11 236 -11 q 140 7 176 -11 q 75 57 103 25 q 31 132 47 89 q 15 225 15 175 q 40 304 15 271 q 104 346 64 338 l 376 396 l 376 397 m 374 294 l 274 272 q 253 263 258 269 q 249 242 249 257 q 263 188 249 210 q 304 167 278 167 q 338 169 319 167 q 372 175 357 172 l 374 294 z "},"á":{"ha":686,"x_min":15,"x_max":697,"o":"m 376 397 q 346 471 376 444 q 263 497 315 497 q 207 488 235 497 q 156 467 179 478 q 103 438 129 453 l 86 446 l 51 557 q 168 614 113 589 q 264 654 215 636 q 340 672 313 672 q 472 655 419 672 q 558 610 525 638 q 603 545 590 582 q 617 471 617 508 q 612 419 617 454 q 601 346 607 385 q 591 273 596 307 q 586 225 586 239 q 597 191 586 204 q 626 178 608 178 q 643 179 635 178 q 658 183 651 181 q 674 189 665 186 l 697 151 q 647 72 672 108 q 598 15 625 42 q 547 -17 571 -11 q 438 10 478 -17 q 390 85 397 36 l 374 92 q 337 57 357 75 q 296 24 317 39 q 256 -1 275 8 q 219 -11 236 -11 q 140 7 176 -11 q 75 57 103 25 q 31 132 47 89 q 15 225 15 175 q 40 304 15 271 q 104 346 64 338 l 376 396 l 376 397 m 374 294 l 274 272 q 253 263 258 269 q 249 242 249 257 q 263 188 249 210 q 304 167 278 167 q 338 169 319 167 q 372 175 357 172 l 374 294 m 572 894 q 479 844 528 871 q 385 792 438 821 q 279 732 332 764 l 249 742 l 192 826 q 288 910 240 868 q 371 985 335 951 q 451 1058 414 1024 l 475 1058 l 575 918 l 572 894 z "},"´":{"ha":553,"x_min":138,"x_max":521,"o":"m 518 892 q 425 842 474 868 q 331 790 383 818 q 225 729 278 761 l 194 739 l 138 824 q 233 907 186 865 q 317 982 281 949 q 397 1056 360 1021 l 421 1056 l 521 915 l 518 892 z "},"ă":{"ha":686,"x_min":15,"x_max":697,"o":"m 376 397 q 346 471 376 444 q 263 497 315 497 q 207 488 235 497 q 156 467 179 478 q 103 438 129 453 l 86 446 l 51 557 q 168 614 113 589 q 264 654 215 636 q 340 672 313 672 q 472 655 419 672 q 558 610 525 638 q 603 545 590 582 q 617 471 617 508 q 612 419 617 454 q 601 346 607 385 q 591 273 596 307 q 586 225 586 239 q 597 191 586 204 q 626 178 608 178 q 643 179 635 178 q 658 183 651 181 q 674 189 665 186 l 697 151 q 647 72 672 108 q 598 15 625 42 q 547 -17 571 -11 q 438 10 478 -17 q 390 85 397 36 l 374 92 q 337 57 357 75 q 296 24 317 39 q 256 -1 275 8 q 219 -11 236 -11 q 140 7 176 -11 q 75 57 103 25 q 31 132 47 89 q 15 225 15 175 q 40 304 15 271 q 104 346 64 338 l 376 396 l 376 397 m 374 294 l 274 272 q 253 263 258 269 q 249 242 249 257 q 263 188 249 210 q 304 167 278 167 q 338 169 319 167 q 372 175 357 172 l 374 294 m 328 933 q 420 958 379 933 q 482 1031 461 982 l 519 1021 l 575 935 q 544 865 564 899 q 494 805 524 832 q 422 762 464 778 q 328 746 381 746 q 233 762 275 746 q 162 805 192 778 q 112 865 132 832 q 81 935 92 899 l 136 1021 l 174 1031 q 235 958 194 982 q 328 933 276 933 z "},"˘":{"ha":553,"x_min":29,"x_max":524,"o":"m 276 931 q 369 955 328 931 q 431 1028 410 979 l 468 1018 l 524 932 q 492 863 513 896 q 442 802 472 829 q 371 759 413 775 q 276 743 329 743 q 182 759 224 743 q 110 802 140 775 q 60 863 81 829 q 29 932 40 896 l 85 1018 l 122 1028 q 184 955 143 979 q 276 931 225 931 z "},"â":{"ha":686,"x_min":15,"x_max":697,"o":"m 376 397 q 346 471 376 444 q 263 497 315 497 q 207 488 235 497 q 156 467 179 478 q 103 438 129 453 l 86 446 l 51 557 q 168 614 113 589 q 264 654 215 636 q 340 672 313 672 q 472 655 419 672 q 558 610 525 638 q 603 545 590 582 q 617 471 617 508 q 612 419 617 454 q 601 346 607 385 q 591 273 596 307 q 586 225 586 239 q 597 191 586 204 q 626 178 608 178 q 643 179 635 178 q 658 183 651 181 q 674 189 665 186 l 697 151 q 647 72 672 108 q 598 15 625 42 q 547 -17 571 -11 q 438 10 478 -17 q 390 85 397 36 l 374 92 q 337 57 357 75 q 296 24 317 39 q 256 -1 275 8 q 219 -11 236 -11 q 140 7 176 -11 q 75 57 103 25 q 31 132 47 89 q 15 225 15 175 q 40 304 15 271 q 104 346 64 338 l 376 396 l 376 397 m 374 294 l 274 272 q 253 263 258 269 q 249 242 249 257 q 263 188 249 210 q 304 167 278 167 q 338 169 319 167 q 372 175 357 172 l 374 294 m 83 840 q 165 915 124 876 q 240 985 207 953 q 315 1057 279 1021 l 353 1057 q 428 985 389 1021 q 502 915 461 953 q 583 840 543 876 l 521 754 l 489 744 q 405 799 449 772 q 333 840 361 825 q 263 799 306 825 q 179 744 219 772 l 147 754 l 83 840 z "},"ˆ":{"ha":553,"x_min":25,"x_max":525,"o":"m 25 839 q 107 913 65 875 q 182 983 149 951 q 257 1056 221 1019 l 294 1056 q 369 983 331 1019 q 444 913 403 951 q 525 839 485 875 l 463 753 l 431 743 q 347 797 390 771 q 275 839 303 824 q 204 797 247 824 q 121 743 161 771 l 89 753 l 25 839 z "},"ä":{"ha":686,"x_min":15,"x_max":697,"o":"m 376 397 q 346 471 376 444 q 263 497 315 497 q 207 488 235 497 q 156 467 179 478 q 103 438 129 453 l 86 446 l 51 557 q 168 614 113 589 q 264 654 215 636 q 340 672 313 672 q 472 655 419 672 q 558 610 525 638 q 603 545 590 582 q 617 471 617 508 q 612 419 617 454 q 601 346 607 385 q 591 273 596 307 q 586 225 586 239 q 597 191 586 204 q 626 178 608 178 q 643 179 635 178 q 658 183 651 181 q 674 189 665 186 l 697 151 q 647 72 672 108 q 598 15 625 42 q 547 -17 571 -11 q 438 10 478 -17 q 390 85 397 36 l 374 92 q 337 57 357 75 q 296 24 317 39 q 256 -1 275 8 q 219 -11 236 -11 q 140 7 176 -11 q 75 57 103 25 q 31 132 47 89 q 15 225 15 175 q 40 304 15 271 q 104 346 64 338 l 376 396 l 376 397 m 374 294 l 274 272 q 253 263 258 269 q 249 242 249 257 q 263 188 249 210 q 304 167 278 167 q 338 169 319 167 q 372 175 357 172 l 374 294 m 460 779 q 349 890 349 779 q 381 978 349 946 q 468 1011 413 1011 q 549 982 521 1011 q 578 900 578 953 q 546 812 578 844 q 460 779 514 779 m 192 779 q 82 890 82 779 q 114 978 82 946 q 201 1011 146 1011 q 283 982 254 1011 q 311 900 311 953 q 279 812 311 844 q 192 779 247 779 z "},"¨":{"ha":553,"x_min":28,"x_max":524,"o":"m 406 776 q 294 888 294 776 q 326 976 294 943 q 414 1008 358 1008 q 495 979 467 1008 q 524 897 524 950 q 492 809 524 842 q 406 776 460 776 m 138 776 q 28 888 28 776 q 60 976 28 943 q 147 1008 92 1008 q 228 979 200 1008 q 257 897 257 950 q 225 809 257 842 q 138 776 193 776 z "},"æ":{"ha":957,"x_min":8,"x_max":938,"o":"m 938 96 q 853 39 896 64 q 772 1 817 18 q 686 -17 726 -17 q 408 107 492 -17 q 293 19 344 50 q 213 -11 242 -11 q 133 7 169 -11 q 68 56 96 25 q 24 128 40 86 q 8 218 8 169 q 38 308 8 271 q 115 353 67 346 l 353 385 l 353 397 q 322 471 353 444 q 239 497 292 497 q 183 488 211 497 q 132 467 156 478 q 79 438 106 453 l 63 446 l 28 557 q 144 614 89 589 q 240 654 192 636 q 317 672 289 672 q 489 606 411 672 q 694 672 565 672 q 872 601 808 672 q 935 400 935 529 q 934 377 935 388 q 933 360 933 367 q 932 344 932 351 l 915 331 l 583 300 q 627 195 594 225 q 731 165 660 165 q 793 172 764 165 q 846 185 822 178 q 894 206 871 193 l 907 199 l 938 96 m 276 274 q 249 262 257 271 q 242 233 242 253 q 256 184 242 201 q 297 167 271 167 q 335 171 314 167 q 372 182 356 175 q 353 285 356 229 l 276 274 m 575 400 l 681 417 q 701 433 701 418 q 687 492 701 471 q 644 514 672 514 q 575 440 578 514 l 575 400 z "},"à":{"ha":686,"x_min":15,"x_max":697,"o":"m 376 397 q 346 471 376 444 q 263 497 315 497 q 207 488 235 497 q 156 467 179 478 q 103 438 129 453 l 86 446 l 51 557 q 168 614 113 589 q 264 654 215 636 q 340 672 313 672 q 472 655 419 672 q 558 610 525 638 q 603 545 590 582 q 617 471 617 508 q 612 419 617 454 q 601 346 607 385 q 591 273 596 307 q 586 225 586 239 q 597 191 586 204 q 626 178 608 178 q 643 179 635 178 q 658 183 651 181 q 674 189 665 186 l 697 151 q 647 72 672 108 q 598 15 625 42 q 547 -17 571 -11 q 438 10 478 -17 q 390 85 397 36 l 374 92 q 337 57 357 75 q 296 24 317 39 q 256 -1 275 8 q 219 -11 236 -11 q 140 7 176 -11 q 75 57 103 25 q 31 132 47 89 q 15 225 15 175 q 40 304 15 271 q 104 346 64 338 l 376 396 l 376 397 m 374 294 l 274 272 q 253 263 258 269 q 249 242 249 257 q 263 188 249 210 q 304 167 278 167 q 338 169 319 167 q 372 175 357 172 l 374 294 m 126 918 l 226 1058 l 250 1058 q 331 985 288 1024 q 414 910 367 951 q 510 826 461 868 l 453 742 l 422 732 q 316 792 368 764 q 222 844 264 821 q 129 894 174 871 l 126 918 z "},"`":{"ha":553,"x_min":81,"x_max":464,"o":"m 81 915 l 181 1056 l 204 1056 q 285 982 242 1021 q 368 907 321 949 q 464 824 415 865 l 407 739 l 376 729 q 270 790 322 761 q 176 842 218 818 q 83 892 128 868 l 81 915 z "},"ā":{"ha":686,"x_min":15,"x_max":697,"o":"m 376 397 q 346 471 376 444 q 263 497 315 497 q 207 488 235 497 q 156 467 179 478 q 103 438 129 453 l 86 446 l 51 557 q 168 614 113 589 q 264 654 215 636 q 340 672 313 672 q 472 655 419 672 q 558 610 525 638 q 603 545 590 582 q 617 471 617 508 q 612 419 617 454 q 601 346 607 385 q 591 273 596 307 q 586 225 586 239 q 597 191 586 204 q 626 178 608 178 q 643 179 635 178 q 658 183 651 181 q 674 189 665 186 l 697 151 q 647 72 672 108 q 598 15 625 42 q 547 -17 571 -11 q 438 10 478 -17 q 390 85 397 36 l 374 92 q 337 57 357 75 q 296 24 317 39 q 256 -1 275 8 q 219 -11 236 -11 q 140 7 176 -11 q 75 57 103 25 q 31 132 47 89 q 15 225 15 175 q 40 304 15 271 q 104 346 64 338 l 376 396 l 376 397 m 374 294 l 274 272 q 253 263 258 269 q 249 242 249 257 q 263 188 249 210 q 304 167 278 167 q 338 169 319 167 q 372 175 357 172 l 374 294 m 547 940 l 522 789 l 328 788 q 264 787 296 788 q 204 786 232 786 l 142 786 l 119 807 l 146 958 q 222 957 185 957 l 360 957 q 416 958 386 957 q 472 961 446 958 q 532 965 503 963 l 547 940 z "},"¯":{"ha":553,"x_min":69,"x_max":497,"o":"m 497 938 l 472 786 l 278 785 q 214 784 246 785 q 154 783 182 783 l 92 783 l 69 804 l 96 956 q 172 954 135 954 l 310 954 q 366 955 336 954 q 422 958 396 956 q 482 963 453 960 l 497 938 z "},"ą":{"ha":686,"x_min":15,"x_max":700,"o":"m 690 -236 q 643 -276 668 -258 q 597 -309 622 -293 q 546 -335 571 -325 q 415 -302 463 -335 q 367 -211 367 -269 q 392 -121 367 -167 q 479 -8 417 -75 q 390 85 399 13 l 374 92 q 284 16 325 43 q 219 -11 243 -11 q 140 7 176 -11 q 75 57 103 25 q 31 132 47 89 q 15 225 15 175 q 40 303 15 269 q 104 346 65 338 l 376 396 l 376 397 q 346 471 376 444 q 263 497 315 497 q 207 488 235 497 q 156 467 179 478 q 103 438 129 453 l 86 446 l 51 557 q 143 603 97 582 q 224 638 182 621 q 301 665 267 656 q 340 672 326 672 q 511 640 444 672 q 603 544 578 607 q 617 471 617 511 q 612 419 617 454 q 601 346 607 385 q 591 273 596 307 q 586 225 586 239 q 597 191 586 204 q 626 178 608 178 q 643 179 635 178 q 658 183 651 181 q 674 189 665 186 l 700 146 q 553 -57 600 15 q 507 -161 507 -129 q 522 -201 507 -186 q 564 -217 538 -217 q 595 -212 579 -217 q 625 -200 611 -207 q 656 -182 640 -193 l 690 -236 m 374 294 l 274 272 q 253 263 258 269 q 249 242 249 257 q 264 187 249 207 q 304 167 279 167 q 339 169 321 167 q 372 175 357 171 l 374 294 z "},"å":{"ha":686,"x_min":15,"x_max":697,"o":"m 376 397 q 346 471 376 444 q 263 497 315 497 q 207 488 235 497 q 156 467 179 478 q 103 438 129 453 l 86 446 l 51 557 q 168 614 113 589 q 264 654 215 636 q 340 672 313 672 q 472 655 419 672 q 558 610 525 638 q 603 545 590 582 q 617 471 617 508 q 612 419 617 454 q 601 346 607 385 q 591 273 596 307 q 586 225 586 239 q 597 191 586 204 q 626 178 608 178 q 643 179 635 178 q 658 183 651 181 q 674 189 665 186 l 697 151 q 647 72 672 108 q 598 15 625 42 q 547 -17 571 -11 q 438 10 478 -17 q 390 85 397 36 l 374 92 q 337 57 357 75 q 296 24 317 39 q 256 -1 275 8 q 219 -11 236 -11 q 140 7 176 -11 q 75 57 103 25 q 31 132 47 89 q 15 225 15 175 q 40 304 15 271 q 104 346 64 338 l 376 396 l 376 397 m 374 294 l 274 272 q 253 263 258 269 q 249 242 249 257 q 263 188 249 210 q 304 167 278 167 q 338 169 319 167 q 372 175 357 172 l 374 294 m 338 853 q 369 862 351 853 q 386 899 386 871 q 332 947 386 947 q 295 935 307 947 q 283 903 283 922 q 302 863 283 874 q 338 853 321 853 m 328 756 q 224 795 260 756 q 188 899 188 835 q 228 1005 188 963 q 340 1047 269 1047 q 406 1035 379 1047 q 450 1005 433 1024 q 474 962 467 986 q 482 911 482 938 q 472 853 482 881 q 442 803 461 825 q 394 769 422 782 q 328 756 365 756 z "},"˚":{"ha":553,"x_min":129,"x_max":424,"o":"m 279 850 q 310 859 293 850 q 328 896 328 868 q 274 944 328 944 q 237 932 249 944 q 225 900 225 919 q 244 860 225 871 q 279 850 263 850 m 269 753 q 165 792 201 753 q 129 896 129 832 q 170 1002 129 960 q 282 1044 211 1044 q 348 1033 321 1044 q 392 1002 375 1021 q 416 959 408 983 q 424 908 424 935 q 413 850 424 878 q 383 801 403 822 q 335 766 364 779 q 269 753 307 753 z "},"ã":{"ha":686,"x_min":15,"x_max":697,"o":"m 376 397 q 346 471 376 444 q 263 497 315 497 q 207 488 235 497 q 156 467 179 478 q 103 438 129 453 l 86 446 l 51 557 q 168 614 113 589 q 264 654 215 636 q 340 672 313 672 q 472 655 419 672 q 558 610 525 638 q 603 545 590 582 q 617 471 617 508 q 612 419 617 454 q 601 346 607 385 q 591 273 596 307 q 586 225 586 239 q 597 191 586 204 q 626 178 608 178 q 643 179 635 178 q 658 183 651 181 q 674 189 665 186 l 697 151 q 647 72 672 108 q 598 15 625 42 q 547 -17 571 -11 q 438 10 478 -17 q 390 85 397 36 l 374 92 q 337 57 357 75 q 296 24 317 39 q 256 -1 275 8 q 219 -11 236 -11 q 140 7 176 -11 q 75 57 103 25 q 31 132 47 89 q 15 225 15 175 q 40 304 15 271 q 104 346 64 338 l 376 396 l 376 397 m 374 294 l 274 272 q 253 263 258 269 q 249 242 249 257 q 263 188 249 210 q 304 167 278 167 q 338 169 319 167 q 372 175 357 172 l 374 294 m 133 732 l 51 807 l 51 829 l 164 989 l 188 994 q 235 987 206 994 q 297 971 265 979 q 358 955 329 963 q 401 947 386 947 q 429 960 414 947 q 460 988 444 972 q 494 1028 476 1004 l 517 1028 l 599 953 l 599 931 l 486 771 l 463 765 q 415 773 444 765 q 353 789 385 781 q 292 805 321 797 q 249 813 264 813 q 219 800 235 813 q 189 772 204 788 q 156 732 172 754 l 133 732 z "},"˜":{"ha":553,"x_min":3,"x_max":550,"o":"m 85 729 l 3 804 l 3 826 l 115 986 l 139 992 q 187 984 157 992 q 249 968 217 976 q 309 952 281 960 q 353 944 338 944 q 381 957 365 944 q 411 985 396 969 q 446 1025 428 1001 l 468 1025 l 550 950 l 550 928 l 438 768 l 414 763 q 366 770 396 763 q 304 786 336 778 q 244 802 272 794 q 200 810 215 810 q 171 797 186 810 q 140 769 156 785 q 107 729 124 751 l 85 729 z "},"b":{"ha":722,"x_min":-42,"x_max":703,"o":"m 67 785 q 53 851 67 835 q 0 867 40 867 l -35 867 l -42 876 l -31 981 q 97 997 32 988 q 217 1014 163 1007 q 342 1031 281 1022 l 354 994 q 327 875 338 979 q 311 583 317 771 q 395 641 358 617 q 443 665 432 665 q 635 583 568 665 q 703 349 703 500 q 678 199 703 265 q 607 87 653 133 q 495 15 561 40 q 347 -10 429 -10 q 251 -6 299 -10 q 165 3 203 -3 q 81 17 121 8 l 67 35 l 67 785 m 306 160 q 325 153 315 156 q 344 149 333 150 q 369 147 356 147 q 442 292 442 147 q 422 442 442 394 q 358 490 401 490 q 325 485 338 490 q 308 478 313 481 l 306 160 z "},"c":{"ha":611,"x_min":19,"x_max":576,"o":"m 544 203 l 575 99 q 497 40 538 65 q 422 1 463 18 q 343 -17 381 -17 q 104 72 189 -17 q 19 319 19 160 q 44 465 19 400 q 117 576 69 531 q 230 647 164 622 q 378 672 296 672 q 458 667 422 672 q 519 657 494 663 q 569 642 549 650 l 576 626 q 564 553 569 592 q 553 476 558 519 q 544 385 547 432 l 417 378 l 417 428 q 404 490 417 472 q 361 508 392 508 q 282 379 282 508 q 309 223 282 272 q 394 174 336 174 q 447 179 422 174 q 490 192 471 185 q 531 210 513 199 l 544 203 z "},"ć":{"ha":611,"x_min":19,"x_max":610,"o":"m 544 203 l 575 99 q 497 40 538 65 q 422 1 463 18 q 343 -17 381 -17 q 104 72 189 -17 q 19 319 19 160 q 44 465 19 400 q 117 576 69 531 q 230 647 164 622 q 378 672 296 672 q 458 667 422 672 q 519 657 494 663 q 569 642 549 650 l 576 626 q 564 553 569 592 q 553 476 558 519 q 544 385 547 432 l 417 378 l 417 428 q 404 490 417 472 q 361 508 392 508 q 282 379 282 508 q 309 223 282 272 q 394 174 336 174 q 447 179 422 174 q 490 192 471 185 q 531 210 513 199 l 544 203 m 607 892 q 514 842 563 868 q 419 790 472 818 q 314 729 367 761 l 283 739 l 226 824 q 322 907 275 865 q 406 982 369 949 q 486 1056 449 1021 l 510 1056 l 610 915 l 607 892 z "},"č":{"ha":611,"x_min":19,"x_max":614,"o":"m 544 203 l 575 99 q 497 40 538 65 q 422 1 463 18 q 343 -17 381 -17 q 104 72 189 -17 q 19 319 19 160 q 44 465 19 400 q 117 576 69 531 q 230 647 164 622 q 378 672 296 672 q 458 667 422 672 q 519 657 494 663 q 569 642 549 650 l 576 626 q 564 553 569 592 q 553 476 558 519 q 544 385 547 432 l 417 378 l 417 428 q 404 490 417 472 q 361 508 392 508 q 282 379 282 508 q 309 223 282 272 q 394 174 336 174 q 447 179 422 174 q 490 192 471 185 q 531 210 513 199 l 544 203 m 176 1018 l 208 1028 q 292 974 249 1000 q 364 932 336 947 q 435 974 392 947 q 518 1028 478 1000 l 550 1018 l 614 932 q 531 858 572 896 q 457 788 490 819 q 382 715 418 751 l 344 715 q 269 788 308 751 q 195 858 236 819 q 114 932 154 896 l 176 1018 z "},"ˇ":{"ha":553,"x_min":25,"x_max":525,"o":"m 88 1018 l 119 1028 q 203 974 160 1000 q 275 932 247 947 q 346 974 303 947 q 429 1028 389 1000 l 461 1018 l 525 932 q 442 858 483 896 q 368 788 401 819 q 293 715 329 751 l 256 715 q 181 788 219 751 q 106 858 147 819 q 25 932 65 896 l 88 1018 z "},"ç":{"ha":611,"x_min":19,"x_max":576,"o":"m 297 -14 q 92 85 164 -1 q 19 319 19 172 q 44 465 19 400 q 117 576 69 531 q 230 647 164 622 q 378 672 296 672 q 458 667 422 672 q 519 657 494 663 q 569 642 549 650 l 576 626 q 564 553 569 592 q 553 476 558 519 q 544 385 547 432 l 417 378 l 417 428 q 404 490 417 472 q 361 508 392 508 q 282 379 282 508 q 309 223 282 272 q 394 174 336 174 q 447 179 422 174 q 490 192 471 185 q 531 210 513 199 l 544 203 l 575 99 q 514 53 546 75 q 453 15 486 33 q 385 -11 419 -3 l 376 -53 q 424 -79 399 -64 q 473 -113 450 -94 q 511 -153 496 -132 q 526 -199 526 -175 q 510 -253 526 -228 q 467 -297 494 -278 q 401 -326 439 -315 q 321 -336 364 -336 q 278 -331 300 -336 q 240 -317 257 -326 q 210 -294 222 -308 q 199 -264 199 -281 q 206 -243 199 -256 q 222 -217 213 -231 q 244 -191 232 -204 q 267 -167 256 -178 l 279 -167 q 299 -225 281 -206 q 347 -244 318 -244 q 392 -212 392 -244 q 381 -189 392 -201 q 351 -165 369 -176 q 313 -142 333 -153 q 271 -121 292 -131 l 297 -14 z "},"ċ":{"ha":611,"x_min":19,"x_max":576,"o":"m 544 203 l 575 99 q 497 40 538 65 q 422 1 463 18 q 343 -17 381 -17 q 104 72 189 -17 q 19 319 19 160 q 44 465 19 400 q 117 576 69 531 q 230 647 164 622 q 378 672 296 672 q 458 667 422 672 q 519 657 494 663 q 569 642 549 650 l 576 626 q 564 553 569 592 q 553 476 558 519 q 544 385 547 432 l 417 378 l 417 428 q 404 490 417 472 q 361 508 392 508 q 282 379 282 508 q 309 223 282 272 q 394 174 336 174 q 447 179 422 174 q 490 192 471 185 q 531 210 513 199 l 544 203 m 358 754 q 261 788 294 754 q 228 886 228 822 q 265 992 228 953 q 369 1031 303 1031 q 465 996 432 1031 q 499 899 499 961 q 461 793 499 832 q 358 754 424 754 z "},"˙":{"ha":553,"x_min":140,"x_max":411,"o":"m 271 754 q 174 788 207 754 q 140 886 140 822 q 178 992 140 953 q 282 1031 215 1031 q 378 996 344 1031 q 411 899 411 961 q 374 793 411 832 q 271 754 336 754 z "},"d":{"ha":744,"x_min":19,"x_max":751,"o":"m 426 88 q 328 15 365 40 q 279 -10 290 -10 q 87 73 154 -10 q 19 307 19 156 q 44 456 19 390 q 115 569 69 522 q 227 640 161 615 q 375 665 293 665 q 400 665 390 665 q 417 664 410 665 l 417 779 q 403 845 417 829 q 350 861 390 861 q 341 860 346 861 q 331 860 336 860 q 318 858 325 858 l 331 979 q 459 995 396 986 q 574 1013 522 1004 q 688 1031 633 1021 l 704 1000 q 684 921 693 985 q 669 755 675 857 q 659 518 663 653 q 656 226 656 383 q 664 191 656 204 q 686 178 672 178 q 701 179 693 178 q 715 183 708 181 q 728 189 722 186 l 751 151 q 706 79 731 113 q 654 24 683 51 q 592 -17 625 -4 q 435 85 450 -17 l 426 88 m 417 494 q 397 501 407 497 q 377 506 389 504 q 353 508 365 508 q 281 364 281 508 q 301 213 281 261 q 364 165 321 165 q 403 172 389 165 q 417 179 410 175 l 417 494 z "},"ď":{"ha":928,"x_min":19,"x_max":935,"o":"m 426 88 q 328 15 365 40 q 279 -10 290 -10 q 87 73 154 -10 q 19 307 19 156 q 44 456 19 390 q 115 569 69 522 q 227 640 161 615 q 375 665 293 665 q 400 665 390 665 q 417 664 410 665 l 417 779 q 403 845 417 829 q 350 861 390 861 q 341 860 346 861 q 331 860 336 860 q 318 858 325 858 l 331 979 q 459 995 396 986 q 574 1013 522 1004 q 688 1031 633 1021 l 704 1000 q 684 921 693 985 q 669 755 675 857 q 659 518 663 653 q 656 226 656 383 q 664 191 656 204 q 686 178 672 178 q 701 179 693 178 q 715 183 708 181 q 728 189 722 186 l 751 151 q 706 79 731 113 q 654 24 683 51 q 592 -17 625 -4 q 435 85 450 -17 l 426 88 m 417 494 q 397 501 407 497 q 377 506 389 504 q 353 508 365 508 q 281 364 281 508 q 301 213 281 261 q 364 165 321 165 q 403 172 389 165 q 417 179 410 175 l 417 494 m 935 946 q 919 850 928 900 q 901 752 913 807 q 876 639 890 697 l 775 604 l 749 613 q 748 734 750 675 q 743 840 746 793 q 736 943 739 894 l 922 963 l 935 946 z "},"ı":{"ha":424,"x_min":8,"x_max":415,"o":"m 26 110 q 106 192 106 115 l 106 429 q 92 494 106 478 q 39 510 79 510 q 21 507 35 510 q 8 506 15 506 l 19 621 q 142 637 82 628 q 251 654 203 646 q 360 672 307 663 l 378 642 q 344 158 344 579 q 352 126 344 135 q 379 117 360 117 q 389 117 383 117 q 400 118 394 117 q 411 119 406 118 l 415 113 l 399 -6 q 329 -3 364 -4 q 267 -1 300 -1 q 211 0 235 0 q 144 -2 179 0 q 79 -7 110 -4 q 10 -14 43 -11 l 26 110 z "},"e":{"ha":665,"x_min":19,"x_max":638,"o":"m 390 403 q 404 408 401 404 q 407 428 407 413 q 351 518 407 518 q 292 490 310 518 q 275 394 275 461 l 390 403 m 282 289 l 282 286 q 325 192 292 219 q 419 165 358 165 q 482 172 453 165 q 535 185 511 178 q 583 206 560 193 l 596 199 l 626 96 q 539 39 585 64 q 452 1 500 18 q 360 -17 404 -17 q 108 70 196 -17 q 19 319 19 157 q 44 465 19 400 q 116 576 69 531 q 228 647 163 622 q 374 672 293 672 q 638 394 638 672 q 636 360 638 376 q 632 332 635 344 q 626 303 629 317 l 611 289 l 282 289 z "},"é":{"ha":665,"x_min":19,"x_max":638,"o":"m 390 403 q 404 408 401 404 q 407 428 407 413 q 351 518 407 518 q 292 490 310 518 q 275 394 275 461 l 390 403 m 282 289 l 282 286 q 325 192 292 219 q 419 165 358 165 q 482 172 453 165 q 535 185 511 178 q 583 206 560 193 l 596 199 l 626 96 q 539 39 585 64 q 452 1 500 18 q 360 -17 404 -17 q 108 70 196 -17 q 19 319 19 157 q 44 465 19 400 q 116 576 69 531 q 228 647 163 622 q 374 672 293 672 q 638 394 638 672 q 636 360 638 376 q 632 332 635 344 q 626 303 629 317 l 611 289 l 282 289 m 600 892 q 507 842 556 868 q 413 790 465 818 q 307 729 360 761 l 276 739 l 219 824 q 315 907 268 865 q 399 982 363 949 q 479 1056 442 1021 l 503 1056 l 603 915 l 600 892 z "},"ě":{"ha":665,"x_min":19,"x_max":638,"o":"m 390 403 q 404 408 401 404 q 407 428 407 413 q 351 518 407 518 q 292 490 310 518 q 275 394 275 461 l 390 403 m 282 289 l 282 286 q 325 192 292 219 q 419 165 358 165 q 482 172 453 165 q 535 185 511 178 q 583 206 560 193 l 596 199 l 626 96 q 539 39 585 64 q 452 1 500 18 q 360 -17 404 -17 q 108 70 196 -17 q 19 319 19 157 q 44 465 19 400 q 116 576 69 531 q 228 647 163 622 q 374 672 293 672 q 638 394 638 672 q 636 360 638 376 q 632 332 635 344 q 626 303 629 317 l 611 289 l 282 289 m 169 1018 l 201 1028 q 285 974 242 1000 q 357 932 329 947 q 428 974 385 947 q 511 1028 471 1000 l 543 1018 l 607 932 q 524 858 565 896 q 450 788 483 819 q 375 715 411 751 l 338 715 q 263 788 301 751 q 188 858 229 819 q 107 932 147 896 l 169 1018 z "},"ê":{"ha":665,"x_min":19,"x_max":638,"o":"m 390 403 q 404 408 401 404 q 407 428 407 413 q 351 518 407 518 q 292 490 310 518 q 275 394 275 461 l 390 403 m 282 289 l 282 286 q 325 192 292 219 q 419 165 358 165 q 482 172 453 165 q 535 185 511 178 q 583 206 560 193 l 596 199 l 626 96 q 539 39 585 64 q 452 1 500 18 q 360 -17 404 -17 q 108 70 196 -17 q 19 319 19 157 q 44 465 19 400 q 116 576 69 531 q 228 647 163 622 q 374 672 293 672 q 638 394 638 672 q 636 360 638 376 q 632 332 635 344 q 626 303 629 317 l 611 289 l 282 289 m 111 839 q 193 913 151 875 q 268 983 235 951 q 343 1056 307 1019 l 381 1056 q 456 983 417 1019 q 530 913 489 951 q 611 839 571 875 l 549 753 l 517 743 q 433 797 476 771 q 361 839 389 824 q 290 797 333 824 q 207 743 247 771 l 175 753 l 111 839 z "},"ë":{"ha":665,"x_min":19,"x_max":638,"o":"m 390 403 q 404 408 401 404 q 407 428 407 413 q 351 518 407 518 q 292 490 310 518 q 275 394 275 461 l 390 403 m 282 289 l 282 286 q 325 192 292 219 q 419 165 358 165 q 482 172 453 165 q 535 185 511 178 q 583 206 560 193 l 596 199 l 626 96 q 539 39 585 64 q 452 1 500 18 q 360 -17 404 -17 q 108 70 196 -17 q 19 319 19 157 q 44 465 19 400 q 116 576 69 531 q 228 647 163 622 q 374 672 293 672 q 638 394 638 672 q 636 360 638 376 q 632 332 635 344 q 626 303 629 317 l 611 289 l 282 289 m 488 776 q 376 888 376 776 q 408 976 376 943 q 496 1008 440 1008 q 577 979 549 1008 q 606 897 606 950 q 574 809 606 842 q 488 776 542 776 m 219 776 q 110 888 110 776 q 142 976 110 943 q 229 1008 174 1008 q 310 979 282 1008 q 339 897 339 950 q 307 809 339 842 q 219 776 275 776 z "},"ė":{"ha":665,"x_min":19,"x_max":638,"o":"m 390 403 q 404 408 401 404 q 407 428 407 413 q 351 518 407 518 q 292 490 310 518 q 275 394 275 461 l 390 403 m 282 289 l 282 286 q 325 192 292 219 q 419 165 358 165 q 482 172 453 165 q 535 185 511 178 q 583 206 560 193 l 596 199 l 626 96 q 539 39 585 64 q 452 1 500 18 q 360 -17 404 -17 q 108 70 196 -17 q 19 319 19 157 q 44 465 19 400 q 116 576 69 531 q 228 647 163 622 q 374 672 293 672 q 638 394 638 672 q 636 360 638 376 q 632 332 635 344 q 626 303 629 317 l 611 289 l 282 289 m 351 754 q 254 788 288 754 q 221 886 221 822 q 258 992 221 953 q 363 1031 296 1031 q 458 996 425 1031 q 492 899 492 961 q 454 793 492 832 q 351 754 417 754 z "},"è":{"ha":665,"x_min":19,"x_max":638,"o":"m 390 403 q 404 408 401 404 q 407 428 407 413 q 351 518 407 518 q 292 490 310 518 q 275 394 275 461 l 390 403 m 282 289 l 282 286 q 325 192 292 219 q 419 165 358 165 q 482 172 453 165 q 535 185 511 178 q 583 206 560 193 l 596 199 l 626 96 q 539 39 585 64 q 452 1 500 18 q 360 -17 404 -17 q 108 70 196 -17 q 19 319 19 157 q 44 465 19 400 q 116 576 69 531 q 228 647 163 622 q 374 672 293 672 q 638 394 638 672 q 636 360 638 376 q 632 332 635 344 q 626 303 629 317 l 611 289 l 282 289 m 154 915 l 254 1056 l 278 1056 q 358 982 315 1021 q 442 907 394 949 q 538 824 489 865 l 481 739 l 450 729 q 344 790 396 761 q 250 842 292 818 q 157 892 201 868 l 154 915 z "},"ē":{"ha":665,"x_min":19,"x_max":638,"o":"m 390 403 q 404 408 401 404 q 407 428 407 413 q 351 518 407 518 q 292 490 310 518 q 275 394 275 461 l 390 403 m 282 289 l 282 286 q 325 192 292 219 q 419 165 358 165 q 482 172 453 165 q 535 185 511 178 q 583 206 560 193 l 596 199 l 626 96 q 539 39 585 64 q 452 1 500 18 q 360 -17 404 -17 q 108 70 196 -17 q 19 319 19 157 q 44 465 19 400 q 116 576 69 531 q 228 647 163 622 q 374 672 293 672 q 638 394 638 672 q 636 360 638 376 q 632 332 635 344 q 626 303 629 317 l 611 289 l 282 289 m 575 938 l 550 786 l 356 785 q 292 784 324 785 q 232 783 260 783 l 169 783 l 147 804 l 174 956 q 250 954 213 954 l 388 954 q 444 955 414 954 q 500 958 474 956 q 560 963 531 960 l 575 938 z "},"ŋ":{"ha":785,"x_min":11,"x_max":740,"o":"m 510 672 q 681 626 622 672 q 740 492 740 581 l 711 124 q 683 -8 704 49 q 624 -106 663 -64 q 524 -176 585 -147 q 379 -228 464 -206 l 324 -161 l 326 -140 q 403 -78 374 -107 q 450 -13 433 -49 q 474 68 467 22 q 482 181 481 114 l 482 376 q 470 450 483 429 q 422 471 457 471 q 360 442 397 471 q 352 317 356 368 q 347 235 349 267 q 344 186 344 203 q 343 164 343 169 q 350 128 343 138 q 376 119 357 119 l 389 119 q 399 121 393 119 l 403 114 l 386 -6 q 324 -3 354 -4 q 268 -1 297 -1 q 217 0 239 0 q 149 -1 183 0 q 85 -4 114 -3 q 19 -7 50 -6 l 36 114 q 92 131 76 117 q 107 186 107 146 l 107 426 q 94 491 107 475 q 40 507 81 507 l 18 507 l 11 517 l 22 621 q 141 638 83 629 q 246 654 199 647 q 350 672 300 663 l 367 656 q 360 622 364 639 q 354 590 357 607 q 350 554 351 572 l 360 549 q 453 640 414 608 q 510 672 492 672 z "},"ę":{"ha":665,"x_min":19,"x_max":651,"o":"m 651 -236 q 604 -276 629 -258 q 558 -309 583 -293 q 507 -335 532 -325 q 376 -302 424 -335 q 328 -211 328 -269 q 353 -119 328 -167 q 440 -3 379 -71 q 399 -13 419 -10 q 360 -17 379 -17 q 108 70 196 -17 q 19 319 19 157 q 44 465 19 400 q 116 576 69 531 q 228 647 163 622 q 374 672 293 672 q 638 394 638 672 q 636 360 638 376 q 632 332 635 344 q 626 303 629 317 l 611 289 l 282 289 l 282 286 q 325 192 292 219 q 419 165 358 165 q 482 172 453 165 q 535 185 511 178 q 583 206 560 193 l 596 199 l 626 96 q 551 -3 581 38 q 502 -72 521 -43 q 476 -122 483 -101 q 468 -160 468 -142 q 483 -201 468 -186 q 525 -217 499 -217 q 556 -212 540 -217 q 586 -200 572 -207 q 617 -182 601 -193 l 651 -236 m 390 403 q 404 408 401 404 q 407 428 407 413 q 351 518 407 518 q 292 490 310 518 q 275 394 275 461 l 390 403 z "},"ð":{"ha":706,"x_min":18,"x_max":688,"o":"m 531 1025 l 574 896 l 447 832 q 626 609 564 729 q 688 358 688 489 q 596 83 688 182 q 340 -17 504 -17 q 101 65 185 -17 q 18 297 18 146 q 37 441 18 375 q 90 555 56 507 q 170 630 124 603 q 272 657 217 657 l 328 626 l 333 639 q 254 732 303 685 l 81 643 l 67 646 l 24 776 l 133 833 q 83 869 110 851 q 26 907 56 888 l 97 1019 l 119 1031 q 318 928 226 985 l 518 1031 l 531 1025 m 418 281 q 401 471 418 388 q 380 481 392 478 q 351 485 368 485 q 316 479 329 485 q 295 456 303 474 q 285 406 288 439 q 283 319 283 374 q 287 229 283 265 q 300 172 290 193 q 324 141 310 150 q 363 132 339 132 q 406 165 394 132 q 418 281 418 197 z "},"f":{"ha":493,"x_min":8,"x_max":661,"o":"m 8 517 l 19 614 l 107 626 l 107 646 q 134 805 107 733 q 211 926 161 876 q 331 1003 261 976 q 489 1031 401 1031 q 555 1026 525 1031 q 607 1014 585 1021 q 651 999 632 1007 l 661 967 q 644 918 653 943 q 628 867 638 896 q 607 807 618 839 l 588 801 q 551 828 572 815 q 509 847 533 839 q 457 856 485 856 q 404 848 425 856 q 372 822 383 840 q 355 769 360 803 q 350 685 350 736 l 350 626 q 417 626 388 626 q 468 628 447 626 q 513 631 493 629 l 519 621 l 504 503 q 464 504 488 503 q 415 506 444 506 q 349 507 385 506 l 347 179 q 390 128 347 128 q 418 128 403 128 q 446 129 433 128 q 476 131 461 129 l 483 124 l 467 -7 q 375 -4 419 -6 q 299 -1 338 -3 q 235 0 260 0 q 167 -1 204 0 q 97 -6 131 -3 q 19 -11 58 -8 l 32 110 q 90 131 74 114 q 107 186 107 147 l 107 453 q 86 495 104 485 q 14 508 68 506 l 8 517 z "},"g":{"ha":722,"x_min":33,"x_max":728,"o":"m 346 172 q 254 181 296 172 q 240 149 240 165 q 340 113 240 113 q 519 101 447 111 q 636 71 592 92 q 699 17 681 50 q 718 -65 718 -17 q 685 -167 718 -118 q 597 -253 651 -215 q 471 -313 542 -290 q 324 -336 400 -336 q 206 -321 258 -336 q 114 -278 153 -306 q 54 -212 75 -251 q 33 -128 33 -174 q 69 -105 46 -118 q 115 -81 92 -92 q 174 -53 142 -67 l 174 -43 q 71 7 107 -32 q 35 104 35 46 q 70 138 50 121 q 108 171 90 156 q 151 204 129 188 l 151 218 q 44 414 44 281 q 131 605 44 535 q 367 675 218 675 q 448 669 415 675 q 517 663 481 663 q 576 672 542 664 q 642 690 610 681 q 717 715 678 701 l 728 707 l 708 567 q 683 564 697 565 q 657 563 672 563 q 625 563 642 563 l 619 554 q 674 421 674 499 q 650 319 674 365 q 583 241 626 274 q 480 190 540 208 q 346 172 419 172 m 363 301 q 411 329 396 301 q 426 419 426 357 q 409 506 426 479 q 351 533 392 533 q 294 414 294 533 q 363 301 294 303 m 372 -192 q 451 -174 419 -192 q 483 -131 483 -157 q 479 -112 483 -119 q 457 -99 475 -106 q 400 -87 439 -93 q 293 -69 361 -81 q 286 -86 289 -76 q 279 -128 279 -104 q 306 -174 279 -156 q 372 -192 332 -192 z "},"ğ":{"ha":722,"x_min":33,"x_max":728,"o":"m 346 172 q 254 181 296 172 q 240 149 240 165 q 340 113 240 113 q 519 101 447 111 q 636 71 592 92 q 699 17 681 50 q 718 -65 718 -17 q 685 -167 718 -118 q 597 -253 651 -215 q 471 -313 542 -290 q 324 -336 400 -336 q 206 -321 258 -336 q 114 -278 153 -306 q 54 -212 75 -251 q 33 -128 33 -174 q 69 -105 46 -118 q 115 -81 92 -92 q 174 -53 142 -67 l 174 -43 q 71 7 107 -32 q 35 104 35 46 q 70 138 50 121 q 108 171 90 156 q 151 204 129 188 l 151 218 q 44 414 44 281 q 131 605 44 535 q 367 675 218 675 q 448 669 415 675 q 517 663 481 663 q 576 672 542 664 q 642 690 610 681 q 717 715 678 701 l 728 707 l 708 567 q 683 564 697 565 q 657 563 672 563 q 625 563 642 563 l 619 554 q 674 421 674 499 q 650 319 674 365 q 583 241 626 274 q 480 190 540 208 q 346 172 419 172 m 363 301 q 411 329 396 301 q 426 419 426 357 q 409 506 426 479 q 351 533 392 533 q 294 414 294 533 q 363 301 294 303 m 372 -192 q 451 -174 419 -192 q 483 -131 483 -157 q 479 -112 483 -119 q 457 -99 475 -106 q 400 -87 439 -93 q 293 -69 361 -81 q 286 -86 289 -76 q 279 -128 279 -104 q 306 -174 279 -156 q 372 -192 332 -192 m 368 931 q 460 955 419 931 q 522 1028 501 979 l 560 1018 l 615 932 q 584 863 604 896 q 534 802 564 829 q 463 759 504 775 q 368 743 421 743 q 274 759 315 743 q 202 802 232 775 q 152 863 172 829 q 121 932 132 896 l 176 1018 l 214 1028 q 276 955 235 979 q 368 931 317 931 z "},"ġ":{"ha":722,"x_min":33,"x_max":728,"o":"m 346 172 q 254 181 296 172 q 240 149 240 165 q 340 113 240 113 q 519 101 447 111 q 636 71 592 92 q 699 17 681 50 q 718 -65 718 -17 q 685 -167 718 -118 q 597 -253 651 -215 q 471 -313 542 -290 q 324 -336 400 -336 q 206 -321 258 -336 q 114 -278 153 -306 q 54 -212 75 -251 q 33 -128 33 -174 q 69 -105 46 -118 q 115 -81 92 -92 q 174 -53 142 -67 l 174 -43 q 71 7 107 -32 q 35 104 35 46 q 70 138 50 121 q 108 171 90 156 q 151 204 129 188 l 151 218 q 44 414 44 281 q 131 605 44 535 q 367 675 218 675 q 448 669 415 675 q 517 663 481 663 q 576 672 542 664 q 642 690 610 681 q 717 715 678 701 l 728 707 l 708 567 q 683 564 697 565 q 657 563 672 563 q 625 563 642 563 l 619 554 q 674 421 674 499 q 650 319 674 365 q 583 241 626 274 q 480 190 540 208 q 346 172 419 172 m 363 301 q 411 329 396 301 q 426 419 426 357 q 409 506 426 479 q 351 533 392 533 q 294 414 294 533 q 363 301 294 303 m 372 -192 q 451 -174 419 -192 q 483 -131 483 -157 q 479 -112 483 -119 q 457 -99 475 -106 q 400 -87 439 -93 q 293 -69 361 -81 q 286 -86 289 -76 q 279 -128 279 -104 q 306 -174 279 -156 q 372 -192 332 -192 m 364 754 q 267 788 300 754 q 233 886 233 822 q 271 992 233 953 q 375 1031 308 1031 q 471 996 438 1031 q 504 899 504 961 q 467 793 504 832 q 364 754 429 754 z "},"ß":{"ha":961,"x_min":8,"x_max":961,"o":"m 440 74 q 448 121 442 94 q 464 174 454 147 q 485 224 474 200 q 508 264 496 247 l 546 261 q 580 180 551 213 q 647 147 608 147 q 704 200 704 147 q 683 244 704 226 q 632 277 663 261 q 565 310 601 293 q 499 351 529 326 q 447 410 468 375 q 426 497 426 444 q 447 576 426 543 q 493 639 468 610 q 539 696 518 668 q 560 760 560 724 q 531 828 560 801 q 460 856 503 856 q 406 848 426 856 q 372 821 385 840 q 355 769 360 801 q 350 685 350 736 l 347 179 q 385 128 347 128 q 411 129 404 128 q 421 131 417 129 l 428 124 l 411 -7 q 344 -4 376 -6 q 287 -1 317 -3 q 235 0 257 0 q 179 -1 215 0 q 108 -5 143 -3 q 46 -8 72 -7 q 19 -11 19 -10 l 32 110 q 90 131 74 114 q 107 186 107 147 l 107 453 q 87 494 104 483 q 14 508 69 506 l 8 517 l 19 614 l 107 626 q 133 796 107 721 q 208 923 160 871 q 328 1003 257 975 q 489 1031 399 1031 q 720 972 638 1031 q 803 806 803 913 q 782 728 803 761 q 736 666 761 694 q 690 611 711 638 q 669 554 669 585 q 691 508 669 526 q 745 473 713 490 q 815 438 778 456 q 885 392 853 419 q 940 326 918 365 q 961 229 961 286 q 938 130 961 175 q 874 52 915 85 q 776 1 833 19 q 651 -17 719 -17 q 580 -10 614 -17 q 517 9 546 -3 q 469 38 489 21 q 440 74 449 54 z "},"h":{"ha":769,"x_min":-31,"x_max":753,"o":"m 19 113 q 66 132 54 117 q 78 185 78 147 l 78 785 q 65 851 78 835 q 11 867 51 867 l -24 867 l -31 876 l -19 981 q 108 997 43 988 q 228 1014 174 1007 q 353 1031 292 1022 l 365 994 q 336 863 347 978 q 319 540 325 749 q 363 585 340 563 q 408 628 386 608 q 449 660 431 647 q 478 672 467 672 q 649 626 590 672 q 708 492 708 581 q 703 422 708 468 q 693 326 699 376 q 683 232 688 276 q 678 167 678 188 q 686 126 678 138 q 715 115 694 115 l 738 115 q 750 117 743 115 l 753 111 l 738 -6 q 668 -3 701 -4 q 608 -1 639 -1 q 557 0 578 0 q 509 -1 538 0 q 453 -3 481 -1 q 388 -4 421 -4 l 399 117 q 435 134 424 119 q 447 181 446 149 l 450 376 q 438 450 451 429 q 390 471 425 471 q 353 458 372 471 q 318 435 333 446 q 317 304 317 372 q 317 161 317 236 q 324 126 317 136 q 349 117 331 117 l 361 117 q 368 118 365 117 l 372 108 l 357 -6 q 292 -3 324 -4 q 233 -1 264 -1 q 179 0 203 0 q 117 -1 149 0 q 61 -4 86 -3 q 4 -7 32 -6 l 19 113 z "},"ħ":{"ha":775,"x_min":-49,"x_max":758,"o":"m 25 113 q 72 132 60 117 q 83 185 83 147 l 83 707 q 38 706 60 706 q 1 706 17 706 l -33 706 l -49 719 l -37 800 q -1 799 -21 799 l 83 799 q 67 853 81 839 q 17 867 54 867 l -18 867 l -25 876 l -14 981 q 114 997 49 988 q 233 1014 179 1007 q 358 1031 297 1022 l 371 994 q 351 935 360 983 q 336 800 343 886 q 374 801 356 800 q 406 803 392 801 q 435 804 421 804 l 456 783 l 449 707 l 331 707 q 327 628 328 669 q 325 540 326 586 q 369 585 346 563 q 414 628 392 608 q 454 660 436 647 q 483 672 472 672 q 655 626 596 672 q 714 492 714 581 q 709 422 714 468 q 699 326 704 376 q 688 232 693 276 q 683 167 683 188 q 692 126 683 138 q 721 115 700 115 l 743 115 q 756 117 749 115 l 758 111 l 743 -6 q 674 -3 707 -4 q 614 -1 644 -1 q 563 0 583 0 q 515 -1 543 0 q 458 -3 486 -1 q 393 -4 426 -4 l 404 117 q 440 134 429 119 q 453 181 451 149 l 456 376 q 444 450 457 429 q 396 471 431 471 q 358 458 378 471 q 324 435 339 446 q 322 304 322 372 q 322 161 322 236 q 329 126 322 136 q 354 117 336 117 l 367 117 q 374 118 371 117 l 378 108 l 363 -6 q 297 -3 329 -4 q 239 -1 269 -1 q 185 0 208 0 q 123 -1 154 0 q 67 -4 92 -3 q 10 -7 38 -6 l 25 113 z "},"i":{"ha":424,"x_min":8,"x_max":415,"o":"m 229 754 q 132 788 165 754 q 99 886 99 822 q 136 992 99 953 q 240 1031 174 1031 q 336 996 303 1031 q 369 899 369 961 q 332 793 369 832 q 229 754 294 754 m 26 110 q 106 192 106 115 l 106 429 q 92 494 106 478 q 39 510 79 510 q 21 507 35 510 q 8 506 15 506 l 19 621 q 142 637 82 628 q 251 654 203 646 q 360 672 307 663 l 378 642 q 344 158 344 579 q 352 126 344 135 q 379 117 360 117 q 389 117 383 117 q 400 118 394 117 q 411 119 406 118 l 415 113 l 399 -6 q 329 -3 364 -4 q 267 -1 300 -1 q 211 0 235 0 q 144 -2 179 0 q 79 -7 110 -4 q 10 -14 43 -11 l 26 110 z "},"ĳ":{"ha":842,"x_min":8,"x_max":800,"o":"m 229 754 q 132 788 165 754 q 99 886 99 822 q 136 992 99 953 q 240 1031 174 1031 q 336 996 303 1031 q 369 899 369 961 q 332 793 369 832 q 229 754 294 754 m 26 110 q 106 192 106 115 l 106 429 q 92 494 106 478 q 39 510 79 510 q 21 507 35 510 q 8 506 15 506 l 19 621 q 142 637 82 628 q 251 654 203 646 q 360 672 307 663 l 378 642 q 344 158 344 579 q 352 126 344 135 q 379 117 360 117 q 389 117 383 117 q 400 118 394 117 q 411 119 406 118 l 415 113 l 399 -6 q 329 -3 364 -4 q 267 -1 300 -1 q 211 0 235 0 q 144 -2 179 0 q 79 -7 110 -4 q 10 -14 43 -11 l 26 110 m 421 -285 l 424 -264 q 473 -206 453 -235 q 504 -142 493 -178 q 520 -62 515 -107 q 525 46 525 -17 l 525 429 q 515 492 525 475 q 479 510 506 510 q 463 509 471 510 q 449 507 456 508 q 435 506 442 506 l 446 618 q 558 635 499 625 q 668 653 618 644 q 782 672 726 663 l 800 642 q 763 -19 763 556 q 743 -115 763 -68 q 688 -203 724 -161 q 600 -282 651 -246 q 486 -344 549 -318 l 421 -285 m 649 754 q 551 788 585 754 q 518 886 518 822 q 556 992 518 953 q 660 1031 593 1031 q 756 996 722 1031 q 789 899 789 961 q 751 793 789 832 q 649 754 714 754 z "},"j":{"ha":418,"x_min":-3,"x_max":376,"o":"m -3 -285 l 0 -264 q 49 -206 29 -235 q 81 -142 69 -178 q 97 -62 92 -107 q 101 46 101 -17 l 101 429 q 92 492 101 475 q 56 510 82 510 q 40 509 47 510 q 25 507 32 508 q 11 506 18 506 l 22 618 q 135 635 75 625 q 244 653 194 644 q 358 672 303 663 l 376 642 q 339 -19 339 556 q 319 -115 339 -68 q 264 -203 300 -161 q 176 -282 228 -246 q 63 -344 125 -318 l -3 -285 m 225 754 q 128 788 161 754 q 94 886 94 822 q 132 992 94 953 q 236 1031 169 1031 q 332 996 299 1031 q 365 899 365 961 q 328 793 365 832 q 225 754 290 754 z "},"į":{"ha":424,"x_min":8,"x_max":438,"o":"m 26 110 q 106 192 106 115 l 106 429 q 92 494 106 478 q 39 510 79 510 q 21 507 35 510 q 8 506 15 506 l 19 621 q 142 637 82 628 q 251 654 203 646 q 360 672 307 663 l 378 642 q 344 158 344 579 q 352 126 344 135 q 379 117 360 117 q 389 117 383 117 q 400 118 394 117 q 411 119 406 118 l 415 113 l 399 -6 q 378 -4 389 -4 q 356 -4 368 -4 q 329 -3 343 -4 q 292 -54 307 -32 q 269 -93 278 -76 q 258 -123 261 -110 q 254 -149 254 -136 q 269 -190 254 -175 q 311 -206 285 -206 q 342 -201 326 -206 q 372 -189 358 -196 q 403 -171 388 -182 l 438 -225 q 390 -265 415 -247 q 344 -298 369 -282 q 293 -324 318 -314 q 162 -291 210 -324 q 114 -200 114 -258 q 138 -112 114 -157 q 225 0 163 -68 l 211 0 q 144 -2 179 0 q 79 -7 110 -4 q 10 -14 43 -11 l 26 110 m 229 754 q 132 788 165 754 q 99 886 99 822 q 136 992 99 953 q 240 1031 174 1031 q 336 996 303 1031 q 369 899 369 961 q 332 793 369 832 q 229 754 294 754 z "},"k":{"ha":753,"x_min":-31,"x_max":761,"o":"m 19 113 q 66 132 54 117 q 78 185 78 147 l 78 785 q 73 835 78 818 q 53 860 68 853 q 19 866 40 865 q -24 867 -1 867 l -31 876 l -19 981 q 108 997 43 988 q 228 1014 174 1007 q 353 1031 292 1022 l 365 994 q 329 760 342 971 q 317 158 317 549 q 324 124 317 133 q 349 114 331 114 l 361 114 q 371 115 365 114 l 375 106 l 357 -8 q 290 -4 324 -7 q 232 -1 263 -3 q 179 0 201 0 q 117 -1 149 0 q 61 -4 86 -3 q 4 -7 32 -6 l 19 113 m 324 324 l 328 368 l 424 478 q 442 502 438 493 q 447 522 447 511 q 432 544 447 538 q 379 550 417 550 l 375 557 l 388 658 q 453 657 418 657 q 517 656 482 656 q 588 656 553 656 q 646 656 615 656 q 700 657 676 656 q 756 660 728 658 l 760 653 l 746 535 q 644 463 690 507 q 556 375 599 418 l 642 203 q 753 111 678 125 l 761 96 l 749 -7 q 717 -10 733 -8 q 684 -13 701 -11 q 649 -17 667 -15 q 604 -21 625 -19 q 574 -22 583 -22 q 492 6 522 -18 q 435 90 463 29 l 324 324 z "},"ķ":{"ha":753,"x_min":-31,"x_max":761,"o":"m 19 113 q 66 132 54 117 q 78 185 78 147 l 78 785 q 73 835 78 818 q 53 860 68 853 q 19 866 40 865 q -24 867 -1 867 l -31 876 l -19 981 q 108 997 43 988 q 228 1014 174 1007 q 353 1031 292 1022 l 365 994 q 329 760 342 971 q 317 158 317 549 q 324 124 317 133 q 349 114 331 114 l 361 114 q 371 115 365 114 l 375 106 l 357 -8 q 290 -4 324 -7 q 232 -1 263 -3 q 179 0 201 0 q 117 -1 149 0 q 61 -4 86 -3 q 4 -7 32 -6 l 19 113 m 324 324 l 328 368 l 424 478 q 442 502 438 493 q 447 522 447 511 q 432 544 447 538 q 379 550 417 550 l 375 557 l 388 658 q 453 657 418 657 q 517 656 482 656 q 588 656 553 656 q 646 656 615 656 q 700 657 676 656 q 756 660 728 658 l 760 653 l 746 535 q 644 463 690 507 q 556 375 599 418 l 642 203 q 753 111 678 125 l 761 96 l 749 -7 q 717 -10 733 -8 q 684 -13 701 -11 q 649 -17 667 -15 q 604 -21 625 -19 q 574 -22 583 -22 q 492 6 522 -18 q 435 90 463 29 l 324 324 m 257 -108 q 332 -63 294 -79 q 399 -47 369 -47 q 484 -85 451 -47 q 517 -187 517 -124 q 455 -339 517 -261 q 285 -479 393 -417 l 204 -415 l 204 -381 q 269 -311 244 -351 q 293 -233 293 -271 q 282 -176 293 -206 q 253 -128 271 -147 l 257 -108 z "},"l":{"ha":399,"x_min":-31,"x_max":397,"o":"m 19 113 q 66 132 54 117 q 78 185 78 147 l 78 785 q 73 835 78 818 q 53 860 68 853 q 19 866 40 865 q -24 867 -1 867 l -31 876 l -19 981 q 108 997 43 988 q 228 1014 174 1007 q 353 1031 292 1022 l 365 994 q 329 760 342 971 q 317 158 317 549 q 324 124 317 133 q 349 114 331 114 l 374 114 q 393 115 382 114 l 397 106 l 379 -6 q 303 -3 339 -4 q 237 -1 271 -1 q 179 0 203 0 q 117 -1 149 0 q 61 -4 86 -3 q 4 -7 32 -6 l 19 113 z "},"ĺ":{"ha":399,"x_min":-31,"x_max":453,"o":"m 19 113 q 66 132 54 117 q 78 185 78 147 l 78 785 q 73 835 78 818 q 53 860 68 853 q 19 866 40 865 q -24 867 -1 867 l -31 876 l -19 981 q 108 997 43 988 q 228 1014 174 1007 q 353 1031 292 1022 l 365 994 q 329 760 342 971 q 317 158 317 549 q 324 124 317 133 q 349 114 331 114 l 374 114 q 393 115 382 114 l 397 106 l 379 -6 q 303 -3 339 -4 q 237 -1 271 -1 q 179 0 203 0 q 117 -1 149 0 q 61 -4 86 -3 q 4 -7 32 -6 l 19 113 m 450 1236 q 357 1186 406 1213 q 263 1134 315 1163 q 157 1074 210 1106 l 126 1083 l 69 1168 q 165 1251 118 1210 q 249 1326 213 1293 q 329 1400 292 1365 l 353 1400 l 453 1260 l 450 1236 z "},"ľ":{"ha":594,"x_min":-31,"x_max":594,"o":"m 19 113 q 66 132 54 117 q 78 185 78 147 l 78 785 q 73 835 78 818 q 53 860 68 853 q 19 866 40 865 q -24 867 -1 867 l -31 876 l -19 981 q 108 997 43 988 q 228 1014 174 1007 q 353 1031 292 1022 l 365 994 q 329 760 342 971 q 317 158 317 549 q 324 124 317 133 q 349 114 331 114 l 374 114 q 393 115 382 114 l 397 106 l 379 -6 q 303 -3 339 -4 q 237 -1 271 -1 q 179 0 203 0 q 117 -1 149 0 q 61 -4 86 -3 q 4 -7 32 -6 l 19 113 m 594 935 q 579 839 588 889 q 561 741 572 796 q 536 628 550 686 l 435 593 l 408 601 q 408 723 410 664 q 403 829 406 782 q 396 932 399 883 l 582 951 l 594 935 z "},"ļ":{"ha":399,"x_min":-31,"x_max":397,"o":"m 19 113 q 66 132 54 117 q 78 185 78 147 l 78 785 q 73 835 78 818 q 53 860 68 853 q 19 866 40 865 q -24 867 -1 867 l -31 876 l -19 981 q 108 997 43 988 q 228 1014 174 1007 q 353 1031 292 1022 l 365 994 q 329 760 342 971 q 317 158 317 549 q 324 124 317 133 q 349 114 331 114 l 374 114 q 393 115 382 114 l 397 106 l 379 -6 q 303 -3 339 -4 q 237 -1 271 -1 q 179 0 203 0 q 117 -1 149 0 q 61 -4 86 -3 q 4 -7 32 -6 l 19 113 m 61 -108 q 136 -63 99 -79 q 203 -47 174 -47 q 288 -85 256 -47 q 321 -187 321 -124 q 259 -339 321 -261 q 89 -479 197 -417 l 8 -415 l 8 -381 q 73 -311 49 -351 q 97 -233 97 -271 q 86 -176 97 -206 q 57 -128 75 -147 l 61 -108 z "},"ŀ":{"ha":642,"x_min":-31,"x_max":642,"o":"m 19 113 q 66 132 54 117 q 78 185 78 147 l 78 785 q 73 835 78 818 q 53 860 68 853 q 19 866 40 865 q -24 867 -1 867 l -31 876 l -19 981 q 108 997 43 988 q 228 1014 174 1007 q 353 1031 292 1022 l 365 994 q 329 760 342 971 q 317 158 317 549 q 324 124 317 133 q 349 114 331 114 l 374 114 q 393 115 382 114 l 397 106 l 379 -6 q 303 -3 339 -4 q 237 -1 271 -1 q 179 0 203 0 q 117 -1 149 0 q 61 -4 86 -3 q 4 -7 32 -6 l 19 113 m 501 285 q 404 319 438 285 q 371 417 371 353 q 408 522 371 483 q 513 561 446 561 q 608 526 575 561 q 642 429 642 492 q 604 324 642 363 q 501 285 567 285 z "},"ł":{"ha":486,"x_min":-8,"x_max":490,"o":"m 61 113 q 108 132 96 117 q 119 185 119 147 l 119 371 l 49 336 l 35 339 l -8 469 l 119 533 l 119 785 q 115 835 119 818 q 94 860 110 853 q 61 866 82 865 q 18 867 40 867 l 11 876 l 22 981 q 150 997 85 988 q 269 1014 215 1007 q 394 1031 333 1022 l 407 994 q 381 886 392 979 q 364 625 371 793 l 435 661 l 447 656 l 490 526 l 360 461 q 358 317 358 393 q 358 158 358 242 q 365 124 358 133 q 390 114 372 114 l 415 114 q 435 115 424 114 l 439 106 l 421 -6 q 344 -3 381 -4 q 278 -1 313 -1 q 221 0 244 0 q 159 -1 190 0 q 103 -4 128 -3 q 46 -7 74 -6 l 61 113 z "},"m":{"ha":1175,"x_min":11,"x_max":1158,"o":"m 432 117 q 467 134 456 119 q 479 181 478 149 l 482 376 q 470 450 483 429 q 422 471 457 471 q 390 461 407 471 q 358 440 374 451 q 353 356 356 400 q 348 271 350 311 q 344 201 346 231 q 343 164 343 172 q 350 128 343 138 q 376 119 357 119 l 389 119 q 399 121 393 119 l 403 114 l 386 -6 q 324 -3 354 -4 q 268 -1 297 -1 q 217 0 239 0 q 149 -1 183 0 q 85 -4 114 -3 q 19 -7 50 -6 l 36 114 q 92 131 76 117 q 107 186 107 146 l 107 426 q 94 491 107 475 q 40 507 81 507 l 18 507 l 11 517 l 22 621 q 141 638 83 629 q 246 654 199 647 q 350 672 300 663 l 367 656 q 360 622 364 639 q 354 590 357 607 q 350 554 351 572 l 356 550 q 402 593 378 571 q 449 633 426 615 q 488 661 471 650 q 511 672 504 672 q 729 550 694 672 q 776 593 751 571 q 822 633 800 615 q 861 661 844 650 q 885 672 878 672 q 1056 626 997 672 q 1115 492 1115 579 q 1110 422 1115 468 q 1099 326 1106 376 q 1088 232 1093 276 q 1083 167 1083 188 q 1092 126 1083 138 q 1121 115 1100 115 l 1143 115 q 1156 117 1149 115 l 1158 111 l 1143 -6 q 1074 -3 1107 -4 q 1014 -1 1044 -1 q 963 0 983 0 q 915 -1 943 0 q 861 -3 888 -1 q 797 -4 831 -4 l 808 117 q 841 132 832 119 q 853 181 850 144 l 856 376 q 844 450 857 429 q 796 471 831 471 q 764 462 781 471 q 733 442 747 453 l 714 167 q 722 126 714 138 q 749 115 729 115 l 768 115 q 776 117 774 115 l 779 111 l 761 -6 q 696 -3 728 -4 q 639 -1 668 -1 q 589 0 610 0 q 541 -1 569 0 q 485 -3 513 -1 q 419 -4 453 -4 l 432 117 z "},"n":{"ha":804,"x_min":11,"x_max":785,"o":"m 431 117 q 467 134 456 119 q 479 181 478 149 l 482 376 q 470 450 483 429 q 422 471 457 471 q 390 462 407 471 q 360 442 374 453 q 354 356 357 401 q 349 272 351 311 q 344 202 346 232 q 343 164 343 172 q 350 128 343 138 q 376 119 357 119 l 389 119 q 399 121 393 119 l 403 114 l 386 -6 q 324 -3 354 -4 q 268 -1 297 -1 q 217 0 239 0 q 149 -1 183 0 q 85 -4 114 -3 q 19 -7 50 -6 l 36 114 q 92 131 76 117 q 107 186 107 146 l 107 426 q 94 491 107 475 q 40 507 81 507 l 18 507 l 11 517 l 22 621 q 141 638 83 629 q 246 654 199 647 q 350 672 300 663 l 367 656 q 360 622 364 639 q 354 590 357 607 q 350 554 351 572 l 360 549 q 402 592 381 569 q 444 632 424 614 q 482 661 465 650 q 510 672 499 672 q 681 626 622 672 q 740 492 740 581 q 735 422 740 468 q 725 326 731 376 q 715 232 719 276 q 710 167 710 188 q 718 126 710 138 q 747 115 726 115 l 769 115 q 782 117 775 115 l 785 111 l 769 -6 q 700 -3 733 -4 q 640 -1 671 -1 q 589 0 610 0 q 541 -1 569 0 q 485 -3 513 -1 q 419 -4 453 -4 l 431 117 z "},"ń":{"ha":804,"x_min":11,"x_max":785,"o":"m 431 117 q 467 134 456 119 q 479 181 478 149 l 482 376 q 470 450 483 429 q 422 471 457 471 q 390 462 407 471 q 360 442 374 453 q 354 356 357 401 q 349 272 351 311 q 344 202 346 232 q 343 164 343 172 q 350 128 343 138 q 376 119 357 119 l 389 119 q 399 121 393 119 l 403 114 l 386 -6 q 324 -3 354 -4 q 268 -1 297 -1 q 217 0 239 0 q 149 -1 183 0 q 85 -4 114 -3 q 19 -7 50 -6 l 36 114 q 92 131 76 117 q 107 186 107 146 l 107 426 q 94 491 107 475 q 40 507 81 507 l 18 507 l 11 517 l 22 621 q 141 638 83 629 q 246 654 199 647 q 350 672 300 663 l 367 656 q 360 622 364 639 q 354 590 357 607 q 350 554 351 572 l 360 549 q 402 592 381 569 q 444 632 424 614 q 482 661 465 650 q 510 672 499 672 q 681 626 622 672 q 740 492 740 581 q 735 422 740 468 q 725 326 731 376 q 715 232 719 276 q 710 167 710 188 q 718 126 710 138 q 747 115 726 115 l 769 115 q 782 117 775 115 l 785 111 l 769 -6 q 700 -3 733 -4 q 640 -1 671 -1 q 589 0 610 0 q 541 -1 569 0 q 485 -3 513 -1 q 419 -4 453 -4 l 431 117 m 674 892 q 581 842 629 868 q 486 790 539 818 q 381 729 433 761 l 350 739 l 293 824 q 389 907 342 865 q 472 982 436 949 q 553 1056 515 1021 l 576 1056 l 676 915 l 674 892 z "},"ň":{"ha":804,"x_min":11,"x_max":785,"o":"m 431 117 q 467 134 456 119 q 479 181 478 149 l 482 376 q 470 450 483 429 q 422 471 457 471 q 390 462 407 471 q 360 442 374 453 q 354 356 357 401 q 349 272 351 311 q 344 202 346 232 q 343 164 343 172 q 350 128 343 138 q 376 119 357 119 l 389 119 q 399 121 393 119 l 403 114 l 386 -6 q 324 -3 354 -4 q 268 -1 297 -1 q 217 0 239 0 q 149 -1 183 0 q 85 -4 114 -3 q 19 -7 50 -6 l 36 114 q 92 131 76 117 q 107 186 107 146 l 107 426 q 94 491 107 475 q 40 507 81 507 l 18 507 l 11 517 l 22 621 q 141 638 83 629 q 246 654 199 647 q 350 672 300 663 l 367 656 q 360 622 364 639 q 354 590 357 607 q 350 554 351 572 l 360 549 q 402 592 381 569 q 444 632 424 614 q 482 661 465 650 q 510 672 499 672 q 681 626 622 672 q 740 492 740 581 q 735 422 740 468 q 725 326 731 376 q 715 232 719 276 q 710 167 710 188 q 718 126 710 138 q 747 115 726 115 l 769 115 q 782 117 775 115 l 785 111 l 769 -6 q 700 -3 733 -4 q 640 -1 671 -1 q 589 0 610 0 q 541 -1 569 0 q 485 -3 513 -1 q 419 -4 453 -4 l 431 117 m 243 1018 l 275 1028 q 359 974 315 1000 q 431 932 403 947 q 501 974 458 947 q 585 1028 544 1000 l 617 1018 l 681 932 q 598 858 639 896 q 524 788 557 819 q 449 715 485 751 l 411 715 q 336 788 375 751 q 262 858 303 819 q 181 932 221 896 l 243 1018 z "},"ņ":{"ha":804,"x_min":11,"x_max":785,"o":"m 431 117 q 467 134 456 119 q 479 181 478 149 l 482 376 q 470 450 483 429 q 422 471 457 471 q 390 462 407 471 q 360 442 374 453 q 354 356 357 401 q 349 272 351 311 q 344 202 346 232 q 343 164 343 172 q 350 128 343 138 q 376 119 357 119 l 389 119 q 399 121 393 119 l 403 114 l 386 -6 q 324 -3 354 -4 q 268 -1 297 -1 q 217 0 239 0 q 149 -1 183 0 q 85 -4 114 -3 q 19 -7 50 -6 l 36 114 q 92 131 76 117 q 107 186 107 146 l 107 426 q 94 491 107 475 q 40 507 81 507 l 18 507 l 11 517 l 22 621 q 141 638 83 629 q 246 654 199 647 q 350 672 300 663 l 367 656 q 360 622 364 639 q 354 590 357 607 q 350 554 351 572 l 360 549 q 402 592 381 569 q 444 632 424 614 q 482 661 465 650 q 510 672 499 672 q 681 626 622 672 q 740 492 740 581 q 735 422 740 468 q 725 326 731 376 q 715 232 719 276 q 710 167 710 188 q 718 126 710 138 q 747 115 726 115 l 769 115 q 782 117 775 115 l 785 111 l 769 -6 q 700 -3 733 -4 q 640 -1 671 -1 q 589 0 610 0 q 541 -1 569 0 q 485 -3 513 -1 q 419 -4 453 -4 l 431 117 m 269 -108 q 344 -63 307 -79 q 411 -47 382 -47 q 497 -85 464 -47 q 529 -187 529 -124 q 467 -339 529 -261 q 297 -479 406 -417 l 217 -415 l 217 -381 q 281 -311 257 -351 q 306 -233 306 -271 q 294 -176 306 -206 q 265 -128 283 -147 l 269 -108 z "},"ñ":{"ha":804,"x_min":11,"x_max":785,"o":"m 431 117 q 467 134 456 119 q 479 181 478 149 l 482 376 q 470 450 483 429 q 422 471 457 471 q 390 462 407 471 q 360 442 374 453 q 354 356 357 401 q 349 272 351 311 q 344 202 346 232 q 343 164 343 172 q 350 128 343 138 q 376 119 357 119 l 389 119 q 399 121 393 119 l 403 114 l 386 -6 q 324 -3 354 -4 q 268 -1 297 -1 q 217 0 239 0 q 149 -1 183 0 q 85 -4 114 -3 q 19 -7 50 -6 l 36 114 q 92 131 76 117 q 107 186 107 146 l 107 426 q 94 491 107 475 q 40 507 81 507 l 18 507 l 11 517 l 22 621 q 141 638 83 629 q 246 654 199 647 q 350 672 300 663 l 367 656 q 360 622 364 639 q 354 590 357 607 q 350 554 351 572 l 360 549 q 402 592 381 569 q 444 632 424 614 q 482 661 465 650 q 510 672 499 672 q 681 626 622 672 q 740 492 740 581 q 735 422 740 468 q 725 326 731 376 q 715 232 719 276 q 710 167 710 188 q 718 126 710 138 q 747 115 726 115 l 769 115 q 782 117 775 115 l 785 111 l 769 -6 q 700 -3 733 -4 q 640 -1 671 -1 q 589 0 610 0 q 541 -1 569 0 q 485 -3 513 -1 q 419 -4 453 -4 l 431 117 m 235 729 l 153 804 l 153 826 l 265 986 l 289 992 q 337 984 307 992 q 399 968 367 976 q 459 952 431 960 q 503 944 488 944 q 531 957 515 944 q 561 985 546 969 q 596 1025 578 1001 l 618 1025 l 700 950 l 700 928 l 588 768 l 564 763 q 516 770 546 763 q 454 786 486 778 q 394 802 422 794 q 350 810 365 810 q 321 797 336 810 q 290 769 306 785 q 257 729 274 751 l 235 729 z "},"o":{"ha":707,"x_min":19,"x_max":688,"o":"m 339 -17 q 105 71 190 -17 q 19 313 19 158 q 112 578 19 483 q 369 672 204 672 q 606 588 525 672 q 688 344 688 504 q 596 78 688 174 q 339 -17 504 -17 m 356 132 q 406 160 392 132 q 419 265 419 188 q 416 381 419 335 q 404 456 413 428 q 382 494 396 483 q 347 506 368 506 q 297 478 311 506 q 283 376 283 450 q 287 258 283 306 q 299 183 290 211 q 321 144 307 156 q 356 132 335 132 z "},"ó":{"ha":707,"x_min":19,"x_max":688,"o":"m 339 -17 q 105 71 190 -17 q 19 313 19 158 q 112 578 19 483 q 369 672 204 672 q 606 588 525 672 q 688 344 688 504 q 596 78 688 174 q 339 -17 504 -17 m 356 132 q 406 160 392 132 q 419 265 419 188 q 416 381 419 335 q 404 456 413 428 q 382 494 396 483 q 347 506 368 506 q 297 478 311 506 q 283 376 283 450 q 287 258 283 306 q 299 183 290 211 q 321 144 307 156 q 356 132 335 132 m 611 892 q 518 842 567 868 q 424 790 476 818 q 318 729 371 761 l 288 739 l 231 824 q 326 907 279 865 q 410 982 374 949 q 490 1056 453 1021 l 514 1056 l 614 915 l 611 892 z "},"ô":{"ha":707,"x_min":19,"x_max":688,"o":"m 339 -17 q 105 71 190 -17 q 19 313 19 158 q 112 578 19 483 q 369 672 204 672 q 606 588 525 672 q 688 344 688 504 q 596 78 688 174 q 339 -17 504 -17 m 356 132 q 406 160 392 132 q 419 265 419 188 q 416 381 419 335 q 404 456 413 428 q 382 494 396 483 q 347 506 368 506 q 297 478 311 506 q 283 376 283 450 q 287 258 283 306 q 299 183 290 211 q 321 144 307 156 q 356 132 335 132 m 122 839 q 204 913 163 875 q 279 983 246 951 q 354 1056 318 1019 l 392 1056 q 467 983 428 1019 q 541 913 500 951 q 622 839 582 875 l 560 753 l 528 743 q 444 797 488 771 q 372 839 400 824 q 301 797 344 824 q 218 743 258 771 l 186 753 l 122 839 z "},"ö":{"ha":707,"x_min":19,"x_max":688,"o":"m 339 -17 q 105 71 190 -17 q 19 313 19 158 q 112 578 19 483 q 369 672 204 672 q 606 588 525 672 q 688 344 688 504 q 596 78 688 174 q 339 -17 504 -17 m 356 132 q 406 160 392 132 q 419 265 419 188 q 416 381 419 335 q 404 456 413 428 q 382 494 396 483 q 347 506 368 506 q 297 478 311 506 q 283 376 283 450 q 287 258 283 306 q 299 183 290 211 q 321 144 307 156 q 356 132 335 132 m 499 776 q 388 888 388 776 q 419 976 388 943 q 507 1008 451 1008 q 588 979 560 1008 q 617 897 617 950 q 585 809 617 842 q 499 776 553 776 m 231 776 q 121 888 121 776 q 153 976 121 943 q 240 1008 185 1008 q 322 979 293 1008 q 350 897 350 950 q 318 809 350 842 q 231 776 286 776 z "},"œ":{"ha":1069,"x_min":19,"x_max":1042,"o":"m 824 165 q 886 172 857 165 q 939 185 915 178 q 988 206 964 193 l 1000 199 l 1031 96 q 943 39 989 64 q 856 1 904 18 q 764 -17 808 -17 q 676 -3 715 -17 q 610 29 638 11 q 551 75 576 49 q 486 29 521 49 q 419 -3 457 11 q 339 -17 381 -17 q 105 71 190 -17 q 19 313 19 158 q 112 578 19 483 q 369 672 204 672 q 446 658 410 672 q 510 628 482 644 q 569 585 542 608 q 631 628 597 608 q 697 658 658 644 q 778 672 735 672 q 903 651 853 672 q 985 593 954 631 q 1028 505 1015 556 q 1042 394 1042 454 q 1040 360 1042 376 q 1036 332 1039 344 q 1031 303 1033 317 l 1015 289 l 686 289 l 686 285 q 730 192 697 218 q 824 165 763 165 m 356 132 q 406 160 392 132 q 419 265 419 188 q 416 381 419 335 q 404 456 413 428 q 382 494 396 483 q 347 506 368 506 q 297 478 311 506 q 283 376 283 450 q 287 258 283 306 q 299 183 290 211 q 321 144 307 156 q 356 132 335 132 m 756 518 q 696 489 713 518 q 679 392 679 460 l 794 403 q 808 408 806 404 q 811 428 811 413 q 756 518 811 518 z "},"ò":{"ha":707,"x_min":19,"x_max":688,"o":"m 339 -17 q 105 71 190 -17 q 19 313 19 158 q 112 578 19 483 q 369 672 204 672 q 606 588 525 672 q 688 344 688 504 q 596 78 688 174 q 339 -17 504 -17 m 356 132 q 406 160 392 132 q 419 265 419 188 q 416 381 419 335 q 404 456 413 428 q 382 494 396 483 q 347 506 368 506 q 297 478 311 506 q 283 376 283 450 q 287 258 283 306 q 299 183 290 211 q 321 144 307 156 q 356 132 335 132 m 165 915 l 265 1056 l 289 1056 q 369 982 326 1021 q 453 907 406 949 q 549 824 500 865 l 492 739 l 461 729 q 355 790 407 761 q 261 842 303 818 q 168 892 213 868 l 165 915 z "},"ő":{"ha":707,"x_min":19,"x_max":688,"o":"m 339 -17 q 105 71 190 -17 q 19 313 19 158 q 112 578 19 483 q 369 672 204 672 q 606 588 525 672 q 688 344 688 504 q 596 78 688 174 q 339 -17 504 -17 m 356 132 q 406 160 392 132 q 419 265 419 188 q 416 381 419 335 q 404 456 413 428 q 382 494 396 483 q 347 506 368 506 q 297 478 311 506 q 283 376 283 450 q 287 258 283 306 q 299 183 290 211 q 321 144 307 156 q 356 132 335 132 m 453 940 q 390 876 424 911 q 328 810 363 847 q 257 733 293 774 l 231 733 l 163 786 q 218 878 190 833 q 267 960 246 924 q 313 1040 292 1001 l 332 1047 l 449 960 l 453 940 m 679 940 q 617 876 650 911 q 554 810 589 847 q 483 733 519 774 l 457 733 l 389 786 q 444 878 417 833 q 493 960 472 924 q 539 1040 518 1001 l 558 1047 l 675 960 l 679 940 z "},"˝":{"ha":553,"x_min":29,"x_max":546,"o":"m 319 940 q 257 876 290 911 q 194 810 229 847 q 124 733 160 774 l 97 733 l 29 786 q 85 878 57 833 q 133 960 113 924 q 179 1040 158 1001 l 199 1047 l 315 960 l 319 940 m 546 940 q 483 876 517 911 q 421 810 456 847 q 350 733 386 774 l 324 733 l 256 786 q 311 878 283 833 q 360 960 339 924 q 406 1040 385 1001 l 425 1047 l 542 960 l 546 940 z "},"ō":{"ha":707,"x_min":19,"x_max":688,"o":"m 339 -17 q 105 71 190 -17 q 19 313 19 158 q 112 578 19 483 q 369 672 204 672 q 606 588 525 672 q 688 344 688 504 q 596 78 688 174 q 339 -17 504 -17 m 356 132 q 406 160 392 132 q 419 265 419 188 q 416 381 419 335 q 404 456 413 428 q 382 494 396 483 q 347 506 368 506 q 297 478 311 506 q 283 376 283 450 q 287 258 283 306 q 299 183 290 211 q 321 144 307 156 q 356 132 335 132 m 586 938 l 561 786 l 367 785 q 303 784 335 785 q 243 783 271 783 l 181 783 l 158 804 l 185 956 q 261 954 224 954 l 399 954 q 455 955 425 954 q 511 958 485 956 q 571 963 542 960 l 586 938 z "},"ø":{"ha":707,"x_min":-29,"x_max":739,"o":"m 96 82 q 19 313 19 167 q 112 578 19 483 q 369 672 204 672 q 429 669 401 672 q 482 658 457 665 l 601 843 l 736 768 l 739 750 l 621 569 q 688 344 688 486 q 596 78 688 174 q 339 -17 504 -17 q 233 -3 279 -17 l 108 -192 l -24 -115 l -29 -101 l 96 82 m 356 132 q 406 160 392 132 q 419 265 419 188 q 416 381 419 335 q 404 456 413 428 q 382 494 396 483 q 347 506 368 506 q 297 478 311 506 q 283 376 283 450 q 287 258 283 306 q 299 183 290 211 q 321 144 307 156 q 356 132 335 132 z "},"õ":{"ha":707,"x_min":19,"x_max":688,"o":"m 339 -17 q 105 71 190 -17 q 19 313 19 158 q 112 578 19 483 q 369 672 204 672 q 606 588 525 672 q 688 344 688 504 q 596 78 688 174 q 339 -17 504 -17 m 356 132 q 406 160 392 132 q 419 265 419 188 q 416 381 419 335 q 404 456 413 428 q 382 494 396 483 q 347 506 368 506 q 297 478 311 506 q 283 376 283 450 q 287 258 283 306 q 299 183 290 211 q 321 144 307 156 q 356 132 335 132 m 172 729 l 90 804 l 90 826 l 203 986 l 226 992 q 274 984 244 992 q 336 968 304 976 q 397 952 368 960 q 440 944 425 944 q 468 957 453 944 q 499 985 483 969 q 533 1025 515 1001 l 556 1025 l 638 950 l 638 928 l 525 768 l 501 763 q 453 770 483 763 q 392 786 424 778 q 331 802 360 794 q 288 810 303 810 q 258 797 274 810 q 228 769 243 785 q 194 729 211 751 l 172 729 z "},"p":{"ha":761,"x_min":3,"x_max":742,"o":"m 32 -206 q 77 -188 65 -203 q 89 -133 89 -174 l 99 60 l 99 426 q 85 491 99 475 q 32 507 72 507 l 10 507 l 3 517 l 14 621 q 133 638 75 629 q 236 654 190 647 q 338 672 290 663 l 354 656 q 347 622 350 639 q 342 589 344 607 q 338 554 340 571 l 343 551 q 457 665 438 665 q 574 643 521 665 q 664 579 626 621 q 722 479 701 538 q 742 349 742 421 q 636 79 742 168 q 347 -10 531 -10 l 339 -10 q 336 -8 338 -10 q 335 -64 336 -36 q 335 -119 335 -92 q 338 -181 335 -162 q 368 -200 342 -200 q 389 -200 378 -200 q 411 -199 400 -200 q 435 -196 424 -197 l 439 -203 l 419 -325 q 338 -322 376 -324 q 268 -320 304 -321 q 208 -319 232 -319 q 147 -321 181 -319 q 83 -324 113 -322 q 15 -326 49 -325 l 32 -206 m 344 160 q 364 153 354 156 q 383 149 372 150 q 408 147 394 147 q 481 292 481 147 q 461 436 481 392 q 397 481 442 481 q 350 469 375 481 q 346 307 347 392 q 344 160 344 222 z "},"q":{"ha":719,"x_min":19,"x_max":731,"o":"m 303 -204 q 357 -199 336 -203 q 390 -185 378 -194 q 406 -160 401 -176 q 411 -117 411 -143 l 417 81 q 279 -10 300 -10 q 87 73 154 -10 q 19 307 19 156 q 44 456 19 390 q 115 569 69 522 q 227 640 161 615 q 375 665 293 665 q 455 661 410 665 q 557 650 500 657 q 600 666 581 658 q 635 681 619 674 q 667 693 651 688 l 688 672 q 674 592 681 658 q 664 418 668 525 q 657 170 660 311 q 654 -133 654 29 q 661 -183 654 -171 q 690 -196 668 -196 l 715 -196 q 726 -194 721 -196 l 731 -200 l 721 -319 l 489 -319 q 428 -320 461 -319 q 364 -322 394 -321 q 292 -325 328 -324 l 303 -204 m 417 494 q 397 501 407 497 q 377 506 389 504 q 353 508 365 508 q 281 364 281 508 q 301 213 281 261 q 364 165 321 165 q 403 172 389 165 q 417 179 410 175 l 417 494 z "},"r":{"ha":618,"x_min":11,"x_max":617,"o":"m 36 114 q 92 131 76 117 q 107 186 107 146 l 107 426 q 94 492 107 476 q 40 507 82 507 l 18 507 l 11 517 l 22 621 q 141 638 83 629 q 246 654 199 647 q 350 672 300 663 l 367 656 q 360 618 364 638 q 354 581 357 601 q 350 540 351 560 l 361 535 q 454 628 407 599 q 556 658 501 658 q 574 658 564 658 q 592 656 583 657 q 610 654 601 654 l 617 638 q 603 533 608 588 q 590 431 596 488 q 582 321 585 375 l 451 314 q 443 416 451 390 q 410 442 435 442 q 358 419 385 442 q 350 301 354 354 q 345 217 347 257 q 343 169 343 176 q 383 125 343 125 q 409 126 394 125 q 435 128 424 126 q 463 132 449 129 l 471 121 l 451 -8 q 368 -4 408 -7 q 294 -1 333 -3 q 226 0 256 0 q 157 -1 193 0 q 90 -4 121 -3 q 19 -7 54 -6 l 36 114 z "},"ŕ":{"ha":618,"x_min":11,"x_max":617,"o":"m 36 114 q 92 131 76 117 q 107 186 107 146 l 107 426 q 94 492 107 476 q 40 507 82 507 l 18 507 l 11 517 l 22 621 q 141 638 83 629 q 246 654 199 647 q 350 672 300 663 l 367 656 q 360 618 364 638 q 354 581 357 601 q 350 540 351 560 l 361 535 q 454 628 407 599 q 556 658 501 658 q 574 658 564 658 q 592 656 583 657 q 610 654 601 654 l 617 638 q 603 533 608 588 q 590 431 596 488 q 582 321 585 375 l 451 314 q 443 416 451 390 q 410 442 435 442 q 358 419 385 442 q 350 301 354 354 q 345 217 347 257 q 343 169 343 176 q 383 125 343 125 q 409 126 394 125 q 435 128 424 126 q 463 132 449 129 l 471 121 l 451 -8 q 368 -4 408 -7 q 294 -1 333 -3 q 226 0 256 0 q 157 -1 193 0 q 90 -4 121 -3 q 19 -7 54 -6 l 36 114 m 472 892 q 379 842 428 868 q 285 790 338 818 q 179 729 232 761 l 149 739 l 92 824 q 188 907 140 865 q 271 982 235 949 q 351 1056 314 1021 l 375 1056 l 475 915 l 472 892 z "},"ř":{"ha":618,"x_min":-21,"x_max":617,"o":"m 36 114 q 92 131 76 117 q 107 186 107 146 l 107 426 q 94 492 107 476 q 40 507 82 507 l 18 507 l 11 517 l 22 621 q 141 638 83 629 q 246 654 199 647 q 350 672 300 663 l 367 656 q 360 618 364 638 q 354 581 357 601 q 350 540 351 560 l 361 535 q 454 628 407 599 q 556 658 501 658 q 574 658 564 658 q 592 656 583 657 q 610 654 601 654 l 617 638 q 603 533 608 588 q 590 431 596 488 q 582 321 585 375 l 451 314 q 443 416 451 390 q 410 442 435 442 q 358 419 385 442 q 350 301 354 354 q 345 217 347 257 q 343 169 343 176 q 383 125 343 125 q 409 126 394 125 q 435 128 424 126 q 463 132 449 129 l 471 121 l 451 -8 q 368 -4 408 -7 q 294 -1 333 -3 q 226 0 256 0 q 157 -1 193 0 q 90 -4 121 -3 q 19 -7 54 -6 l 36 114 m 42 1018 l 74 1028 q 158 974 114 1000 q 229 932 201 947 q 300 974 257 947 q 383 1028 343 1000 l 415 1018 l 479 932 q 397 858 438 896 q 322 788 356 819 q 247 715 283 751 l 210 715 q 135 788 174 751 q 60 858 101 819 q -21 932 19 896 l 42 1018 z "},"ŗ":{"ha":618,"x_min":11,"x_max":617,"o":"m 36 114 q 92 131 76 117 q 107 186 107 146 l 107 426 q 94 492 107 476 q 40 507 82 507 l 18 507 l 11 517 l 22 621 q 141 638 83 629 q 246 654 199 647 q 350 672 300 663 l 367 656 q 360 618 364 638 q 354 581 357 601 q 350 540 351 560 l 361 535 q 454 628 407 599 q 556 658 501 658 q 574 658 564 658 q 592 656 583 657 q 610 654 601 654 l 617 638 q 603 533 608 588 q 590 431 596 488 q 582 321 585 375 l 451 314 q 443 416 451 390 q 410 442 435 442 q 358 419 385 442 q 350 301 354 354 q 345 217 347 257 q 343 169 343 176 q 383 125 343 125 q 409 126 394 125 q 435 128 424 126 q 463 132 449 129 l 471 121 l 451 -8 q 368 -4 408 -7 q 294 -1 333 -3 q 226 0 256 0 q 157 -1 193 0 q 90 -4 121 -3 q 19 -7 54 -6 l 36 114 m 88 -108 q 163 -63 125 -79 q 229 -47 200 -47 q 315 -85 282 -47 q 347 -187 347 -124 q 285 -339 347 -261 q 115 -479 224 -417 l 35 -415 l 35 -381 q 99 -311 75 -351 q 124 -233 124 -271 q 113 -176 124 -206 q 83 -128 101 -147 l 88 -108 z "},"s":{"ha":578,"x_min":10,"x_max":553,"o":"m 232 -17 q 147 -10 185 -17 q 82 7 110 -3 q 24 31 50 17 l 10 50 q 21 135 15 86 q 31 229 26 183 l 142 238 q 174 160 143 192 q 250 128 206 128 q 290 138 275 128 q 306 164 306 147 q 301 183 306 174 q 285 200 297 192 q 250 219 272 208 q 193 243 228 229 q 66 326 106 279 q 26 442 26 372 q 49 537 26 494 q 115 610 72 579 q 217 656 157 640 q 351 672 278 672 q 423 668 392 672 q 478 658 454 664 q 525 644 504 653 l 538 621 q 528 560 533 592 q 513 429 519 503 l 401 424 l 401 429 q 325 522 400 522 q 285 511 300 522 q 271 481 271 500 q 336 419 271 447 q 443 369 401 392 q 509 321 485 346 q 543 267 533 296 q 553 201 553 239 q 529 113 553 153 q 463 44 506 74 q 361 -1 419 15 q 232 -17 303 -17 z "},"ś":{"ha":578,"x_min":10,"x_max":554,"o":"m 232 -17 q 147 -10 185 -17 q 82 7 110 -3 q 24 31 50 17 l 10 50 q 21 135 15 86 q 31 229 26 183 l 142 238 q 174 160 143 192 q 250 128 206 128 q 290 138 275 128 q 306 164 306 147 q 301 183 306 174 q 285 200 297 192 q 250 219 272 208 q 193 243 228 229 q 66 326 106 279 q 26 442 26 372 q 49 537 26 494 q 115 610 72 579 q 217 656 157 640 q 351 672 278 672 q 423 668 392 672 q 478 658 454 664 q 525 644 504 653 l 538 621 q 528 560 533 592 q 513 429 519 503 l 401 424 l 401 429 q 325 522 400 522 q 285 511 300 522 q 271 481 271 500 q 336 419 271 447 q 443 369 401 392 q 509 321 485 346 q 543 267 533 296 q 553 201 553 239 q 529 113 553 153 q 463 44 506 74 q 361 -1 419 15 q 232 -17 303 -17 m 551 892 q 458 842 507 868 q 364 790 417 818 q 258 729 311 761 l 228 739 l 171 824 q 267 907 219 865 q 350 982 314 949 q 431 1056 393 1021 l 454 1056 l 554 915 l 551 892 z "},"š":{"ha":578,"x_min":10,"x_max":558,"o":"m 232 -17 q 147 -10 185 -17 q 82 7 110 -3 q 24 31 50 17 l 10 50 q 21 135 15 86 q 31 229 26 183 l 142 238 q 174 160 143 192 q 250 128 206 128 q 290 138 275 128 q 306 164 306 147 q 301 183 306 174 q 285 200 297 192 q 250 219 272 208 q 193 243 228 229 q 66 326 106 279 q 26 442 26 372 q 49 537 26 494 q 115 610 72 579 q 217 656 157 640 q 351 672 278 672 q 423 668 392 672 q 478 658 454 664 q 525 644 504 653 l 538 621 q 528 560 533 592 q 513 429 519 503 l 401 424 l 401 429 q 325 522 400 522 q 285 511 300 522 q 271 481 271 500 q 336 419 271 447 q 443 369 401 392 q 509 321 485 346 q 543 267 533 296 q 553 201 553 239 q 529 113 553 153 q 463 44 506 74 q 361 -1 419 15 q 232 -17 303 -17 m 121 1018 l 153 1028 q 237 974 193 1000 q 308 932 281 947 q 379 974 336 947 q 463 1028 422 1000 l 494 1018 l 558 932 q 476 858 517 896 q 401 788 435 819 q 326 715 363 751 l 289 715 q 214 788 253 751 q 140 858 181 819 q 58 932 99 896 l 121 1018 z "},"ş":{"ha":578,"x_min":10,"x_max":553,"o":"m 208 -15 q 132 -6 167 -12 q 74 10 97 1 q 24 31 46 19 l 10 50 q 21 135 15 86 q 31 229 26 183 l 142 238 q 174 160 143 192 q 250 128 206 128 q 290 138 275 128 q 306 164 306 147 q 301 183 306 174 q 285 200 297 192 q 250 219 272 208 q 193 243 228 229 q 66 326 106 279 q 26 442 26 372 q 49 537 26 494 q 115 610 72 579 q 217 656 157 640 q 351 672 278 672 q 423 668 392 672 q 478 658 454 664 q 525 644 504 653 l 538 621 q 528 560 533 592 q 513 429 519 503 l 401 424 l 401 429 q 325 522 400 522 q 285 511 300 522 q 271 481 271 500 q 336 419 271 447 q 443 369 401 392 q 509 321 485 346 q 543 267 533 296 q 553 201 553 239 q 534 124 553 160 q 481 59 515 88 q 400 13 447 31 q 296 -12 353 -6 l 288 -53 q 335 -79 310 -64 q 384 -113 361 -94 q 422 -153 407 -132 q 438 -199 438 -175 q 422 -253 438 -228 q 378 -297 406 -278 q 313 -326 350 -315 q 232 -336 275 -336 q 190 -331 211 -336 q 151 -317 168 -326 q 122 -294 133 -308 q 110 -264 110 -281 q 117 -243 110 -256 q 133 -217 124 -231 q 155 -191 143 -204 q 178 -167 167 -178 l 190 -167 q 210 -225 192 -206 q 258 -244 229 -244 q 303 -212 303 -244 q 292 -189 303 -201 q 263 -165 281 -176 q 224 -142 244 -153 q 182 -121 203 -131 l 208 -15 z "},"ș":{"ha":578,"x_min":10,"x_max":553,"o":"m 232 -17 q 147 -10 185 -17 q 82 7 110 -3 q 24 31 50 17 l 10 50 q 21 135 15 86 q 31 229 26 183 l 142 238 q 174 160 143 192 q 250 128 206 128 q 290 138 275 128 q 306 164 306 147 q 301 183 306 174 q 285 200 297 192 q 250 219 272 208 q 193 243 228 229 q 66 326 106 279 q 26 442 26 372 q 49 537 26 494 q 115 610 72 579 q 217 656 157 640 q 351 672 278 672 q 423 668 392 672 q 478 658 454 664 q 525 644 504 653 l 538 621 q 528 560 533 592 q 513 429 519 503 l 401 424 l 401 429 q 325 522 400 522 q 285 511 300 522 q 271 481 271 500 q 336 419 271 447 q 443 369 401 392 q 509 321 485 346 q 543 267 533 296 q 553 201 553 239 q 529 113 553 153 q 463 44 506 74 q 361 -1 419 15 q 232 -17 303 -17 m 153 -108 q 228 -63 190 -79 q 294 -47 265 -47 q 380 -85 347 -47 q 413 -187 413 -124 q 351 -339 413 -261 q 181 -479 289 -417 l 100 -415 l 100 -381 q 165 -311 140 -351 q 189 -233 189 -271 q 178 -176 189 -206 q 149 -128 167 -147 l 153 -108 z "},"t":{"ha":464,"x_min":-19,"x_max":468,"o":"m 74 429 q 60 494 74 479 q 3 510 46 510 l -19 522 l -8 621 q 105 678 50 647 q 203 735 160 708 q 297 796 253 765 l 350 765 q 343 728 347 749 q 336 684 340 710 q 329 626 332 658 l 446 631 l 453 621 l 438 503 l 318 507 q 313 394 315 454 q 311 260 311 333 q 378 168 311 168 q 401 169 389 168 q 424 174 413 171 q 446 181 435 176 l 468 125 q 397 54 432 85 q 336 5 368 26 q 285 -17 304 -17 q 127 28 181 -17 q 74 158 74 72 l 74 429 z "},"ŧ":{"ha":496,"x_min":-15,"x_max":488,"o":"m 93 294 q 57 293 74 293 q 28 293 40 293 l 0 293 l -15 307 l -4 388 q 25 386 10 386 l 93 386 l 93 429 q 79 494 93 479 q 22 510 65 510 l 0 522 l 11 621 q 124 678 69 647 q 222 735 179 708 q 317 796 272 765 l 369 765 q 363 728 367 749 q 356 684 360 710 q 349 626 351 658 l 465 631 l 472 621 l 457 503 l 338 507 q 334 449 335 479 q 332 386 333 418 q 378 387 356 386 q 417 389 400 388 q 454 392 436 390 l 475 371 l 468 294 l 331 294 l 331 260 q 397 168 331 168 q 420 169 408 168 q 443 174 432 171 q 465 181 454 176 l 488 125 q 417 54 451 85 q 356 5 388 26 q 304 -17 324 -17 q 147 28 200 -17 q 93 158 93 72 l 93 294 z "},"ť":{"ha":689,"x_min":-19,"x_max":689,"o":"m 74 429 q 60 494 74 479 q 3 510 46 510 l -19 522 l -8 621 q 105 678 50 647 q 203 735 160 708 q 297 796 253 765 l 350 765 q 343 728 347 749 q 336 684 340 710 q 329 626 332 658 l 446 631 l 453 621 l 438 503 l 318 507 q 313 394 315 454 q 311 260 311 333 q 378 168 311 168 q 401 169 389 168 q 424 174 413 171 q 446 181 435 176 l 468 125 q 397 54 432 85 q 336 5 368 26 q 285 -17 304 -17 q 127 28 181 -17 q 74 158 74 72 l 74 429 m 689 760 q 674 664 682 714 q 656 566 667 621 q 631 453 644 511 l 529 418 l 503 426 q 502 548 504 489 q 497 654 500 607 q 490 757 493 708 l 676 776 l 689 760 z "},"ţ":{"ha":464,"x_min":-19,"x_max":468,"o":"m 225 -11 q 74 158 74 13 l 74 429 q 60 494 74 479 q 3 510 46 510 l -19 522 l -8 621 q 105 678 50 647 q 203 735 160 708 q 297 796 253 765 l 350 765 q 343 728 347 749 q 336 684 340 710 q 329 626 332 658 l 446 631 l 453 621 l 438 503 l 318 507 q 313 394 315 454 q 311 260 311 333 q 378 168 311 168 q 401 169 389 168 q 424 174 413 171 q 446 181 435 176 l 468 125 q 413 69 439 94 q 363 25 389 47 q 313 -8 336 3 l 303 -53 q 351 -79 325 -64 q 399 -113 376 -94 q 438 -153 422 -132 q 453 -199 453 -175 q 437 -253 453 -228 q 393 -297 421 -278 q 328 -326 365 -315 q 247 -336 290 -336 q 205 -331 226 -336 q 166 -317 183 -326 q 137 -294 149 -308 q 125 -264 125 -281 q 132 -243 125 -256 q 149 -217 139 -231 q 170 -191 158 -204 q 193 -167 182 -178 l 206 -167 q 226 -225 207 -206 q 274 -244 244 -244 q 318 -212 318 -244 q 307 -189 318 -201 q 278 -165 296 -176 q 239 -142 260 -153 q 197 -121 218 -131 l 225 -11 z "},"þ":{"ha":717,"x_min":-39,"x_max":706,"o":"m 69 785 q 56 851 69 835 q 3 867 43 867 l -32 867 l -39 876 l -28 981 q 100 997 35 988 q 219 1014 165 1007 q 344 1031 283 1022 l 357 994 q 314 583 325 964 q 381 630 354 611 q 424 657 408 649 q 446 665 440 665 q 638 583 571 665 q 706 349 706 500 q 681 199 706 265 q 610 87 656 133 q 498 15 564 40 q 350 -10 432 -10 l 319 -10 q 307 -8 313 -10 q 305 -67 307 -33 q 305 -129 303 -100 q 314 -179 307 -158 q 340 -200 321 -200 q 368 -200 354 -200 q 393 -199 382 -200 q 418 -196 407 -197 l 422 -203 l 403 -325 q 315 -322 357 -324 q 242 -320 279 -321 q 181 -319 204 -319 q 115 -321 150 -319 q 50 -324 81 -322 q -19 -326 14 -325 l -3 -206 q 46 -190 33 -203 q 61 -133 58 -176 l 69 76 l 69 785 m 308 160 q 328 153 318 156 q 347 149 336 150 q 372 147 358 147 q 444 292 444 147 q 424 442 444 394 q 361 490 404 490 q 330 487 344 490 q 308 476 315 483 l 308 160 z "},"u":{"ha":768,"x_min":1,"x_max":779,"o":"m 78 451 q 69 497 78 485 q 38 510 61 510 q 24 509 31 510 q 13 508 18 508 l 1 508 l 13 624 q 126 639 69 631 q 226 654 182 647 q 328 672 279 663 l 346 642 q 331 589 338 625 q 318 503 324 553 q 310 394 313 454 q 307 272 307 335 q 367 186 307 186 q 431 208 390 186 l 431 449 q 429 479 431 468 q 422 497 428 490 q 407 505 417 503 q 381 508 397 507 l 368 508 l 386 622 q 494 637 439 629 q 594 651 550 644 q 696 667 647 658 l 715 636 q 697 581 706 619 q 683 488 689 542 q 673 366 676 433 q 669 226 669 299 q 681 191 669 204 q 710 178 692 178 q 726 179 718 178 q 740 183 733 181 q 756 189 747 186 l 779 153 q 726 81 754 114 q 672 24 703 51 q 608 -17 642 -4 q 446 85 464 -17 l 431 93 q 362 15 392 44 q 318 -14 332 -14 q 129 34 193 -14 q 65 175 65 82 l 78 451 z "},"ú":{"ha":768,"x_min":1,"x_max":779,"o":"m 78 451 q 69 497 78 485 q 38 510 61 510 q 24 509 31 510 q 13 508 18 508 l 1 508 l 13 624 q 126 639 69 631 q 226 654 182 647 q 328 672 279 663 l 346 642 q 331 589 338 625 q 318 503 324 553 q 310 394 313 454 q 307 272 307 335 q 367 186 307 186 q 431 208 390 186 l 431 449 q 429 479 431 468 q 422 497 428 490 q 407 505 417 503 q 381 508 397 507 l 368 508 l 386 622 q 494 637 439 629 q 594 651 550 644 q 696 667 647 658 l 715 636 q 697 581 706 619 q 683 488 689 542 q 673 366 676 433 q 669 226 669 299 q 681 191 669 204 q 710 178 692 178 q 726 179 718 178 q 740 183 733 181 q 756 189 747 186 l 779 153 q 726 81 754 114 q 672 24 703 51 q 608 -17 642 -4 q 446 85 464 -17 l 431 93 q 362 15 392 44 q 318 -14 332 -14 q 129 34 193 -14 q 65 175 65 82 l 78 451 m 622 892 q 529 842 578 868 q 435 790 488 818 q 329 729 382 761 l 299 739 l 242 824 q 338 907 290 865 q 421 982 385 949 q 501 1056 464 1021 l 525 1056 l 625 915 l 622 892 z "},"û":{"ha":768,"x_min":1,"x_max":779,"o":"m 78 451 q 69 497 78 485 q 38 510 61 510 q 24 509 31 510 q 13 508 18 508 l 1 508 l 13 624 q 126 639 69 631 q 226 654 182 647 q 328 672 279 663 l 346 642 q 331 589 338 625 q 318 503 324 553 q 310 394 313 454 q 307 272 307 335 q 367 186 307 186 q 431 208 390 186 l 431 449 q 429 479 431 468 q 422 497 428 490 q 407 505 417 503 q 381 508 397 507 l 368 508 l 386 622 q 494 637 439 629 q 594 651 550 644 q 696 667 647 658 l 715 636 q 697 581 706 619 q 683 488 689 542 q 673 366 676 433 q 669 226 669 299 q 681 191 669 204 q 710 178 692 178 q 726 179 718 178 q 740 183 733 181 q 756 189 747 186 l 779 153 q 726 81 754 114 q 672 24 703 51 q 608 -17 642 -4 q 446 85 464 -17 l 431 93 q 362 15 392 44 q 318 -14 332 -14 q 129 34 193 -14 q 65 175 65 82 l 78 451 m 133 839 q 215 913 174 875 q 290 983 257 951 q 365 1056 329 1019 l 403 1056 q 478 983 439 1019 q 552 913 511 951 q 633 839 593 875 l 571 753 l 539 743 q 455 797 499 771 q 383 839 411 824 q 313 797 356 824 q 229 743 269 771 l 197 753 l 133 839 z "},"ü":{"ha":768,"x_min":1,"x_max":779,"o":"m 78 451 q 69 497 78 485 q 38 510 61 510 q 24 509 31 510 q 13 508 18 508 l 1 508 l 13 624 q 126 639 69 631 q 226 654 182 647 q 328 672 279 663 l 346 642 q 331 589 338 625 q 318 503 324 553 q 310 394 313 454 q 307 272 307 335 q 367 186 307 186 q 431 208 390 186 l 431 449 q 429 479 431 468 q 422 497 428 490 q 407 505 417 503 q 381 508 397 507 l 368 508 l 386 622 q 494 637 439 629 q 594 651 550 644 q 696 667 647 658 l 715 636 q 697 581 706 619 q 683 488 689 542 q 673 366 676 433 q 669 226 669 299 q 681 191 669 204 q 710 178 692 178 q 726 179 718 178 q 740 183 733 181 q 756 189 747 186 l 779 153 q 726 81 754 114 q 672 24 703 51 q 608 -17 642 -4 q 446 85 464 -17 l 431 93 q 362 15 392 44 q 318 -14 332 -14 q 129 34 193 -14 q 65 175 65 82 l 78 451 m 510 776 q 399 888 399 776 q 431 976 399 943 q 518 1008 463 1008 q 599 979 571 1008 q 628 897 628 950 q 596 809 628 842 q 510 776 564 776 m 242 776 q 132 888 132 776 q 164 976 132 943 q 251 1008 196 1008 q 333 979 304 1008 q 361 897 361 950 q 329 809 361 842 q 242 776 297 776 z "},"ù":{"ha":768,"x_min":1,"x_max":779,"o":"m 78 451 q 69 497 78 485 q 38 510 61 510 q 24 509 31 510 q 13 508 18 508 l 1 508 l 13 624 q 126 639 69 631 q 226 654 182 647 q 328 672 279 663 l 346 642 q 331 589 338 625 q 318 503 324 553 q 310 394 313 454 q 307 272 307 335 q 367 186 307 186 q 431 208 390 186 l 431 449 q 429 479 431 468 q 422 497 428 490 q 407 505 417 503 q 381 508 397 507 l 368 508 l 386 622 q 494 637 439 629 q 594 651 550 644 q 696 667 647 658 l 715 636 q 697 581 706 619 q 683 488 689 542 q 673 366 676 433 q 669 226 669 299 q 681 191 669 204 q 710 178 692 178 q 726 179 718 178 q 740 183 733 181 q 756 189 747 186 l 779 153 q 726 81 754 114 q 672 24 703 51 q 608 -17 642 -4 q 446 85 464 -17 l 431 93 q 362 15 392 44 q 318 -14 332 -14 q 129 34 193 -14 q 65 175 65 82 l 78 451 m 176 915 l 276 1056 l 300 1056 q 381 982 338 1021 q 464 907 417 949 q 560 824 511 865 l 503 739 l 472 729 q 366 790 418 761 q 272 842 314 818 q 179 892 224 868 l 176 915 z "}}}
